<?xml version="1.0" standalone="no"?>
<!DOCTYPE svg PUBLIC "-//W3C//DTD SVG 20010904//EN"
 "http://www.w3.org/TR/2001/REC-SVG-20010904/DTD/svg10.dtd">
<svg version="1.0" xmlns="http://www.w3.org/2000/svg"
 width="341.000000pt" height="341.000000pt" viewBox="0 0 341.000000 341.000000"
 preserveAspectRatio="xMidYMid meet">
<metadata>
Created by potrace 1.11, written by Peter Selinger 2001-2013
</metadata>
<g transform="translate(0.000000,341.000000) scale(0.100000,-0.100000)"
fill="#000000" stroke="none">
<path d="M1654 3331 c-132 -33 -240 -208 -261 -419 -4 -42 -6 -81 -5 -85 1 -5
-2 -6 -8 -2 -5 3 -10 11 -10 16 0 17 -107 144 -161 192 -78 68 -153 105 -229
112 -59 6 -70 4 -119 -22 -43 -22 -60 -39 -85 -83 -29 -52 -31 -61 -31 -160 0
-111 19 -188 72 -293 13 -27 23 -50 21 -52 -2 -2 -39 12 -83 31 -205 91 -393
93 -491 6 -37 -31 -56 -81 -56 -143 -1 -112 88 -244 239 -356 40 -29 77 -53
84 -53 7 0 10 -2 8 -4 -3 -3 -36 -8 -74 -11 -270 -24 -439 -116 -461 -252 -25
-161 173 -305 454 -329 37 -4 68 -7 70 -9 1 -1 -21 -18 -50 -36 -209 -133
-315 -310 -264 -443 32 -84 111 -128 241 -132 118 -4 215 19 383 93 6 3 -1
-20 -17 -51 -77 -145 -106 -299 -77 -400 72 -246 382 -192 600 103 l46 63 0
-38 c2 -146 54 -309 128 -395 113 -132 299 -101 397 67 34 59 72 169 80 236 3
29 8 68 10 87 4 33 15 57 15 32 0 -6 17 -35 39 -64 189 -254 407 -326 538
-178 78 89 68 300 -24 489 -29 58 -29 62 -10 49 23 -15 177 -76 212 -84 59
-13 97 -17 166 -17 230 1 317 190 179 389 -43 61 -114 130 -188 182 -37 25
-70 49 -74 52 -4 3 16 6 45 7 221 3 423 93 472 211 72 171 -132 344 -435 369
-41 4 -76 7 -78 9 -1 1 27 22 63 45 79 51 182 149 218 206 51 82 64 182 31
245 -17 33 -65 75 -113 96 -53 25 -247 24 -321 0 -65 -22 -114 -42 -153 -62
-16 -8 -32 -15 -36 -15 -4 0 9 33 29 73 20 39 37 74 38 77 1 5 4 15 22 70 6
19 14 69 17 111 8 99 -14 173 -66 222 -131 125 -360 41 -540 -197 l-48 -63 -1
41 c-6 156 -61 320 -132 394 -58 61 -146 91 -216 73z"/>
</g>
</svg>
