<svg xmlns="http://www.w3.org/2000/svg" xmlns:xlink="http://www.w3.org/1999/xlink" preserveAspectRatio="xMidYMid" width="30" height="30" viewBox="0 0 30 30">
  <defs>
    <style>

      .cls-2 {
        fill: #e98457;
      }
    </style>
  </defs>
  <path d="M30.000,18.000 C30.000,18.000 18.000,18.000 18.000,18.000 C18.000,18.000 18.000,30.000 18.000,30.000 C18.000,30.000 12.000,30.000 12.000,30.000 C12.000,30.000 12.000,18.000 12.000,18.000 C12.000,18.000 -0.000,18.000 -0.000,18.000 C-0.000,18.000 -0.000,12.000 -0.000,12.000 C-0.000,12.000 12.000,12.000 12.000,12.000 C12.000,12.000 12.000,-0.000 12.000,-0.000 C12.000,-0.000 18.000,-0.000 18.000,-0.000 C18.000,-0.000 18.000,12.000 18.000,12.000 C18.000,12.000 30.000,12.000 30.000,12.000 C30.000,12.000 30.000,18.000 30.000,18.000 Z" id="path-1" class="cls-2" fill-rule="evenodd"/>
</svg>
