<?xml version="1.0" standalone="no"?>
<!DOCTYPE svg PUBLIC "-//W3C//DTD SVG 20010904//EN"
 "http://www.w3.org/TR/2001/REC-SVG-20010904/DTD/svg10.dtd">
<svg version="1.0" xmlns="http://www.w3.org/2000/svg"
 width="171.000000pt" height="171.000000pt" viewBox="0 0 171.000000 171.000000"
 preserveAspectRatio="xMidYMid meet">
<metadata>
Created by potrace 1.11, written by Peter Selinger 2001-2013
</metadata>
<g transform="translate(0.000000,171.000000) scale(0.100000,-0.100000)"
fill="#000000" stroke="none">
<path d="M911 1180 c-23 -17 -39 -35 -36 -40 3 -6 2 -10 -3 -10 -5 0 -13 -10
-17 -22 -4 -13 -9 -27 -11 -33 -2 -5 -5 -17 -6 -25 -2 -8 -6 -19 -10 -25 -3
-5 -10 -37 -14 -70 -4 -33 -8 -62 -9 -65 0 -3 -4 -10 -8 -17 -4 -6 -3 -14 3
-18 6 -4 7 -12 3 -18 -4 -7 -8 -38 -8 -71 0 -50 -4 -62 -29 -87 -16 -16 -33
-29 -38 -29 -15 0 -26 44 -17 68 5 12 6 22 3 22 -2 0 0 10 7 21 8 16 8 20 -1
14 -9 -6 -9 -2 0 14 19 36 9 74 -20 78 -13 2 -29 8 -34 13 -37 37 -129 -21
-172 -107 -33 -65 -37 -71 -79 -98 -35 -23 -135 -75 -135 -70 0 1 -16 -1 -35
-5 -19 -4 -37 -4 -40 1 -3 4 -12 6 -20 3 -9 -4 -29 9 -49 31 -34 35 -34 38
-32 109 2 40 9 82 15 94 6 12 10 22 7 22 -10 0 38 95 71 141 19 27 49 57 67
69 35 21 106 28 106 9 0 -5 4 -8 9 -5 16 11 28 -47 18 -87 -10 -39 -56 -86
-85 -88 -9 0 -30 -2 -47 -2 -23 -2 -31 -7 -33 -25 -12 -84 132 -62 198 30 17
23 33 52 36 65 4 13 10 23 16 23 5 0 6 4 3 10 -3 5 -8 26 -9 45 -7 70 -58 117
-128 118 -62 1 -92 -8 -140 -42 -40 -27 -114 -101 -102 -101 3 0 -7 -16 -23
-36 -15 -20 -28 -41 -30 -48 -1 -6 -12 -38 -24 -71 -25 -72 -31 -158 -14 -202
8 -17 11 -34 7 -37 -3 -3 1 -6 8 -6 7 0 10 -3 7 -7 -12 -11 72 -82 108 -92 65
-18 235 12 235 41 0 6 3 8 6 5 4 -4 24 7 46 25 l39 31 20 -22 c11 -11 25 -21
32 -22 33 -3 65 5 95 23 33 20 33 20 47 0 21 -29 49 -32 89 -11 32 17 36 17
44 2 11 -19 59 -11 59 11 0 17 86 158 108 176 18 15 19 10 4 -27 -18 -44 -19
-100 -4 -136 8 -17 14 -28 15 -24 0 5 7 2 15 -7 17 -17 56 -9 111 23 l34 20
25 -23 c13 -12 32 -24 42 -25 54 -6 92 1 136 24 52 26 54 26 95 -12 34 -32
171 -4 204 42 4 6 8 7 8 3 0 -7 50 39 50 46 0 2 -9 13 -19 25 l-19 22 -30 -26
c-35 -29 -99 -58 -112 -50 -5 3 -12 1 -15 -5 -5 -8 -11 -7 -21 1 -21 17 -18
22 31 48 70 37 95 89 70 148 -10 23 -23 35 -47 41 -80 22 -156 -53 -160 -160
-1 -21 -11 -32 -50 -53 -26 -14 -48 -24 -48 -20 0 3 -9 1 -19 -5 -15 -8 -24
-6 -37 7 -10 11 -13 18 -6 21 7 2 13 2 14 0 4 -4 32 19 71 59 34 35 40 53 32
100 -4 24 -13 34 -41 45 -20 8 -48 13 -61 10 -56 -11 -119 -109 -115 -179 1
-14 -4 -23 -13 -23 -8 0 -15 -4 -15 -9 0 -17 -42 -24 -51 -10 -10 16 -8 29 19
125 33 119 -10 138 -99 44 -26 -27 -46 -42 -45 -35 1 7 7 19 12 26 14 17 79
155 90 189 15 46 16 55 18 106 2 88 -46 109 -123 54z m64 -69 c-3 -17 -10 -43
-16 -58 -6 -15 -10 -29 -10 -30 1 -7 -38 -104 -64 -158 l-14 -30 4 45 c9 88
24 146 48 195 36 72 62 89 52 36z m-331 -313 c-9 -60 -34 -135 -49 -148 -20
-17 -45 3 -45 36 0 45 46 124 80 137 8 3 16 6 17 6 1 1 -1 -14 -3 -31z m632 6
c1 -27 -17 -51 -48 -63 -23 -9 -25 -7 -25 15 0 13 4 24 10 24 6 0 7 3 4 7 -11
10 25 44 42 41 9 -2 16 -13 17 -24z m251 15 c15 -15 6 -38 -25 -67 -18 -17
-27 -20 -37 -12 -16 13 -3 56 24 78 18 15 24 15 38 1z"/>
</g>
</svg>
