<svg xmlns="http://www.w3.org/2000/svg" xmlns:xlink="http://www.w3.org/1999/xlink" preserveAspectRatio="xMidYMid" width="15" height="24" viewBox="0 0 15 24">
  <defs>
    <style>

      .cls-2 {
        fill: #252525;
      }
    </style>
  </defs>
  <path d="M14.626,15.277 C14.626,15.678 14.298,16.003 13.894,16.003 C13.491,16.003 13.163,15.678 13.163,15.277 C13.163,15.277 13.162,15.268 13.162,15.268 C13.162,15.268 13.119,15.268 13.119,15.268 C12.766,12.427 10.373,10.220 7.428,10.173 C7.396,10.173 7.366,10.182 7.334,10.182 C7.302,10.182 7.272,10.173 7.241,10.173 C4.295,10.220 1.903,12.427 1.550,15.268 C1.550,15.268 1.509,15.268 1.509,15.268 C1.509,15.268 1.509,15.277 1.509,15.277 C1.509,15.678 1.182,16.003 0.778,16.003 C0.374,16.003 0.047,15.678 0.047,15.277 C0.047,15.277 0.040,15.209 0.040,15.209 C0.040,15.088 0.078,14.979 0.130,14.879 C0.517,12.366 2.166,10.268 4.445,9.294 C3.094,8.377 2.206,6.837 2.206,5.089 C2.206,2.276 4.502,-0.005 7.334,-0.005 C10.166,-0.005 12.462,2.276 12.462,5.089 C12.462,6.836 11.574,8.376 10.224,9.293 C12.512,10.270 14.166,12.379 14.545,14.903 C14.590,14.997 14.619,15.099 14.619,15.209 C14.619,15.209 14.626,15.277 14.626,15.277 ZM10.996,5.090 C10.996,3.081 9.356,1.452 7.333,1.452 C5.310,1.452 3.670,3.081 3.670,5.090 C3.670,7.100 5.310,8.728 7.333,8.728 C9.356,8.728 10.996,7.100 10.996,5.090 Z" id="path-1" class="cls-2" fill-rule="evenodd"/>
</svg>
