<?xml version="1.0" encoding="UTF-8" standalone="no"?>
<!-- Created with Inkscape (http://www.inkscape.org/) -->

<svg
   xmlns:dc="http://purl.org/dc/elements/1.1/"
   xmlns:cc="http://creativecommons.org/ns#"
   xmlns:rdf="http://www.w3.org/1999/02/22-rdf-syntax-ns#"
   xmlns:svg="http://www.w3.org/2000/svg"
   xmlns="http://www.w3.org/2000/svg"
   xmlns:sodipodi="http://sodipodi.sourceforge.net/DTD/sodipodi-0.dtd"
   xmlns:inkscape="http://www.inkscape.org/namespaces/inkscape"
   version="1.1"
   id="svg10"
   width="48"
   height="42"
   viewBox="0 0 48 42"
   sodipodi:docname="logo.svg"
   inkscape:version="0.92.2 (5c3e80d, 2017-08-06)">

  <path

     d="M 37.174708,37.532388 C 31.929247,27.293095 32.979566,9.7677517 39.299377,2.080761 c 2.083012,-2.53363703 2.793187,-2.59788758 5.95885,-0.5391048 3.097618,2.0145305 3.291126,2.9285535 1.401091,6.6179584 -1.206096,2.3543354 -3.455627,4.2806104 -4.998955,4.2806104 -4.563302,0 -3.898966,15.768003 0.757721,17.984561 4.707181,2.240592 6.819302,8.23883 3.549874,10.08132 -4.233374,2.385725 -6.427863,1.64359 -8.79325,-2.973718 z M 16.722209,28.843876 c 0,-0.902201 2.489861,-1.640366 5.533025,-1.640366 3.043165,0 5.533025,0.738165 5.533025,1.640366 0,0.902201 -2.48986,1.640365 -5.533025,1.640365 -3.043164,0 -5.533025,-0.738164 -5.533025,-1.640365 z M 7.5005009,20.642051 c 0,-0.902203 4.5647451,-1.640365 10.1438791,-1.640365 5.579134,0 10.143879,0.738162 10.143879,1.640365 0,0.902201 -4.564745,1.640365 -10.143879,1.640365 -5.579134,0 -10.1438791,-0.738164 -10.1438791,-1.640365 z M 0.12313363,12.440225 c 0,-0.947768 5.84041597,-1.640366 13.83256137,-1.640366 7.992148,0 13.832564,0.692598 13.832564,1.640366 0,0.947767 -5.840416,1.640365 -13.832564,1.640365 -7.9921454,0 -13.83256137,-0.692598 -13.83256137,-1.640365 z"
     inkscape:connector-curvature="0" />
</svg>
