<?xml version="1.0" standalone="no"?>
<!DOCTYPE svg PUBLIC "-//W3C//DTD SVG 20010904//EN"
 "http://www.w3.org/TR/2001/REC-SVG-20010904/DTD/svg10.dtd">
<svg version="1.0" xmlns="http://www.w3.org/2000/svg"
 width="576.000000pt" height="576.000000pt" viewBox="0 0 576.000000 576.000000"
 preserveAspectRatio="xMidYMid meet">
<metadata>
Created by potrace 1.11, written by Peter Selinger 2001-2013
</metadata>
<g transform="translate(0.000000,576.000000) scale(0.100000,-0.100000)"
fill="#000000" stroke="none">
<path d="M2678 5755 c-2 -1 -34 -6 -73 -9 -38 -3 -83 -8 -100 -11 -16 -3 -43
-7 -60 -9 -46 -7 -83 -15 -165 -33 -41 -9 -82 -17 -90 -18 -8 -1 -22 -5 -30
-8 -20 -7 -88 -28 -103 -31 -15 -4 -16 -4 -157 -56 -111 -41 -307 -132 -400
-186 -110 -64 -308 -200 -376 -260 -12 -11 -44 -38 -70 -60 -129 -110 -280
-274 -388 -419 -36 -49 -69 -94 -74 -100 -14 -19 -89 -141 -114 -185 -51 -91
-108 -200 -108 -205 0 -3 -6 -18 -14 -33 -48 -93 -143 -379 -170 -514 -19 -94
-26 -128 -32 -168 -2 -19 -7 -46 -9 -60 -19 -100 -27 -524 -13 -635 4 -27 10
-75 13 -105 6 -46 44 -242 59 -301 60 -231 171 -500 290 -701 49 -85 207 -314
225 -328 3 -3 22 -25 42 -50 35 -43 73 -86 145 -161 l34 -35 -21 -45 c-11 -24
-37 -75 -58 -114 -20 -38 -59 -112 -85 -163 -26 -50 -51 -92 -55 -92 -3 0 -22
11 -41 23 -49 33 -95 47 -155 47 -209 0 -351 -219 -261 -404 27 -56 85 -114
141 -142 27 -13 277 -15 2165 -15 l2135 1 33 -54 c17 -29 48 -68 67 -85 l36
-31 243 0 244 0 45 50 c73 81 111 183 106 285 -5 110 -40 186 -122 268 -83 81
-151 109 -284 116 -12 1 -19 12 -78 126 -20 39 -58 111 -85 160 -27 50 -49 95
-49 100 0 6 18 31 42 56 304 334 495 667 625 1089 32 105 76 309 88 415 3 28
8 61 11 75 12 58 11 469 -2 570 -19 149 -28 206 -41 260 -3 14 -8 36 -10 50
-7 39 -43 168 -67 240 -12 36 -22 67 -22 70 -1 3 -9 22 -18 44 -9 21 -17 42
-17 46 0 15 -99 226 -145 310 -49 89 -178 290 -213 331 -11 13 -55 67 -99 119
-146 176 -314 331 -517 475 -16 11 -34 26 -41 33 -8 6 -16 12 -20 12 -5 0 -85
50 -95 60 -11 11 -277 148 -335 172 -46 19 -98 41 -105 43 -8 3 -44 16 -65 25
-11 4 -54 18 -95 30 -41 12 -86 26 -100 31 -23 8 -164 40 -235 54 -34 6 -160
24 -220 32 -45 5 -482 13 -487 8z m482 -169 c14 -2 48 -7 75 -10 28 -4 61 -9
75 -12 14 -3 36 -8 50 -10 14 -3 50 -10 80 -16 30 -6 60 -12 65 -14 6 -1 28
-7 50 -13 22 -6 42 -10 45 -11 3 0 50 -15 105 -33 394 -134 726 -339 1020
-632 362 -361 602 -807 704 -1310 38 -191 46 -283 45 -530 0 -171 -5 -235 -29
-390 -50 -330 -191 -690 -388 -987 -98 -149 -259 -348 -280 -348 -7 0 -39 58
-35 62 2 2 -7 17 -18 33 -12 17 -40 68 -64 115 -23 47 -59 117 -80 155 -20 39
-65 124 -100 190 -34 66 -84 161 -110 210 -26 50 -76 144 -110 210 -75 143
-154 295 -244 465 -36 69 -85 163 -108 210 -24 47 -45 87 -48 90 -3 3 -24 41
-46 85 -55 107 -157 301 -209 400 -23 44 -73 139 -110 210 -37 72 -82 157
-100 190 -18 33 -70 132 -115 220 -46 88 -102 196 -125 240 -102 194 -145 276
-190 363 -26 51 -51 94 -54 96 -4 3 -37 -55 -75 -127 -37 -73 -87 -168 -110
-212 -23 -44 -77 -147 -120 -230 -100 -191 -166 -317 -226 -430 -26 -49 -76
-144 -110 -210 -34 -66 -87 -166 -116 -222 -30 -57 -79 -151 -110 -210 -110
-210 -147 -278 -155 -287 -5 -6 -9 -18 -9 -27 0 -10 -3 -19 -7 -21 -5 -1 -19
-25 -33 -53 -44 -87 -191 -368 -220 -420 -15 -27 -65 -122 -110 -210 -46 -88
-100 -191 -120 -230 -65 -122 -135 -255 -210 -400 -99 -191 -151 -289 -157
-295 -6 -6 -94 87 -172 184 -154 189 -333 500 -406 706 -40 112 -85 260 -91
300 -3 19 -8 38 -11 43 -2 4 -6 17 -8 30 -2 12 -8 49 -14 82 -6 33 -13 80 -16
105 -3 25 -8 61 -11 80 -17 112 -10 485 12 625 4 22 8 49 10 60 8 56 16 101
20 106 2 3 6 19 8 35 3 16 8 40 11 53 6 33 64 221 75 246 5 11 21 52 35 90 60
154 195 408 268 500 4 6 31 42 60 81 98 133 254 301 383 413 54 47 260 198
333 244 51 32 227 124 317 165 104 48 340 129 401 137 12 2 26 6 31 9 5 3 24
8 43 11 19 3 50 10 69 15 19 5 54 12 77 15 23 3 57 8 75 11 18 2 67 7 108 10
41 4 76 8 78 9 5 5 422 -4 452 -9z m-160 -1281 c40 -77 96 -185 125 -240 29
-55 76 -145 105 -200 28 -55 56 -104 61 -109 5 -6 9 -18 9 -27 0 -10 3 -19 8
-21 4 -1 23 -34 43 -73 20 -38 67 -128 104 -200 37 -71 85 -161 105 -200 21
-38 70 -133 110 -210 40 -77 92 -176 115 -220 23 -44 71 -134 105 -200 34 -66
82 -156 105 -200 23 -44 73 -138 110 -210 37 -71 72 -136 78 -142 5 -7 6 -13
2 -13 -5 0 -1 -8 7 -17 8 -10 24 -36 34 -58 11 -22 53 -103 93 -180 165 -315
186 -354 234 -445 27 -52 61 -114 73 -138 13 -23 24 -49 24 -56 0 -8 -20 -30
-45 -50 -24 -20 -50 -43 -57 -49 -7 -7 -31 -26 -53 -42 -22 -17 -42 -32 -45
-35 -36 -39 -288 -193 -420 -257 -188 -92 -420 -174 -559 -198 -19 -3 -37 -7
-40 -9 -23 -15 -331 -54 -320 -42 12 13 -19 107 -47 144 -39 51 -61 68 -124
98 -102 48 -234 22 -316 -63 -39 -40 -68 -92 -79 -142 -7 -33 -8 -33 -49 -27
-58 8 -95 15 -146 26 -25 6 -54 12 -65 15 -358 74 -809 300 -1084 542 -20 18
-39 33 -43 33 -18 0 -4 39 51 144 32 61 89 170 127 241 84 160 149 284 205
395 24 47 47 87 51 88 5 2 8 12 8 22 0 10 3 20 8 22 4 2 31 50 61 108 29 58
70 137 91 175 20 39 72 138 115 220 43 83 94 179 113 215 19 36 64 121 99 190
36 69 82 157 103 195 39 73 206 394 250 480 14 28 27 52 30 55 3 3 28 49 55
103 55 108 90 175 214 412 47 88 103 195 125 238 31 62 42 75 51 65 7 -7 45
-76 85 -153z m1784 -3407 c135 -255 123 -228 102 -228 -8 0 -41 -26 -75 -57
-78 -75 -125 -171 -130 -270 -1 -9 -157 -11 -638 -11 -375 0 -624 4 -603 9 44
11 70 17 95 22 84 19 320 93 340 107 6 3 33 15 60 25 227 82 549 281 759 467
17 15 33 28 36 28 3 0 28 -42 54 -92z m-3629 -11 c33 -26 65 -52 72 -57 7 -5
49 -35 95 -65 46 -31 88 -59 93 -63 13 -10 108 -64 195 -109 133 -70 500 -214
500 -196 0 3 7 -1 17 -8 9 -8 19 -13 22 -11 7 3 191 -39 191 -44 0 -1 -349 -3
-776 -3 -725 0 -775 1 -768 17 4 9 9 42 12 72 4 56 6 60 216 462 34 65 43 75
56 65 8 -7 42 -33 75 -60z"/>
</g>
</svg>
