<svg xmlns="http://www.w3.org/2000/svg" preserveAspectRatio="xMidYMid" width="43" height="43" viewBox="0 0 43 43"><defs><style>.cls-3{fill:#363636}.cls-4{fill:#000;filter:url(#color-overlay-1)}</style><filter id="color-overlay-1" filterUnits="userSpaceOnUse"><feFlood flood-color="#fff" flood-opacity="1"/><feComposite operator="in" in2="SourceGraphic"/><feBlend in2="SourceGraphic" result="colorOverlay"/></filter></defs><g id="accordion-arrowwsvg"><path d="M39.806.032L.078-.001C.001 3.241.032 1.475.032 3.254v36.521c0 1.78-.031.079.013 3.255l39.761-.033a3.223 3.223 0 0 0 3.225-3.222V3.254A3.224 3.224 0 0 0 39.806.032z" id="path-1" class="cls-3" fill-rule="evenodd"/><path d="M26.031 21.043c0-.269-.102-.537-.305-.742l-6.411-6.447a1.04 1.04 0 0 0-1.477 0 1.056 1.056 0 0 0 0 1.485l5.673 5.704-5.672 5.705a1.053 1.053 0 0 0 0 1.484 1.04 1.04 0 0 0 1.476 0l6.411-6.447c.204-.205.305-.473.305-.742z" id="path-2" class="cls-4" fill-rule="evenodd"/></g></svg>