<svg xmlns="http://www.w3.org/2000/svg" preserveAspectRatio="xMidYMid" width="70" height="70" viewBox="0 0 70 70"><defs><style>.cls-3{fill:#363636;filter:url(#color-overlay-1)}.cls-4{fill:#000;filter:url(#color-overlay-2)}</style><filter id="color-overlay-1" filterUnits="userSpaceOnUse"><feFlood flood-color="#e5493a" flood-opacity="1"/><feComposite operator="in" in2="SourceGraphic"/><feBlend in2="SourceGraphic" result="colorOverlay"/></filter><filter id="color-overlay-2" filterUnits="userSpaceOnUse"><feFlood flood-color="#fff" flood-opacity="1"/><feComposite operator="in" in2="SourceGraphic"/><feBlend in2="SourceGraphic" result="colorOverlay"/></filter></defs><g id="brandingsvg"><circle id="circle-1" class="cls-3" cx="35" cy="35" r="35"/><path d="M49.998 39.642c-.516 1.589.188 3.812-.776 5.135-.975 1.335-3.32 1.349-4.659 2.322-1.325.962-2.058 3.187-3.651 3.704-1.536.496-3.433-.858-5.137-.858-1.703 0-3.6 1.354-5.136.858-1.593-.517-2.326-2.742-3.652-3.705-1.338-.972-3.683-.986-4.657-2.321-.966-1.323-.262-3.548-.777-5.136-.5-1.533-2.398-2.912-2.398-4.61 0-1.699 1.897-3.078 2.397-4.61.516-1.59-.187-3.813.777-5.135.974-1.336 3.318-1.35 4.657-2.323 1.326-.962 2.059-3.187 3.652-3.702 1.536-.498 3.434.856 5.137.856 1.703 0 3.601-1.354 5.136-.856 1.593.515 2.326 2.74 3.652 3.702 1.338.973 3.684.987 4.658 2.323.965 1.322.261 3.545.777 5.135.499 1.532 2.396 2.911 2.397 4.61 0 1.698-1.897 3.078-2.397 4.611zM35.775 23.398c-6.431 0-11.662 5.219-11.662 11.633 0 6.415 5.231 11.633 11.662 11.633 6.43 0 11.662-5.218 11.662-11.633 0-6.414-5.232-11.633-11.662-11.633zm0 21.367c-5.381 0-9.758-4.367-9.758-9.734s4.377-9.733 9.758-9.733c5.38 0 9.758 4.366 9.758 9.733 0 5.367-4.378 9.734-9.758 9.734zm6.682-11.51a.59.59 0 0 0-.522-.405l-4.095-.265-1.518-3.802a.588.588 0 0 0-1.093 0l-1.519 3.802-4.094.265a.584.584 0 1 0-.339 1.037l3.157 2.616-1.013 3.966a.59.59 0 0 0 .885.642l3.469-2.187 3.469 2.187a.59.59 0 0 0 .885-.642l-1.013-3.966 3.157-2.616a.586.586 0 0 0 .184-.632z" id="path-1" class="cls-4" fill-rule="evenodd"/></g></svg>