<svg xmlns="http://www.w3.org/2000/svg" preserveAspectRatio="xMidYMid" width="41" height="41" viewBox="0 0 41 41"><defs><style>.cls-3{fill:#363636}.cls-4{fill:#000;filter:url(#color-overlay-1)}</style><filter id="color-overlay-1" filterUnits="userSpaceOnUse"><feFlood flood-color="#fff" flood-opacity="1"/><feComposite operator="in" in2="SourceGraphic"/><feBlend in2="SourceGraphic" result="colorOverlay"/></filter></defs><g id="camerasvg"><path id="rect-1" class="cls-3" d="M0 0h41v41H0z"/><path d="M29.08 27.994H12.919a2.915 2.915 0 0 1-2.91-2.913v-8.505a2.913 2.913 0 0 1 2.653-2.901c.13-.556.492-.935.924-.935h2.097c.43 0 .789.374.921.922h2.966l1.437-1.659h4.911l1.769 1.659h1.393a2.915 2.915 0 0 1 2.909 2.914v8.505a2.914 2.914 0 0 1-2.909 2.913zm-16.439-9.481a.55.55 0 0 0-1.1 0v5.807a.55.55 0 0 0 1.1 0v-5.807zm3.308-3.041a.581.581 0 0 0-.581-.582h-1.49a.581.581 0 0 0-.581.582v.341c0 .32.26.58.581.58h1.49c.32 0 .581-.26.581-.58v-.341zm7.792.779a4.657 4.657 0 0 0-4.65 4.654 4.658 4.658 0 0 0 4.65 4.655 4.657 4.657 0 0 0 4.648-4.655 4.656 4.656 0 0 0-4.648-4.654zm0 7.917a3.265 3.265 0 0 1-3.259-3.263 3.264 3.264 0 0 1 3.259-3.262 3.263 3.263 0 0 1 0 6.525z" id="path-1" class="cls-4" fill-rule="evenodd"/></g></svg>