<svg xmlns="http://www.w3.org/2000/svg" preserveAspectRatio="xMidYMid" width="21" height="18" viewBox="0 0 21 18"><defs><style>.cls-2{fill:#000;filter:url(#color-overlay-1)}</style><filter id="color-overlay-1" filterUnits="userSpaceOnUse"><feFlood flood-color="#363636" flood-opacity="1"/><feComposite operator="in" in2="SourceGraphic"/><feBlend in2="SourceGraphic" result="colorOverlay"/></filter></defs><path d="M20.129 9.113a.762.762 0 0 1-.501.262L6.869 10.866c.008.057.026.145.055.263.028.118.053.226.073.324.02.097.031.187.031.269 0 .13-.098.391-.294.782h11.243a.75.75 0 0 1 .55.232.752.752 0 0 1 .233.55.752.752 0 0 1-.233.55.75.75 0 0 1-.55.232H5.463a.75.75 0 0 1-.55-.232.75.75 0 0 1-.232-.55c0-.114.045-.275.134-.483.09-.208.21-.45.361-.727.151-.277.234-.432.25-.464L3.263 1.553H.771a.753.753 0 0 1-.551-.232.75.75 0 0 1-.232-.549c0-.212.078-.396.232-.55a.754.754 0 0 1 .551-.233h3.128a.787.787 0 0 1 .593.269.98.98 0 0 1 .159.299c.044.127.075.235.091.324l.067.361c.029.151.047.255.055.311h14.678c.212 0 .395.078.55.233a.75.75 0 0 1 .232.55v6.257a.773.773 0 0 1-.195.52zm-1.369 6.519c0 .433-.153.801-.459 1.107a1.507 1.507 0 0 1-1.105.458c-.432 0-.801-.153-1.107-.458a1.51 1.51 0 0 1-.458-1.107c0-.431.153-.8.458-1.106a1.512 1.512 0 0 1 1.107-.458c.431 0 .8.153 1.105.458.306.306.459.675.459 1.106zm-10.95 0c0 .433-.153.801-.459 1.107a1.508 1.508 0 0 1-1.106.458c-.431 0-.8-.153-1.106-.458a1.51 1.51 0 0 1-.458-1.107c0-.431.153-.8.458-1.106a1.511 1.511 0 0 1 1.106-.458c.432 0 .801.153 1.106.458.306.306.459.675.459 1.106z" id="path-1" class="cls-2" fill-rule="evenodd"/></svg>