<svg xmlns="http://www.w3.org/2000/svg" preserveAspectRatio="xMidYMid" width="41" height="41" viewBox="0 0 41 41"><defs><style>.cls-3{fill:#363636;filter:url(#color-overlay-1)}.cls-4{fill:#000;filter:url(#color-overlay-2)}</style><filter id="color-overlay-1" filterUnits="userSpaceOnUse"><feFlood flood-color="#e5493a" flood-opacity="1"/><feComposite operator="in" in2="SourceGraphic"/><feBlend in2="SourceGraphic" result="colorOverlay"/></filter><filter id="color-overlay-2" filterUnits="userSpaceOnUse"><feFlood flood-color="#fff" flood-opacity="1"/><feComposite operator="in" in2="SourceGraphic"/><feBlend in2="SourceGraphic" result="colorOverlay"/></filter></defs><g id="category-blogsvg"><path id="rect-1" class="cls-3" d="M0 0h41v41H0z"/><path d="M30.51 25.13h-2.406v2.393a.478.478 0 0 1-.482.474H10.469a.478.478 0 0 1-.482-.474V15.321c0-.261.216-.473.482-.473h2.407v-2.393c0-.262.215-.474.481-.474H30.51c.266 0 .482.212.482.474v12.202a.478.478 0 0 1-.482.473zm-18.056.822c.03-.657.179-1.54.422-2.458v-7.375h-1.595v10.607H26.81V25.13h-1.438c.117.333.207.623.265.825l-13.183-.003zm17.244-12.7H14.169V23.86h15.529V13.252zm-8.774 4.268c.77 1.085 1.441 2.043 2.006 2.646.93.914 1.725-.471 2.7-.927 1.422-.665 2.593 2.792 2.895 3.849l-13.183-.003c.083-1.801 1.042-5.299 2.437-6.588 1.249-1.145 2.311-.143 3.145 1.023zm4.645-.313c-.895 0-1.621-.712-1.621-1.592 0-.879.726-1.592 1.621-1.592s1.621.713 1.621 1.592c0 .88-.726 1.592-1.621 1.592z" id="path-1" class="cls-4" fill-rule="evenodd"/></g></svg>