<svg xmlns="http://www.w3.org/2000/svg" preserveAspectRatio="xMidYMid" width="70" height="70" viewBox="0 0 70 70"><defs><style>.cls-3{fill:#363636}.cls-4{fill:#000;filter:url(#color-overlay-1)}</style><filter id="color-overlay-1" filterUnits="userSpaceOnUse"><feFlood flood-color="#fff" flood-opacity="1"/><feComposite operator="in" in2="SourceGraphic"/><feBlend in2="SourceGraphic" result="colorOverlay"/></filter></defs><g id="developmentsvg"><circle id="circle-1" class="cls-3" cx="35" cy="35" r="35"/><path d="M46.641 31.236l-.147-.053-.574-1.374.062-.141c1.738-3.952 1.618-4.07 1.33-4.357l-2.317-2.268a.62.62 0 0 0-.405-.161c-.13 0-.524 0-3.946 1.556l-.137.062-1.411-.571-.057-.141c-1.608-3.998-1.774-3.998-2.174-3.998h-3.271c-.399 0-.581 0-2.073 4.005l-.056.146-1.404.574-.134-.056c-2.316-.98-3.668-1.477-4.02-1.477a.62.62 0 0 0-.405.159l-2.319 2.275c-.294.291-.416.413 1.411 4.283l.067.143-.574 1.372-.14.055c-4.077 1.581-4.077 1.735-4.077 2.147v3.218c0 .413 0 .584 4.085 2.053l.146.052.574 1.368-.061.14c-1.737 3.954-1.627 4.061-1.331 4.357l2.313 2.271c.097.093.265.16.408.16.129 0 .523 0 3.946-1.554l.137-.065 1.413.574.055.141c1.609 3.997 1.775 3.997 2.176 3.997h3.272c.411 0 .581 0 2.074-4.008l.056-.145 1.406-.571.134.055c2.314.982 3.665 1.478 4.015 1.478a.619.619 0 0 0 .408-.159l2.322-2.279c.292-.292.413-.412-1.417-4.278l-.069-.146.574-1.366.137-.054c4.083-1.589 4.083-1.744 4.083-2.157v-3.215c0-.413 0-.584-4.085-2.047zm-11.343 8.941c-2.924 0-5.302-2.341-5.302-5.218 0-2.875 2.378-5.214 5.302-5.214 2.922 0 5.301 2.339 5.301 5.214 0 2.876-2.379 5.218-5.301 5.218z" id="path-1" class="cls-4" fill-rule="evenodd"/></g></svg>