<svg xmlns="http://www.w3.org/2000/svg" preserveAspectRatio="xMidYMid" width="42" height="42" viewBox="0 0 42 42"><defs><style>.cls-3{fill:#fff;filter:url(#color-overlay-1)}.cls-4{fill:#000;filter:url(#color-overlay-2)}</style><filter id="color-overlay-1" filterUnits="userSpaceOnUse"><feFlood flood-color="#252525" flood-opacity="1"/><feComposite operator="in" in2="SourceGraphic"/><feBlend in2="SourceGraphic" result="colorOverlay"/></filter><filter id="color-overlay-2" filterUnits="userSpaceOnUse"><feFlood flood-color="#fff" flood-opacity="1"/><feComposite operator="in" in2="SourceGraphic"/><feBlend in2="SourceGraphic" result="colorOverlay"/></filter></defs><g id="enlargesvg"><circle id="circle-1" class="cls-3" cx="21" cy="21" r="21"/><path d="M26.977 26.502l-2.794-2.795a5.58 5.58 0 0 0 1.01-3.25c0-.777-.151-1.52-.452-2.229a5.742 5.742 0 0 0-1.222-1.833 5.765 5.765 0 0 0-1.833-1.222 5.647 5.647 0 0 0-2.229-.452c-.777 0-1.519.151-2.228.452a5.742 5.742 0 0 0-1.833 1.222 5.71 5.71 0 0 0-1.222 1.833 5.63 5.63 0 0 0-.453 2.229c0 .776.151 1.519.453 2.228a5.71 5.71 0 0 0 1.222 1.833 5.726 5.726 0 0 0 1.833 1.222 5.625 5.625 0 0 0 2.228.453 5.576 5.576 0 0 0 3.251-1.011l2.794 2.786c.196.206.44.31.734.31.282 0 .527-.104.733-.31.206-.206.309-.451.309-.733a.993.993 0 0 0-.301-.733zm-4.941-3.467c-.715.714-1.574 1.071-2.579 1.071-1.005 0-1.864-.357-2.578-1.071-.715-.714-1.072-1.573-1.072-2.578s.357-1.865 1.072-2.579c.714-.714 1.573-1.071 2.578-1.071s1.864.357 2.579 1.071a3.516 3.516 0 0 1 1.071 2.579c0 1.005-.357 1.864-1.071 2.578z" id="path-1" class="cls-4" fill-rule="evenodd"/></g></svg>