<svg xmlns="http://www.w3.org/2000/svg" preserveAspectRatio="xMidYMid" width="19" height="16" viewBox="0 0 19 16"><defs><style>.cls-2{fill:#000;filter:url(#color-overlay-1)}</style><filter id="color-overlay-1" filterUnits="userSpaceOnUse"><feFlood flood-color="#555" flood-opacity="1"/><feComposite operator="in" in2="SourceGraphic"/><feBlend in2="SourceGraphic" result="colorOverlay"/></filter></defs><path d="M17.983 14.934c-.698.703-1.539 1.055-2.522 1.055h-3.965a.38.38 0 0 1-.279-.119.38.38 0 0 1-.117-.28c0-.034-.005-.117-.013-.25a3.242 3.242 0 0 1-.006-.331c.004-.087.016-.185.037-.293a.413.413 0 0 1 .124-.244.376.376 0 0 1 .254-.081h3.965c.545 0 1.012-.195 1.4-.587.389-.391.583-.861.583-1.41V3.607c0-.549-.194-1.019-.583-1.41a1.899 1.899 0 0 0-1.4-.587h-3.866l-.143-.012c-.095-.01-.143-.021-.143-.038 0-.017-.033-.039-.099-.069-.066-.029-.095-.067-.086-.112a.326.326 0 0 0-.025-.168c0-.034-.004-.117-.012-.25a2.747 2.747 0 0 1-.006-.331c.003-.087.016-.185.036-.293a.415.415 0 0 1 .124-.244.374.374 0 0 1 .254-.081h3.966c.983 0 1.823.352 2.522 1.055a3.475 3.475 0 0 1 1.047 2.54v8.787c0 .99-.349 1.837-1.047 2.54zM14.668 8a.773.773 0 0 1-.235.562l-6.742 6.791a.764.764 0 0 1-.558.237c-.215 0-.4-.08-.558-.237a.777.777 0 0 1-.235-.562v-3.595H.788a.762.762 0 0 1-.558-.237.771.771 0 0 1-.235-.562V5.604c0-.216.078-.404.235-.562a.76.76 0 0 1 .558-.237H6.34V1.21c0-.216.079-.404.235-.562a.764.764 0 0 1 .558-.237c.215 0 .401.08.558.237l6.742 6.79a.777.777 0 0 1 .235.562z" id="path-1" class="cls-2" fill-rule="evenodd"/></svg>