<svg xmlns="http://www.w3.org/2000/svg" width="100" height="41" viewBox="0 0 100 41"><path d="M37.49 38.162l-2.747-2.867 4.472-4.898 4.471-4.897-4.619-4.73-4.618-4.73 2.367-2.52c1.302-1.386 2.75-2.52 3.216-2.52.466 0 2.883 1.876 5.37 4.168l4.522 4.169 4.754-4.683 4.755-4.683 2.695 2.813 2.694 2.812-4.494 4.41c-2.471 2.426-4.493 4.898-4.493 5.494 0 .596 2.022 3.068 4.493 5.494l4.494 4.41-2.694 2.812-2.695 2.813-4.8-4.727-4.798-4.727-4.8 4.727-4.798 4.727zm40.75.934c-10.855-4.93-11.329-20.794-.801-26.83 2.143-1.228 5.517-2.24 7.498-2.25 7.03-.032 13.893 7.245 13.896 14.734l.002 3.25h-10.5c-5.785 0-10.5.416-10.5.927 0 1.317 4.984 5.073 6.73 5.073.804 0 2.7-.73 4.211-1.624 2.557-1.51 2.939-1.501 5.442.139 3.473 2.275 3.01 3.478-2.395 6.235-5.331 2.719-8.197 2.792-13.583.346zm13.595-17.023c0-1.299-4.974-5.073-6.685-5.073-2.473 0-7.315 2.995-7.315 4.526 0 1.158 1.498 1.474 7 1.474 3.85 0 7-.417 7-.927zM8.87 37.75c-10.814-5.545-10.8-21.26.025-26.781 2.122-1.083 5.34-1.967 7.149-1.965 6.967.008 13.779 7.047 13.786 14.246l.004 3.75h-10.5c-5.786 0-10.5.416-10.5.927 0 1.317 4.984 5.073 6.73 5.073.804 0 2.699-.73 4.211-1.624 2.557-1.51 2.938-1.501 5.441.139 1.48.97 2.54 2.263 2.355 2.874C27.07 36.044 18.795 40 15.835 40c-1.417 0-4.551-1.013-6.964-2.25zm13.964-16.677c0-.51-1.23-1.896-2.734-3.079-1.975-1.553-3.546-1.988-5.655-1.566-3.47.694-5.611 2.295-5.611 4.194 0 1.04 1.72 1.378 7 1.378 3.85 0 7-.417 7-.927zM7.995 3.453c-.638-1.4-1.16-2.75-1.16-3S9.463 0 12.675 0c5.286 0 5.949.24 7 2.547.638 1.4 1.16 2.75 1.16 3S18.207 6 14.995 6c-5.287 0-5.949-.24-7-2.547z" fill="#373737"/></svg>