<svg xmlns="http://www.w3.org/2000/svg" preserveAspectRatio="xMidYMid" width="19" height="20" viewBox="0 0 19 20"><defs><style>.cls-2{fill:#000;filter:url(#color-overlay-1)}</style><filter id="color-overlay-1" filterUnits="userSpaceOnUse"><feFlood flood-color="#464646" flood-opacity="1"/><feComposite operator="in" in2="SourceGraphic"/><feBlend in2="SourceGraphic" result="colorOverlay"/></filter></defs><path d="M9.5-.007c-5.251 0-9.506 4.263-9.506 9.522s4.255 9.522 9.506 9.522c5.25 0 9.506-4.263 9.506-9.522S14.75-.007 9.5-.007zm3.866 7.801c.004.08.005.161.005.242 0 2.479-1.883 5.336-5.327 5.336a5.282 5.282 0 0 1-2.869-.843 3.756 3.756 0 0 0 2.772-.776 1.875 1.875 0 0 1-1.75-1.302 1.91 1.91 0 0 0 .846-.032A1.876 1.876 0 0 1 5.541 8.58v-.024c.252.141.541.225.848.235a1.879 1.879 0 0 1-.579-2.504 5.31 5.31 0 0 0 3.859 1.959 1.874 1.874 0 0 1 3.19-1.71c.427-.084.827-.24 1.189-.455-.14.438-.437.805-.823 1.037.379-.045.74-.146 1.075-.295-.25.376-.568.707-.934.971z" id="path-1" class="cls-2" fill-rule="evenodd"/></svg>