<svg xmlns="http://www.w3.org/2000/svg" preserveAspectRatio="xMidYMid" width="16" height="16" viewBox="0 0 16 16"><defs><style>.cls-2{fill:#000;filter:url(#color-overlay-1)}</style><filter id="color-overlay-1" filterUnits="userSpaceOnUse"><feFlood flood-color="#555" flood-opacity="1"/><feComposite operator="in" in2="SourceGraphic"/><feBlend in2="SourceGraphic" result="colorOverlay"/></filter></defs><path d="M13-.001H3a3 3 0 0 0-3 3v10a3 3 0 0 0 3 3h10a3 3 0 0 0 3-3v-10a3 3 0 0 0-3-3zm-2.932 7.999l-1.311.001-.001 4.8H6.957v-4.8h-1.2V6.345h1.2l-.002-.975c0-1.35.366-2.17 1.955-2.17h1.324v1.654h-.828c-.619 0-.649.231-.649.663l-.002.828h1.488l-.175 1.653z" id="path-1" class="cls-2" fill-rule="evenodd"/></svg>