<svg xmlns="http://www.w3.org/2000/svg" preserveAspectRatio="xMidYMid" width="15" height="15" viewBox="0 0 15 15"><defs><style>.cls-2{fill:#000;filter:url(#color-overlay-1)}</style><filter id="color-overlay-1" filterUnits="userSpaceOnUse"><feFlood flood-color="#555" flood-opacity="1"/><feComposite operator="in" in2="SourceGraphic"/><feBlend in2="SourceGraphic" result="colorOverlay"/></filter></defs><path d="M8 .016v-.017H7v.017A7.5 7.5 0 0 0 .017 6.999H0v1h.017A7.5 7.5 0 0 0 7 14.982v.017h1v-.017a7.499 7.499 0 0 0 6.982-6.983H15v-1h-.018A7.499 7.499 0 0 0 8 .016zM4.695 1.634c-.483.642-.884 1.447-1.176 2.365H2.021a6.534 6.534 0 0 1 2.674-2.365zM1.498 4.999h1.758a11.876 11.876 0 0 0-.246 2H1.019a6.444 6.444 0 0 1 .479-2zm-.479 3H3.01c.027.697.112 1.369.246 2.001H1.498a6.457 6.457 0 0 1-.479-2.001zm1.002 3h1.497c.292.918.693 1.723 1.177 2.365a6.527 6.527 0 0 1-2.674-2.365zM7 13.935c-1.028-.275-1.913-1.379-2.45-2.936H7v2.936zM7 10H4.269a11.2 11.2 0 0 1-.259-2.001H7V10zm0-3.001H4.01c.029-.704.118-1.377.259-2H7v2zm0-3H4.55C5.087 2.442 5.972 1.338 7 1.064v2.935zm5.978 0h-1.496c-.293-.918-.693-1.723-1.177-2.365a6.532 6.532 0 0 1 2.673 2.365zM8 1.064c1.027.274 1.913 1.378 2.45 2.935H8V1.064zm0 3.935h2.73c.142.623.23 1.296.26 2H8v-2zm0 3h2.99A11.108 11.108 0 0 1 10.73 10H8V7.999zm0 5.936v-2.936h2.45C9.913 12.556 9.027 13.66 8 13.935zm2.305-.571c.483-.642.884-1.447 1.177-2.365h1.496a6.524 6.524 0 0 1-2.673 2.365zM13.502 10h-1.758c.134-.632.219-1.304.246-2.001h1.99A6.428 6.428 0 0 1 13.502 10zM11.99 6.999a11.876 11.876 0 0 0-.246-2h1.758c.26.623.426 1.296.478 2h-1.99z" id="path-1" class="cls-2" fill-rule="evenodd"/></svg>