<svg xmlns="http://www.w3.org/2000/svg" preserveAspectRatio="xMidYMid" width="16" height="16" viewBox="0 0 16 16"><defs><style>.cls-2{fill:#000;filter:url(#color-overlay-1)}</style><filter id="color-overlay-1" filterUnits="userSpaceOnUse"><feFlood flood-color="#555" flood-opacity="1"/><feComposite operator="in" in2="SourceGraphic"/><feBlend in2="SourceGraphic" result="colorOverlay"/></filter></defs><path d="M13-.001H3a3 3 0 0 0-3 3v10a3 3 0 0 0 3 3h10a3 3 0 0 0 3-3v-10a3 3 0 0 0-3-3zM5.768 13.382c-1.771 0-3.265-.721-3.265-1.873 0-1.169 1.363-2.298 3.134-2.297l.553-.005c-.242-.235-.434-.524-.434-.881 0-.212.068-.415.162-.596l-.295.011c-1.455 0-2.429-1.036-2.429-2.319 0-1.254 1.345-2.338 2.775-2.338h3.19l-.716.517H7.432c.671.257 1.028 1.039 1.028 1.841 0 .673-.373 1.253-.9 1.665-.515.403-.612.571-.612.913 0 .292.552.788.84.993.843.595 1.114 1.149 1.114 2.072 0 1.153-1.115 2.297-3.134 2.297zM14 7.018h-2v1.997h-.999V7.018H9V5.999h2.001v-2H12v2h2v1.019zM7.314 5.504C7.172 4.426 6.391 3.56 5.57 3.535c-.821-.024-1.372.801-1.23 1.881.142 1.08.923 1.974 1.745 1.998.82.025 1.372-.83 1.229-1.91zm-.545 4.134a2.679 2.679 0 0 0-.794-.128c-1.224-.013-2.32.746-2.32 1.659 0 .932.884 1.706 2.108 1.706 1.721 0 2.32-.728 2.32-1.658 0-.112-.014-.222-.039-.329-.134-.527-.611-.789-1.275-1.25z" id="path-1" class="cls-2" fill-rule="evenodd"/></svg>