<svg xmlns="http://www.w3.org/2000/svg" preserveAspectRatio="xMidYMid" width="20" height="16" viewBox="0 0 20 16"><defs><style>.cls-2{fill:#000;filter:url(#color-overlay-1)}</style><filter id="color-overlay-1" filterUnits="userSpaceOnUse"><feFlood flood-color="#555" flood-opacity="1"/><feComposite operator="in" in2="SourceGraphic"/><feBlend in2="SourceGraphic" result="colorOverlay"/></filter></defs><path d="M19.794 5.711c.017-.171.026-.346.026-.52 0-2.871-2.321-5.2-5.184-5.2a5.183 5.183 0 0 0-4.73 3.075A5.184 5.184 0 0 0 5.175-.009c-2.862 0-5.182 2.329-5.182 5.2 0 .174.008.349.025.52 0 0 .101 5.119 9.951 10.269 9.849-5.15 9.825-10.269 9.825-10.269zM5.322 1.137a.85.85 0 0 1 .851.853.85.85 0 1 1-1.7 0c0-.471.38-.853.849-.853zM2.664 7.519A.887.887 0 0 1 1.572 6.9a5.674 5.674 0 0 1-.213-1.314C1.28 3.484 2.571 2.45 2.635 2.399a.885.885 0 0 1 1.244.158.891.891 0 0 1-.144 1.239c-.046.038-.606.543-.602 1.624.002.291.043.624.147 1.002a.89.89 0 0 1-.616 1.097z" id="path-1" class="cls-2" fill-rule="evenodd"/></svg>