<svg xmlns="http://www.w3.org/2000/svg" preserveAspectRatio="xMidYMid" width="19" height="19" viewBox="0 0 19 19"><defs><style>.cls-2{fill:#000;filter:url(#color-overlay-1)}</style><filter id="color-overlay-1" filterUnits="userSpaceOnUse"><feFlood flood-color="#363636" flood-opacity="1"/><feComposite operator="in" in2="SourceGraphic"/><feBlend in2="SourceGraphic" result="colorOverlay"/></filter></defs><path d="M17.9 15.909l-3.772-3.773a7.531 7.531 0 0 0 1.364-4.388 7.61 7.61 0 0 0-.611-3.008 7.772 7.772 0 0 0-1.649-2.476A7.757 7.757 0 0 0 10.757.615a7.61 7.61 0 0 0-3.009-.61 7.609 7.609 0 0 0-3.008.61 7.757 7.757 0 0 0-2.475 1.649A7.74 7.74 0 0 0 .616 4.74a7.61 7.61 0 0 0-.611 3.008c0 1.049.204 2.051.611 3.008a7.724 7.724 0 0 0 1.649 2.475A7.74 7.74 0 0 0 4.74 14.88c.957.408 1.96.611 3.008.611a7.525 7.525 0 0 0 4.389-1.364l3.773 3.761c.264.279.593.419.989.419.382 0 .712-.14.99-.419a1.35 1.35 0 0 0 .418-.989c0-.388-.135-.719-.407-.99zm-6.67-4.68c-.965.964-2.125 1.446-3.482 1.446-1.356 0-2.516-.482-3.481-1.446-.964-.964-1.446-2.125-1.446-3.481 0-1.357.482-2.517 1.446-3.482.964-.964 2.125-1.446 3.481-1.446 1.357 0 2.517.482 3.482 1.446.964.965 1.446 2.125 1.446 3.482 0 1.356-.482 2.517-1.446 3.481z" id="path-1" class="cls-2" fill-rule="evenodd"/></svg>