<svg xmlns="http://www.w3.org/2000/svg" preserveAspectRatio="xMidYMid" width="70" height="70" viewBox="0 0 70 70"><defs><style>.cls-3{fill:#363636}.cls-4{fill:#000;filter:url(#color-overlay-1)}</style><filter id="color-overlay-1" filterUnits="userSpaceOnUse"><feFlood flood-color="#fff" flood-opacity="1"/><feComposite operator="in" in2="SourceGraphic"/><feBlend in2="SourceGraphic" result="colorOverlay"/></filter></defs><g id="leafsvg"><circle id="circle-1" class="cls-3" cx="35" cy="35" r="35"/><path d="M43.233 18.318s-2.601 2.504-5.415 3.513c-20.837 7.475-12.049 22.042-11.763 22.09 0 0 1.169-2.018 2.747-3.169 10.016-7.303 12.052-15.709 12.052-15.709s-2.248 10.115-11.158 16.409c-1.968 1.389-3.301 4.81-3.865 8.229 0 0 1.395-.558 1.995-.71.234-1.514.723-2.964 1.55-4.259 12.453 1.471 16.532-8.482 17.065-11.953 1.257-8.196-3.208-14.441-3.208-14.441z" id="path-1" class="cls-4" fill-rule="evenodd"/></g></svg>