<svg xmlns="http://www.w3.org/2000/svg" preserveAspectRatio="xMidYMid" width="16" height="16" viewBox="0 0 16 16"><defs><style>.cls-2{fill:#000;filter:url(#color-overlay-1)}</style><filter id="color-overlay-1" filterUnits="userSpaceOnUse"><feFlood flood-color="#555" flood-opacity="1"/><feComposite operator="in" in2="SourceGraphic"/><feBlend in2="SourceGraphic" result="colorOverlay"/></filter></defs><path d="M13-.001H3a3 3 0 0 0-3 3v10a3 3 0 0 0 3 3h10a3 3 0 0 0 3-3v-10a3 3 0 0 0-3-3zM6 11.874H4v-7h2v7zm-.938-7.429a.937.937 0 1 1 0-1.874.937.937 0 0 1 0 1.874zM13 11.874h-2V7.546c0-.507-.145-.861-.768-.861-1.033 0-1.232.861-1.232.861v4.328H7v-7h2v.669c.286-.218 1-.668 2-.668.648 0 2 .388 2 2.732v4.267z" id="path-1" class="cls-2" fill-rule="evenodd"/></svg>