<svg xmlns="http://www.w3.org/2000/svg" preserveAspectRatio="xMidYMid" width="42" height="42" viewBox="0 0 42 42"><defs><style>.cls-3{fill:#fff;filter:url(#color-overlay-1)}.cls-4{fill:#000;filter:url(#color-overlay-2)}</style><filter id="color-overlay-1" filterUnits="userSpaceOnUse"><feFlood flood-color="#e5493a" flood-opacity="1"/><feComposite operator="in" in2="SourceGraphic"/><feBlend in2="SourceGraphic" result="colorOverlay"/></filter><filter id="color-overlay-2" filterUnits="userSpaceOnUse"><feFlood flood-color="#fff" flood-opacity="1"/><feComposite operator="in" in2="SourceGraphic"/><feBlend in2="SourceGraphic" result="colorOverlay"/></filter></defs><g id="linksvg"><circle id="circle-1" class="cls-3" cx="21" cy="21" r="21"/><path d="M26.967 21.203l-2.571 2.569a3.632 3.632 0 0 1-5.139 0 3.627 3.627 0 0 1-.551-.733l1.194-1.194c.056-.057.127-.09.194-.129.082.283.226.55.448.771a1.819 1.819 0 0 0 2.57 0l2.569-2.569a1.819 1.819 0 0 0 0-2.57 1.82 1.82 0 0 0-2.569 0l-.914.915a4.557 4.557 0 0 0-2.318-.253l1.947-1.947a3.635 3.635 0 0 1 5.14 5.14zm-6.795 4.225l-.915.915a1.822 1.822 0 0 1-2.57 0 1.822 1.822 0 0 1 0-2.571l2.57-2.569a1.819 1.819 0 0 1 2.57 0c.221.221.365.488.449.77.067-.039.136-.071.193-.128l1.194-1.194a3.59 3.59 0 0 0-.551-.733 3.635 3.635 0 0 0-5.14 0l-2.569 2.569a3.635 3.635 0 0 0 5.139 5.14l1.948-1.947a4.565 4.565 0 0 1-2.318-.252z" id="path-1" class="cls-4" fill-rule="evenodd"/></g></svg>