<svg xmlns="http://www.w3.org/2000/svg" preserveAspectRatio="xMidYMid" width="17" height="12" viewBox="0 0 17 12"><defs><style>.cls-2{fill:#000;filter:url(#color-overlay-1)}</style><filter id="color-overlay-1" filterUnits="userSpaceOnUse"><feFlood flood-color="#363636" flood-opacity="1"/><feComposite operator="in" in2="SourceGraphic"/><feBlend in2="SourceGraphic" result="colorOverlay"/></filter></defs><path d="M.793.099a1.17 1.17 0 0 1 .428-.084h14.558c.151 0 .294.032.428.084L9.684 6.474a1.685 1.685 0 0 1-2.369 0L.793.099zm16.038 11.328a1.31 1.31 0 0 0 .182-.661V1.295c0-.172-.034-.336-.094-.486l-6.104 5.966 6.016 4.652zm-6.568-4.122a2.645 2.645 0 0 1-1.763.679c-.63 0-1.257-.228-1.764-.679L.738 11.944c.148.065.311.102.483.102h14.558c.171 0 .334-.037.483-.102l-5.999-4.639zM.08.809c-.059.15-.093.314-.093.486v9.471c0 .242.069.467.182.661l6.015-4.652L.08.809z" id="path-1" class="cls-2" fill-rule="evenodd"/></svg>