<svg xmlns="http://www.w3.org/2000/svg" preserveAspectRatio="xMidYMid" width="10" height="16" viewBox="0 0 10 16"><defs><style>.cls-2{fill:#000;filter:url(#color-overlay-1)}</style><filter id="color-overlay-1" filterUnits="userSpaceOnUse"><feFlood flood-color="#555" flood-opacity="1"/><feComposite operator="in" in2="SourceGraphic"/><feBlend in2="SourceGraphic" result="colorOverlay"/></filter></defs><path d="M3.046 15.97c-.381 0-1 .048-1.377-.002-.693-.094-1.661-.516-1.661-2.139V2.055S.042-.004 2.22-.004h5.347s2.396-.073 2.396 2.08v11.212c0 .344-.01.906-.12 1.234-.203.607-.752 1.448-2.233 1.448H3.046zm1.903-.934c.326 0 .588-.239.588-.53 0-.295-.262-.531-.588-.531-.322 0-.587.236-.587.531 0 .291.265.53.587.53zM5.954.995H4.017c-.381 0-.689.222-.689.498 0 .275.308.498.689.498h1.937c.38 0 .689-.223.689-.498S6.334.995 5.954.995zM8.167 2.99H1.804c-.381 0-.69.278-.69.622v8.742c0 .344.309.623.69.623h6.363c.381 0 .69-.279.69-.623V3.612c-.001-.344-.309-.622-.69-.622z" id="path-1" class="cls-2" fill-rule="evenodd"/></svg>