<svg xmlns="http://www.w3.org/2000/svg" preserveAspectRatio="xMidYMid" width="103" height="103" viewBox="0 0 103 103"><defs><style>.cls-3{fill:#363636;stroke:#e5493a;stroke-linejoin:round;stroke-width:3px;fill-opacity:0}.cls-4{fill:#000;filter:url(#color-overlay-1)}</style><filter id="color-overlay-1" filterUnits="userSpaceOnUse"><feFlood flood-color="#e5493a" flood-opacity="1"/><feComposite operator="in" in2="SourceGraphic"/><feBlend in2="SourceGraphic" result="colorOverlay"/></filter></defs><g id="multisvg"><circle id="circle-1" class="cls-3" cx="51" cy="51" r="50"/><path d="M67.045 64.984H35.909c-2.187 0-3.959-1.747-3.959-3.905V41.914c0-2.155 1.772-3.903 3.959-3.903h31.136c2.185 0 3.959 1.748 3.959 3.903v19.165c0 2.158-1.774 3.905-3.959 3.905zm-2.238-20.547H38.148a.96.96 0 0 0-.965.953c0 .526.432.949.965.949h26.659a.955.955 0 0 0 .963-.949.96.96 0 0 0-.963-.953zm.027 6.11H38.175a.96.96 0 0 0-.965.953c0 .525.431.948.965.948h26.659a.955.955 0 0 0 .963-.948.96.96 0 0 0-.963-.953zm.027 6.109H38.202a.959.959 0 0 0-.965.952c0 .526.431.95.965.95h26.659a.956.956 0 0 0 .963-.95.96.96 0 0 0-.963-.952zm-6.57-20.091c-.807 0-1.463-.644-1.463-1.436 0-.656-.54-1.19-1.203-1.19h-8.297a1.2 1.2 0 0 0-1.207 1.19c0 .792-.653 1.436-1.457 1.436-.805 0-1.461-.644-1.461-1.436 0-2.242 1.851-4.067 4.125-4.067h8.297c2.276 0 4.126 1.825 4.126 4.067a1.45 1.45 0 0 1-1.46 1.436z" id="path-1" class="cls-4" fill-rule="evenodd"/></g></svg>