<svg xmlns="http://www.w3.org/2000/svg" preserveAspectRatio="xMidYMid" width="100" height="100" viewBox="0 0 100 100"><defs><style>.cls-3{fill:#363636;filter:url(#color-overlay-1)}.cls-4{fill:#000;filter:url(#color-overlay-2)}</style><filter id="color-overlay-1" filterUnits="userSpaceOnUse"><feFlood flood-color="#fafafa" flood-opacity="1"/><feComposite operator="in" in2="SourceGraphic"/><feBlend in2="SourceGraphic" result="colorOverlay"/></filter><filter id="color-overlay-2" filterUnits="userSpaceOnUse"><feFlood flood-color="#363636" flood-opacity="1"/><feComposite operator="in" in2="SourceGraphic"/><feBlend in2="SourceGraphic" result="colorOverlay"/></filter></defs><g id="onlinesvg"><circle id="circle-1" class="cls-3" cx="50" cy="50" r="50"/><path d="M69.331 58.054c-1.109 1.67-2.631 3.079-4.568 4.23.156.383.316.734.48 1.053.164.32.36.628.586.923.226.295.402.527.527.694.125.168.328.403.609.707a16.137 16.137 0 0 1 .633.706c.047.056.082.096.105.119.023.025.054.065.093.121.04.055.066.099.082.131l.059.12.046.143c.031.096.035.148.012.156-.023.007-.031.06-.023.155a.893.893 0 0 1-.305.527.695.695 0 0 1-.515.168 19.264 19.264 0 0 1-2.015-.384c-2.405-.639-4.576-1.66-6.512-3.066a22.99 22.99 0 0 1-4.123.384c-4.232 0-7.918-1.054-11.057-3.162a31.6 31.6 0 0 0 2.061.095c2.515 0 4.928-.359 7.238-1.078 2.312-.718 4.374-1.748 6.185-3.089 1.952-1.47 3.452-3.163 4.498-5.079 1.047-1.916 1.569-3.944 1.569-6.083 0-1.231-.179-2.444-.538-3.642 2.014 1.134 3.607 2.556 4.779 4.264 1.171 1.709 1.757 3.546 1.757 5.51 0 1.917-.554 3.709-1.663 5.377zm-15.543-.885c-2.538 1.093-5.298 1.64-8.281 1.639-1.343 0-2.717-.128-4.123-.383-1.936 1.405-4.107 2.427-6.512 3.066a19.03 19.03 0 0 1-2.015.383h-.07a.72.72 0 0 1-.48-.191.802.802 0 0 1-.27-.503.52.52 0 0 1-.023-.156c0-.055.004-.107.012-.155a.502.502 0 0 1 .046-.144l.059-.119.082-.132c.055-.088.086-.127.094-.119.008.007.043-.032.105-.12.063-.088.094-.124.094-.108.078-.096.258-.296.539-.599s.484-.538.609-.706c.125-.168.301-.399.527-.694.227-.296.422-.603.586-.923.164-.32.324-.67.48-1.054-1.936-1.149-3.459-2.563-4.568-4.239-1.109-1.678-1.664-3.467-1.664-5.367 0-2.219.734-4.271 2.202-6.156 1.468-1.884 3.471-3.373 6.009-4.467 2.538-1.094 5.298-1.641 8.281-1.641 2.983 0 5.743.546 8.281 1.641 2.538 1.094 4.541 2.583 6.008 4.467 1.468 1.884 2.202 3.937 2.202 6.156 0 2.22-.734 4.272-2.201 6.156-1.468 1.884-3.471 3.374-6.009 4.468z" id="path-1" class="cls-4" fill-rule="evenodd"/></g></svg>