<svg xmlns="http://www.w3.org/2000/svg" preserveAspectRatio="xMidYMid" width="17" height="16" viewBox="0 0 17 16"><defs><style>.cls-2{fill:#000;filter:url(#color-overlay-1)}</style><filter id="color-overlay-1" filterUnits="userSpaceOnUse"><feFlood flood-color="#555" flood-opacity="1"/><feComposite operator="in" in2="SourceGraphic"/><feBlend in2="SourceGraphic" result="colorOverlay"/></filter></defs><path d="M17.008.525l-5.089 14.014a1.2 1.2 0 0 1-.775.738 1.19 1.19 0 0 1-1.052-.178l-4.758-3.483L16.264.783 3.902 10.567.422 8.019A1.08 1.08 0 0 1-.01 7.005a1.08 1.08 0 0 1 .679-.866L16.51.031a.381.381 0 0 1 .407.086.387.387 0 0 1 .091.408zM5.053 15.847a.832.832 0 0 1-1.272-.555l-.676-3.716-.029-.163 4.114 2.966c.033.047-1.196.857-2.137 1.468z" id="path-1" class="cls-2" fill-rule="evenodd"/></svg>