<svg xmlns="http://www.w3.org/2000/svg" preserveAspectRatio="xMidYMid" width="70" height="70" viewBox="0 0 70 70"><defs><style>.cls-3{fill:#363636}.cls-4{fill:#000;filter:url(#color-overlay-1)}</style><filter id="color-overlay-1" filterUnits="userSpaceOnUse"><feFlood flood-color="#fff" flood-opacity="1"/><feComposite operator="in" in2="SourceGraphic"/><feBlend in2="SourceGraphic" result="colorOverlay"/></filter></defs><g id="responsivesvg"><circle id="circle-1" class="cls-3" cx="35" cy="35" r="35"/><path d="M43.25 50.986H27.757c-1.509 0-2.734-1.15-2.734-2.567V21.471c0-1.416 1.225-2.567 2.734-2.567H43.25c1.509 0 2.734 1.151 2.734 2.567v26.948c0 1.417-1.225 2.567-2.734 2.567zm-7.746-.962c.815 0 1.481-.625 1.481-1.39 0-.766-.666-1.391-1.481-1.391-.816 0-1.482.625-1.482 1.391 0 .765.666 1.39 1.482 1.39zm2.506-28.775c0-.352-.301-.634-.674-.634h-3.664c-.374 0-.674.282-.674.634v.017c0 .35.3.632.674.632h3.664c.373 0 .674-.282.674-.632v-.017zm5.696 2.789c0-.236-.205-.428-.456-.428H27.757c-.25 0-.456.192-.456.428v21.815c0 .235.206.427.456.427H43.25c.251 0 .456-.192.456-.427V24.038zm-2.274 20.104H29.575c-.249 0-.451-.19-.451-.424v-.008c0-.234.202-.424.451-.424h11.857c.25 0 .451.19.451.424v.008c0 .234-.202.424-.451.424zm0-2.566H29.575c-.249 0-.451-.19-.451-.424v-.008c0-.235.202-.424.451-.424h11.857c.25 0 .451.189.451.424v.008c0 .234-.202.424-.451.424zm0-2.568H29.575c-.249 0-.451-.189-.451-.423v-.008c0-.235.202-.424.451-.424h11.857c.25 0 .451.189.451.424v.008c0 .234-.202.423-.451.423zm0-2.566H29.575c-.249 0-.451-.189-.451-.423v-.008c0-.234.202-.424.451-.424h11.857c.25 0 .451.19.451.424v.008c0 .234-.202.423-.451.423zm0-2.567H29.575c-.249 0-.451-.189-.451-.423v-.008c0-.234.202-.424.451-.424h11.857c.25 0 .451.19.451.424v.008c0 .234-.202.423-.451.423zm-.004-5.561h-1.367c-.252 0-.456-.191-.456-.427v-1.283c0-.235.204-.428.456-.428h1.367c.251 0 .455.192.455.428v1.283c0 .236-.204.427-.455.427zm-3.646.001h-1.367c-.251 0-.456-.192-.455-.428v-1.283c0-.235.204-.427.455-.427h1.367c.251 0 .455.192.455.427v1.283c0 .236-.204.428-.455.428zm-3.19 0h-1.367c-.251 0-.455-.192-.455-.428v-1.283c0-.235.204-.427.455-.427h1.367c.252 0 .456.192.456.427v1.283c0 .236-.204.428-.456.428zm-3.645 0H29.58c-.252 0-.456-.192-.456-.428v-1.283c0-.235.204-.427.456-.427h1.367c.251 0 .455.192.455.427v1.283c0 .236-.204.428-.455.428zm-1.372 2.139h7.756c.249 0 .451.189.451.424v.007c0 .235-.202.424-.451.424h-7.756c-.249 0-.451-.189-.451-.424v-.007c0-.235.202-.424.451-.424z" id="path-1" class="cls-4" fill-rule="evenodd"/></g></svg>