<svg xmlns="http://www.w3.org/2000/svg" preserveAspectRatio="xMidYMid" width="16" height="16" viewBox="0 0 16 16"><defs><style>.cls-2{fill:#000;filter:url(#color-overlay-1)}</style><filter id="color-overlay-1" filterUnits="userSpaceOnUse"><feFlood flood-color="#555" flood-opacity="1"/><feComposite operator="in" in2="SourceGraphic"/><feBlend in2="SourceGraphic" result="colorOverlay"/></filter></defs><path d="M13-.001H3a3 3 0 0 0-3 3v10a3 3 0 0 0 3 3h10a3 3 0 0 0 3-3v-10a3 3 0 0 0-3-3zM4.315 12.976a1.3 1.3 0 0 1-1.303-1.299c0-.714.584-1.301 1.303-1.301.721 0 1.304.587 1.305 1.301a1.3 1.3 0 0 1-1.305 1.299zm3.274.012a4.553 4.553 0 0 0-1.341-3.244A4.54 4.54 0 0 0 3.014 8.4V6.524c3.561 0 6.461 2.899 6.461 6.464H7.589zm3.329-.003c0-4.361-3.545-7.91-7.902-7.91V3.2c5.394 0 9.784 4.391 9.784 9.785h-1.882z" id="path-1" class="cls-2" fill-rule="evenodd"/></svg>