<svg xmlns="http://www.w3.org/2000/svg" preserveAspectRatio="xMidYMid" width="42" height="42" viewBox="0 0 42 42"><defs><style>.cls-3,.cls-4{filter:url(#color-overlay-1)}.cls-3{opacity:.1;fill:#363636}.cls-4{fill:#000}</style><filter id="color-overlay-1" filterUnits="userSpaceOnUse"><feFlood flood-color="#fff" flood-opacity="1"/><feComposite operator="in" in2="SourceGraphic"/><feBlend in2="SourceGraphic" result="colorOverlay"/></filter></defs><g id="sqr-arrowsvg"><path d="M0-.001h39a3 3 0 0 1 3 3v36a3 3 0 0 1-3 3H-.062c.061-2.968.062-1.343.062-3v-36c0-1.657.062 0 0-3z" id="path-1" class="cls-3" fill-rule="evenodd"/><path d="M15 21.012c0-.269.102-.537.305-.742l6.411-6.447a1.04 1.04 0 0 1 1.477 0c.407.41.407 1.075 0 1.485l-5.673 5.704 5.672 5.704c.408.41.408 1.075 0 1.485a1.04 1.04 0 0 1-1.476 0l-6.411-6.447a1.051 1.051 0 0 1-.305-.742z" id="path-2" class="cls-4" fill-rule="evenodd"/></g></svg>