<svg xmlns="http://www.w3.org/2000/svg" preserveAspectRatio="xMidYMid" width="16" height="16" viewBox="0 0 16 16"><defs><style>.cls-2{fill:#000;filter:url(#color-overlay-1)}</style><filter id="color-overlay-1" filterUnits="userSpaceOnUse"><feFlood flood-color="#555" flood-opacity="1"/><feComposite operator="in" in2="SourceGraphic"/><feBlend in2="SourceGraphic" result="colorOverlay"/></filter></defs><path d="M13-.001H3a3 3 0 0 0-3 3v10a3 3 0 0 0 3 3h10a3 3 0 0 0 3-3v-10a3 3 0 0 0-3-3zm-2.001 7.4h-2.4v2.196c0 .557-.007.877.051 1.035.06.157.205.32.365.415.213.127.456.19.729.19.486 0 .774-.064 1.254-.38v1.444a5.51 5.51 0 0 1-1.1.384 4.764 4.764 0 0 1-1.078.116c-.439 0-.698-.055-1.035-.166a2.49 2.49 0 0 1-.863-.474 1.715 1.715 0 0 1-.496-.655c-.092-.231-.138-.566-.138-1.005V7.133H5.001v-1.36c.377-.122.799-.298 1.067-.527.269-.229.485-.502.648-.824.162-.319.274-.728.336-1.222h1.547v2.399h2.4v1.8z" id="path-1" class="cls-2" fill-rule="evenodd"/></svg>