<svg xmlns="http://www.w3.org/2000/svg" preserveAspectRatio="xMidYMid" width="16" height="16" viewBox="0 0 16 16"><defs><style>.cls-2{fill:#000;filter:url(#color-overlay-1)}</style><filter id="color-overlay-1" filterUnits="userSpaceOnUse"><feFlood flood-color="#e5493a" flood-opacity="1"/><feComposite operator="in" in2="SourceGraphic"/><feBlend in2="SourceGraphic" result="colorOverlay"/></filter></defs><path d="M13-.001H3a3 3 0 0 0-3 3v10a3 3 0 0 0 3 3h10a3 3 0 0 0 3-3v-10a3 3 0 0 0-3-3zm-1.02 6.204l.006.255c0 2.604-1.981 5.604-5.604 5.604a5.574 5.574 0 0 1-3.019-.885 3.952 3.952 0 0 0 2.916-.815 1.97 1.97 0 0 1-1.84-1.368 1.97 1.97 0 0 0 .89-.034 1.97 1.97 0 0 1-1.58-1.931v-.025c.266.148.569.237.892.248a1.971 1.971 0 0 1-.61-2.63 5.594 5.594 0 0 0 4.06 2.059 1.971 1.971 0 0 1 3.357-1.797c.448-.089.87-.253 1.251-.477a1.976 1.976 0 0 1-.866 1.089 3.916 3.916 0 0 0 1.131-.31 3.95 3.95 0 0 1-.984 1.017z" id="path-1" class="cls-2" fill-rule="evenodd"/></svg>