<svg xmlns="http://www.w3.org/2000/svg" preserveAspectRatio="xMidYMid" width="100" height="100" viewBox="0 0 100 100"><defs><style>.cls-3{fill:#363636;filter:url(#color-overlay-1)}.cls-4{fill:#000;filter:url(#color-overlay-2)}</style><filter id="color-overlay-1" filterUnits="userSpaceOnUse"><feFlood flood-color="#fafafa" flood-opacity="1"/><feComposite operator="in" in2="SourceGraphic"/><feBlend in2="SourceGraphic" result="colorOverlay"/></filter><filter id="color-overlay-2" filterUnits="userSpaceOnUse"><feFlood flood-color="#363636" flood-opacity="1"/><feComposite operator="in" in2="SourceGraphic"/><feBlend in2="SourceGraphic" result="colorOverlay"/></filter></defs><g id="ultrasvg"><circle id="circle-1" class="cls-3" cx="50" cy="50" r="50"/><path d="M59.74 70.994H41.269c-1.799 0-3.26-1.438-3.26-3.208V34.1c0-1.769 1.461-3.207 3.26-3.207H59.74c1.798 0 3.259 1.438 3.259 3.207v33.686c0 1.77-1.461 3.208-3.259 3.208zm-9.236-1.203c.973 0 1.766-.78 1.766-1.737 0-.957-.793-1.738-1.766-1.738-.972 0-1.766.781-1.766 1.738s.794 1.737 1.766 1.737zm2.988-35.969a.796.796 0 0 0-.803-.792h-4.368a.796.796 0 0 0-.804.792v.022c0 .438.358.791.804.791h4.368a.795.795 0 0 0 .803-.791v-.022zm6.791 3.487a.54.54 0 0 0-.543-.535H41.269a.54.54 0 0 0-.543.535v27.269a.54.54 0 0 0 .543.535H59.74a.54.54 0 0 0 .543-.535V37.309zm-2.711 25.13H43.437a.533.533 0 0 1-.538-.529v-.011c0-.292.24-.529.538-.529h14.135c.298 0 .538.237.538.529v.011a.534.534 0 0 1-.538.529zm0-3.207H43.437a.534.534 0 0 1-.538-.53v-.01c0-.293.24-.53.538-.53h14.135c.298 0 .538.237.538.53v.01c0 .292-.241.53-.538.53zm0-3.209H43.437a.533.533 0 0 1-.538-.53v-.01c0-.293.24-.529.538-.529h14.135c.298 0 .538.236.538.529v.01c0 .293-.241.53-.538.53zm0-3.208H43.437a.533.533 0 0 1-.538-.53v-.01c0-.293.24-.53.538-.53h14.135c.298 0 .538.237.538.53v.01c0 .293-.241.53-.538.53zm0-3.209H43.437a.532.532 0 0 1-.538-.529v-.01c0-.293.24-.53.538-.53h14.135c.298 0 .538.237.538.53v.01a.533.533 0 0 1-.538.529zm-.005-6.951h-1.629a.539.539 0 0 1-.544-.534v-1.604a.54.54 0 0 1 .544-.535h1.629c.3 0 .543.24.543.535v1.604a.54.54 0 0 1-.543.534zm-4.346.001h-1.63a.54.54 0 0 1-.543-.535v-1.604a.54.54 0 0 1 .543-.534h1.63c.299 0 .542.239.542.534v1.604a.54.54 0 0 1-.542.535zm-3.803 0h-1.63a.54.54 0 0 1-.543-.535v-1.604a.54.54 0 0 1 .543-.534h1.63c.3 0 .543.239.543.534v1.604a.54.54 0 0 1-.543.535zm-4.346 0h-1.63a.54.54 0 0 1-.543-.535v-1.604a.54.54 0 0 1 .543-.534h1.63a.54.54 0 0 1 .543.534v1.604a.54.54 0 0 1-.543.535zm-1.635 2.674h9.246c.297 0 .538.236.538.529v.01c0 .293-.241.53-.538.53h-9.246a.533.533 0 0 1-.538-.53v-.01c0-.293.24-.529.538-.529z" id="path-1" class="cls-4" fill-rule="evenodd"/></g></svg>