<svg xmlns="http://www.w3.org/2000/svg" xmlns:xlink="http://www.w3.org/1999/xlink" preserveAspectRatio="xMidYMid" width="70" height="70" viewBox="0 0 70 70">
  <defs>
    <style>

      .cls-3 {
        fill: #363636;
        filter: url(#color-overlay-1);
      }

      .cls-4 {
        fill: #000000;
        filter: url(#color-overlay-2);
      }
    </style>

    <filter id="color-overlay-1" filterUnits="userSpaceOnUse">
      <feFlood flood-color="#e5493a" flood-opacity="1"/>
      <feComposite operator="in" in2="SourceGraphic"/>
      <feBlend mode="normal" in2="SourceGraphic" result="colorOverlay"/>
    </filter>
    <filter id="color-overlay-2" filterUnits="userSpaceOnUse">
      <feFlood flood-color="#ffffff" flood-opacity="1"/>
      <feComposite operator="in" in2="SourceGraphic"/>
      <feBlend mode="normal" in2="SourceGraphic" result="colorOverlay"/>
    </filter>
  </defs>
  <g id="brandingsvg">
    <circle id="circle-1" class="cls-3" cx="35" cy="35" r="35"/>
    <path d="M49.998,39.642 C49.482,41.231 50.186,43.454 49.222,44.777 C48.247,46.112 45.902,46.126 44.563,47.099 C43.238,48.061 42.505,50.286 40.912,50.803 C39.376,51.299 37.479,49.945 35.775,49.945 C34.072,49.945 32.175,51.299 30.639,50.803 C29.046,50.286 28.313,48.061 26.987,47.098 C25.649,46.126 23.304,46.112 22.330,44.777 C21.364,43.454 22.068,41.229 21.553,39.641 C21.053,38.108 19.155,36.729 19.155,35.031 C19.155,33.332 21.052,31.953 21.552,30.421 C22.068,28.831 21.365,26.608 22.329,25.286 C23.303,23.950 25.647,23.936 26.986,22.963 C28.312,22.001 29.045,19.776 30.638,19.261 C32.174,18.763 34.072,20.117 35.775,20.117 C37.478,20.117 39.376,18.763 40.911,19.261 C42.504,19.776 43.237,22.001 44.563,22.963 C45.901,23.936 48.247,23.950 49.221,25.286 C50.186,26.608 49.482,28.831 49.998,30.421 C50.497,31.953 52.394,33.332 52.395,35.031 C52.395,36.729 50.498,38.109 49.998,39.642 ZM35.775,23.398 C29.344,23.398 24.113,28.617 24.113,35.031 C24.113,41.446 29.344,46.664 35.775,46.664 C42.205,46.664 47.437,41.446 47.437,35.031 C47.437,28.617 42.205,23.398 35.775,23.398 ZM35.775,44.765 C30.394,44.765 26.017,40.398 26.017,35.031 C26.017,29.664 30.394,25.298 35.775,25.298 C41.155,25.298 45.533,29.664 45.533,35.031 C45.533,40.398 41.155,44.765 35.775,44.765 ZM42.457,33.255 C42.382,33.026 42.176,32.866 41.935,32.850 C41.935,32.850 37.840,32.585 37.840,32.585 C37.840,32.585 36.322,28.783 36.322,28.783 C36.233,28.559 36.016,28.413 35.775,28.413 C35.534,28.413 35.318,28.559 35.229,28.783 C35.229,28.783 33.710,32.585 33.710,32.585 C33.710,32.585 29.616,32.850 29.616,32.850 C29.375,32.866 29.168,33.026 29.093,33.255 C29.019,33.483 29.091,33.734 29.277,33.887 C29.277,33.887 32.434,36.503 32.434,36.503 C32.434,36.503 31.421,40.469 31.421,40.469 C31.361,40.703 31.450,40.948 31.645,41.089 C31.840,41.231 32.102,41.239 32.306,41.111 C32.306,41.111 35.775,38.924 35.775,38.924 C35.775,38.924 39.244,41.111 39.244,41.111 C39.448,41.239 39.710,41.231 39.905,41.089 C40.099,40.948 40.188,40.703 40.129,40.469 C40.129,40.469 39.116,36.503 39.116,36.503 C39.116,36.503 42.273,33.887 42.273,33.887 C42.458,33.734 42.531,33.483 42.457,33.255 Z" id="path-1" class="cls-4" fill-rule="evenodd"/>
  </g>
</svg>
