<svg xmlns="http://www.w3.org/2000/svg" xmlns:xlink="http://www.w3.org/1999/xlink" preserveAspectRatio="xMidYMid" width="41" height="41" viewBox="0 0 41 41">
  <defs>
    <style>

      .cls-3 {
        fill: #363636;
      }

      .cls-4 {
        fill: #000000;
        filter: url(#color-overlay-1);
      }
    </style>

    <filter id="color-overlay-1" filterUnits="userSpaceOnUse">
      <feFlood flood-color="#ffffff" flood-opacity="1"/>
      <feComposite operator="in" in2="SourceGraphic"/>
      <feBlend mode="normal" in2="SourceGraphic" result="colorOverlay"/>
    </filter>
  </defs>
  <g id="camerasvg">
    <rect id="rect-1" class="cls-3" width="41" height="41"/>
    <path d="M29.080,27.994 C29.080,27.994 12.919,27.994 12.919,27.994 C11.314,27.994 10.009,26.686 10.009,25.081 C10.009,25.081 10.009,16.576 10.009,16.576 C10.009,15.056 11.177,13.804 12.662,13.675 C12.792,13.119 13.154,12.740 13.586,12.740 C13.586,12.740 15.683,12.740 15.683,12.740 C16.113,12.740 16.472,13.114 16.604,13.662 C16.604,13.662 19.570,13.662 19.570,13.662 C19.570,13.662 21.007,12.003 21.007,12.003 C21.007,12.003 25.918,12.003 25.918,12.003 C25.918,12.003 27.687,13.662 27.687,13.662 C27.687,13.662 29.080,13.662 29.080,13.662 C30.685,13.662 31.989,14.970 31.989,16.576 C31.989,16.576 31.989,25.081 31.989,25.081 C31.989,26.686 30.685,27.994 29.080,27.994 ZM12.641,18.513 C12.641,18.209 12.394,17.963 12.091,17.963 C11.787,17.963 11.541,18.209 11.541,18.513 C11.541,18.513 11.541,24.320 11.541,24.320 C11.541,24.623 11.787,24.869 12.091,24.869 C12.394,24.869 12.641,24.623 12.641,24.320 C12.641,24.320 12.641,18.513 12.641,18.513 ZM15.949,15.472 C15.949,15.150 15.689,14.890 15.368,14.890 C15.368,14.890 13.878,14.890 13.878,14.890 C13.557,14.890 13.297,15.150 13.297,15.472 C13.297,15.472 13.297,15.813 13.297,15.813 C13.297,16.133 13.557,16.393 13.878,16.393 C13.878,16.393 15.368,16.393 15.368,16.393 C15.688,16.393 15.949,16.133 15.949,15.813 C15.949,15.813 15.949,15.472 15.949,15.472 ZM23.741,16.251 C21.177,16.251 19.091,18.339 19.091,20.905 C19.091,23.471 21.177,25.560 23.741,25.560 C26.304,25.560 28.389,23.471 28.389,20.905 C28.389,18.339 26.304,16.251 23.741,16.251 ZM23.741,24.168 C21.944,24.168 20.482,22.704 20.482,20.905 C20.482,19.106 21.944,17.643 23.741,17.643 C25.538,17.643 26.999,19.106 26.999,20.905 C26.999,22.704 25.538,24.168 23.741,24.168 Z" id="path-1" class="cls-4" fill-rule="evenodd"/>
  </g>
</svg>
