<svg xmlns="http://www.w3.org/2000/svg" xmlns:xlink="http://www.w3.org/1999/xlink" preserveAspectRatio="xMidYMid" width="21" height="18" viewBox="0 0 21 18">
  <defs>
    <style>

      .cls-2 {
        fill: #000000;
        filter: url(#color-overlay-1);
      }
    </style>

    <filter id="color-overlay-1" filterUnits="userSpaceOnUse">
      <feFlood flood-color="#363636" flood-opacity="1"/>
      <feComposite operator="in" in2="SourceGraphic"/>
      <feBlend mode="normal" in2="SourceGraphic" result="colorOverlay"/>
    </filter>
  </defs>
  <path d="M20.129,9.113 C19.998,9.263 19.831,9.351 19.628,9.375 C19.628,9.375 6.869,10.866 6.869,10.866 C6.877,10.923 6.895,11.011 6.924,11.129 C6.952,11.247 6.977,11.355 6.997,11.453 C7.017,11.550 7.028,11.640 7.028,11.722 C7.028,11.852 6.930,12.113 6.734,12.504 C6.734,12.504 17.977,12.504 17.977,12.504 C18.189,12.504 18.373,12.581 18.527,12.736 C18.682,12.891 18.760,13.074 18.760,13.286 C18.760,13.498 18.682,13.681 18.527,13.836 C18.373,13.991 18.189,14.068 17.977,14.068 C17.977,14.068 17.196,14.068 17.196,14.068 C17.196,14.068 6.245,14.068 6.245,14.068 C6.245,14.068 5.463,14.068 5.463,14.068 C5.251,14.068 5.068,13.991 4.913,13.836 C4.758,13.681 4.681,13.498 4.681,13.286 C4.681,13.172 4.726,13.011 4.815,12.803 C4.905,12.595 5.025,12.353 5.176,12.076 C5.327,11.799 5.410,11.644 5.426,11.612 C5.426,11.612 3.263,1.553 3.263,1.553 C3.263,1.553 0.771,1.553 0.771,1.553 C0.559,1.553 0.375,1.476 0.220,1.321 C0.066,1.167 -0.012,0.984 -0.012,0.772 C-0.012,0.560 0.066,0.376 0.220,0.222 C0.375,0.067 0.559,-0.011 0.771,-0.011 C0.771,-0.011 3.899,-0.011 3.899,-0.011 C4.029,-0.011 4.146,0.016 4.247,0.069 C4.349,0.122 4.431,0.185 4.492,0.258 C4.553,0.331 4.606,0.431 4.651,0.557 C4.695,0.684 4.726,0.792 4.742,0.881 C4.759,0.971 4.781,1.091 4.809,1.242 C4.838,1.393 4.856,1.497 4.864,1.553 C4.864,1.553 19.542,1.553 19.542,1.553 C19.754,1.553 19.937,1.631 20.092,1.786 C20.247,1.941 20.324,2.124 20.324,2.336 C20.324,2.336 20.324,8.593 20.324,8.593 C20.324,8.789 20.259,8.962 20.129,9.113 ZM18.760,15.632 C18.760,16.065 18.607,16.433 18.301,16.739 C17.996,17.044 17.627,17.197 17.196,17.197 C16.764,17.197 16.395,17.044 16.089,16.739 C15.784,16.433 15.631,16.065 15.631,15.632 C15.631,15.201 15.784,14.832 16.089,14.526 C16.395,14.221 16.764,14.068 17.196,14.068 C17.627,14.068 17.996,14.221 18.301,14.526 C18.607,14.832 18.760,15.201 18.760,15.632 ZM7.810,15.632 C7.810,16.065 7.657,16.433 7.351,16.739 C7.046,17.044 6.677,17.197 6.245,17.197 C5.814,17.197 5.445,17.044 5.139,16.739 C4.834,16.433 4.681,16.065 4.681,15.632 C4.681,15.201 4.834,14.832 5.139,14.526 C5.445,14.221 5.814,14.068 6.245,14.068 C6.677,14.068 7.046,14.221 7.351,14.526 C7.657,14.832 7.810,15.201 7.810,15.632 Z" id="path-1" class="cls-2" fill-rule="evenodd"/>
</svg>
