<svg xmlns="http://www.w3.org/2000/svg" xmlns:xlink="http://www.w3.org/1999/xlink" preserveAspectRatio="xMidYMid" width="41" height="41" viewBox="0 0 41 41">
  <defs>
    <style>

      .cls-3 {
        fill: #363636;
        filter: url(#color-overlay-1);
      }

      .cls-4 {
        fill: #000000;
        filter: url(#color-overlay-2);
      }
    </style>

    <filter id="color-overlay-1" filterUnits="userSpaceOnUse">
      <feFlood flood-color="#e5493a" flood-opacity="1"/>
      <feComposite operator="in" in2="SourceGraphic"/>
      <feBlend mode="normal" in2="SourceGraphic" result="colorOverlay"/>
    </filter>
    <filter id="color-overlay-2" filterUnits="userSpaceOnUse">
      <feFlood flood-color="#ffffff" flood-opacity="1"/>
      <feComposite operator="in" in2="SourceGraphic"/>
      <feBlend mode="normal" in2="SourceGraphic" result="colorOverlay"/>
    </filter>
  </defs>
  <g id="category-blogsvg">
    <rect id="rect-1" class="cls-3" width="41" height="41"/>
    <path d="M30.510,25.130 C30.510,25.130 28.104,25.130 28.104,25.130 C28.104,25.130 28.104,27.523 28.104,27.523 C28.104,27.785 27.888,27.997 27.622,27.997 C27.622,27.997 10.469,27.997 10.469,27.997 C10.203,27.997 9.987,27.785 9.987,27.523 C9.987,27.523 9.987,15.321 9.987,15.321 C9.987,15.060 10.203,14.848 10.469,14.848 C10.469,14.848 12.876,14.848 12.876,14.848 C12.876,14.848 12.876,12.455 12.876,12.455 C12.876,12.193 13.091,11.981 13.357,11.981 C13.357,11.981 30.510,11.981 30.510,11.981 C30.776,11.981 30.992,12.193 30.992,12.455 C30.992,12.455 30.992,24.657 30.992,24.657 C30.992,24.918 30.776,25.130 30.510,25.130 ZM12.454,25.952 C12.484,25.295 12.633,24.412 12.876,23.494 C12.876,23.494 12.876,16.119 12.876,16.119 C12.876,16.119 11.281,16.119 11.281,16.119 C11.281,16.119 11.281,26.726 11.281,26.726 C11.281,26.726 26.810,26.726 26.810,26.726 C26.810,26.726 26.810,25.130 26.810,25.130 C26.810,25.130 25.372,25.130 25.372,25.130 C25.489,25.463 25.579,25.753 25.637,25.955 C25.637,25.955 12.454,25.952 12.454,25.952 ZM29.698,13.252 C29.698,13.252 14.169,13.252 14.169,13.252 C14.169,13.252 14.169,23.860 14.169,23.860 C14.169,23.860 29.698,23.860 29.698,23.860 C29.698,23.860 29.698,13.252 29.698,13.252 ZM20.924,17.520 C21.694,18.605 22.365,19.563 22.930,20.166 C23.860,21.080 24.655,19.695 25.630,19.239 C27.052,18.574 28.223,22.031 28.525,23.088 C28.525,23.088 15.342,23.085 15.342,23.085 C15.425,21.284 16.384,17.786 17.779,16.497 C19.028,15.352 20.090,16.354 20.924,17.520 ZM25.569,17.207 C24.674,17.207 23.948,16.495 23.948,15.615 C23.948,14.736 24.674,14.023 25.569,14.023 C26.464,14.023 27.190,14.736 27.190,15.615 C27.190,16.495 26.464,17.207 25.569,17.207 Z" id="path-1" class="cls-4" fill-rule="evenodd"/>
  </g>
</svg>
