<svg xmlns="http://www.w3.org/2000/svg" xmlns:xlink="http://www.w3.org/1999/xlink" preserveAspectRatio="xMidYMid" width="70" height="70" viewBox="0 0 70 70">
  <defs>
    <style>

      .cls-3 {
        fill: #363636;
      }

      .cls-4 {
        fill: #000000;
        filter: url(#color-overlay-1);
      }
    </style>

    <filter id="color-overlay-1" filterUnits="userSpaceOnUse">
      <feFlood flood-color="#ffffff" flood-opacity="1"/>
      <feComposite operator="in" in2="SourceGraphic"/>
      <feBlend mode="normal" in2="SourceGraphic" result="colorOverlay"/>
    </filter>
  </defs>
  <g id="developmentsvg">
    <circle id="circle-1" class="cls-3" cx="35" cy="35" r="35"/>
    <path d="M46.641,31.236 C46.641,31.236 46.494,31.183 46.494,31.183 C46.494,31.183 45.920,29.809 45.920,29.809 C45.920,29.809 45.982,29.668 45.982,29.668 C47.720,25.716 47.600,25.598 47.312,25.311 C47.312,25.311 44.995,23.043 44.995,23.043 C44.900,22.949 44.734,22.882 44.590,22.882 C44.460,22.882 44.066,22.882 40.644,24.438 C40.644,24.438 40.507,24.500 40.507,24.500 C40.507,24.500 39.096,23.929 39.096,23.929 C39.096,23.929 39.039,23.788 39.039,23.788 C37.431,19.790 37.265,19.790 36.865,19.790 C36.865,19.790 33.594,19.790 33.594,19.790 C33.195,19.790 33.013,19.790 31.521,23.795 C31.521,23.795 31.465,23.941 31.465,23.941 C31.465,23.941 30.061,24.515 30.061,24.515 C30.061,24.515 29.927,24.459 29.927,24.459 C27.611,23.479 26.259,22.982 25.907,22.982 C25.764,22.982 25.597,23.047 25.502,23.141 C25.502,23.141 23.183,25.416 23.183,25.416 C22.889,25.707 22.767,25.829 24.594,29.699 C24.594,29.699 24.661,29.842 24.661,29.842 C24.661,29.842 24.087,31.214 24.087,31.214 C24.087,31.214 23.947,31.269 23.947,31.269 C19.870,32.850 19.870,33.004 19.870,33.416 C19.870,33.416 19.870,36.634 19.870,36.634 C19.870,37.047 19.870,37.218 23.955,38.687 C23.955,38.687 24.101,38.739 24.101,38.739 C24.101,38.739 24.675,40.107 24.675,40.107 C24.675,40.107 24.614,40.247 24.614,40.247 C22.877,44.201 22.987,44.308 23.283,44.604 C23.283,44.604 25.596,46.875 25.596,46.875 C25.693,46.968 25.861,47.035 26.004,47.035 C26.133,47.035 26.527,47.035 29.950,45.481 C29.950,45.481 30.087,45.416 30.087,45.416 C30.087,45.416 31.500,45.990 31.500,45.990 C31.500,45.990 31.555,46.131 31.555,46.131 C33.164,50.128 33.330,50.128 33.731,50.128 C33.731,50.128 37.003,50.128 37.003,50.128 C37.414,50.128 37.584,50.128 39.077,46.120 C39.077,46.120 39.133,45.975 39.133,45.975 C39.133,45.975 40.539,45.404 40.539,45.404 C40.539,45.404 40.673,45.459 40.673,45.459 C42.987,46.441 44.338,46.937 44.688,46.937 C44.830,46.937 44.999,46.875 45.096,46.778 C45.096,46.778 47.418,44.499 47.418,44.499 C47.710,44.207 47.831,44.087 46.001,40.221 C46.001,40.221 45.932,40.075 45.932,40.075 C45.932,40.075 46.506,38.709 46.506,38.709 C46.506,38.709 46.643,38.655 46.643,38.655 C50.726,37.066 50.726,36.911 50.726,36.498 C50.726,36.498 50.726,33.283 50.726,33.283 C50.726,32.870 50.726,32.699 46.641,31.236 ZM35.298,40.177 C32.374,40.177 29.996,37.836 29.996,34.959 C29.996,32.084 32.374,29.745 35.298,29.745 C38.220,29.745 40.599,32.084 40.599,34.959 C40.599,37.835 38.220,40.177 35.298,40.177 Z" id="path-1" class="cls-4" fill-rule="evenodd"/>
  </g>
</svg>
