<svg xmlns="http://www.w3.org/2000/svg" xmlns:xlink="http://www.w3.org/1999/xlink" preserveAspectRatio="xMidYMid" width="19" height="16" viewBox="0 0 19 16">
  <defs>
    <style>

      .cls-2 {
        fill: #000000;
        filter: url(#color-overlay-1);
      }
    </style>

    <filter id="color-overlay-1" filterUnits="userSpaceOnUse">
      <feFlood flood-color="#555555" flood-opacity="1"/>
      <feComposite operator="in" in2="SourceGraphic"/>
      <feBlend mode="normal" in2="SourceGraphic" result="colorOverlay"/>
    </filter>
  </defs>
  <path d="M17.983,14.934 C17.285,15.637 16.444,15.989 15.461,15.989 C15.461,15.989 11.496,15.989 11.496,15.989 C11.388,15.989 11.296,15.949 11.217,15.870 C11.138,15.791 11.100,15.698 11.100,15.590 C11.100,15.556 11.095,15.473 11.087,15.340 C11.079,15.206 11.077,15.096 11.081,15.009 C11.085,14.922 11.097,14.824 11.118,14.716 C11.138,14.607 11.180,14.527 11.242,14.472 C11.303,14.419 11.388,14.391 11.496,14.391 C11.496,14.391 15.461,14.391 15.461,14.391 C16.006,14.391 16.473,14.196 16.861,13.804 C17.250,13.413 17.444,12.943 17.444,12.394 C17.444,12.394 17.444,3.607 17.444,3.607 C17.444,3.058 17.250,2.588 16.861,2.197 C16.473,1.805 16.006,1.610 15.461,1.610 C15.461,1.610 11.892,1.610 11.892,1.610 C11.892,1.610 11.756,1.610 11.756,1.610 C11.756,1.610 11.595,1.610 11.595,1.610 C11.595,1.610 11.547,1.605 11.452,1.598 C11.357,1.588 11.309,1.577 11.309,1.560 C11.309,1.543 11.276,1.521 11.210,1.491 C11.144,1.462 11.115,1.424 11.124,1.379 C11.132,1.333 11.124,1.277 11.099,1.211 C11.099,1.177 11.095,1.094 11.087,0.961 C11.078,0.828 11.076,0.717 11.081,0.630 C11.084,0.543 11.097,0.445 11.117,0.337 C11.138,0.228 11.179,0.147 11.241,0.093 C11.303,0.039 11.388,0.012 11.495,0.012 C11.495,0.012 15.461,0.012 15.461,0.012 C16.444,0.012 17.284,0.364 17.983,1.067 C18.681,1.770 19.030,2.617 19.030,3.607 C19.030,3.607 19.030,12.394 19.030,12.394 C19.030,13.384 18.681,14.231 17.983,14.934 ZM14.668,8.000 C14.668,8.217 14.589,8.404 14.433,8.562 C14.433,8.562 7.691,15.353 7.691,15.353 C7.534,15.510 7.348,15.590 7.133,15.590 C6.918,15.590 6.733,15.510 6.575,15.353 C6.419,15.194 6.340,15.007 6.340,14.791 C6.340,14.791 6.340,11.196 6.340,11.196 C6.340,11.196 0.788,11.196 0.788,11.196 C0.573,11.196 0.388,11.117 0.230,10.959 C0.073,10.801 -0.005,10.613 -0.005,10.397 C-0.005,10.397 -0.005,5.604 -0.005,5.604 C-0.005,5.388 0.073,5.200 0.230,5.042 C0.387,4.884 0.573,4.805 0.788,4.805 C0.788,4.805 6.340,4.805 6.340,4.805 C6.340,4.805 6.340,1.210 6.340,1.210 C6.340,0.994 6.419,0.806 6.575,0.648 C6.732,0.491 6.918,0.411 7.133,0.411 C7.348,0.411 7.534,0.491 7.691,0.648 C7.691,0.648 14.433,7.438 14.433,7.438 C14.589,7.597 14.668,7.784 14.668,8.000 Z" id="path-1" class="cls-2" fill-rule="evenodd"/>
</svg>
