<?xml version="1.0" encoding="UTF-8" standalone="no"?>
<!-- Created with Inkscape (http://www.inkscape.org/) -->

<svg
   xmlns:dc="http://purl.org/dc/elements/1.1/"
   xmlns:cc="http://creativecommons.org/ns#"
   xmlns:rdf="http://www.w3.org/1999/02/22-rdf-syntax-ns#"
   xmlns:svg="http://www.w3.org/2000/svg"
   xmlns="http://www.w3.org/2000/svg"
   xmlns:sodipodi="http://sodipodi.sourceforge.net/DTD/sodipodi-0.dtd"
   xmlns:inkscape="http://www.inkscape.org/namespaces/inkscape"
   version="1.1"
   id="svg10"
   width="100"
   height="41"
   viewBox="0 0 100 41"
   sodipodi:docname="èxe.svg"
   inkscape:version="0.92.2 (5c3e80d, 2017-08-06)">
  <metadata
     id="metadata16">
    <rdf:RDF>
      <cc:Work
         rdf:about="">
        <dc:format>image/svg+xml</dc:format>
        <dc:type
           rdf:resource="http://purl.org/dc/dcmitype/StillImage" />
        <dc:title></dc:title>
      </cc:Work>
    </rdf:RDF>
  </metadata>
  <defs
     id="defs14" />
  <sodipodi:namedview
     pagecolor="#ffffff"
     bordercolor="#666666"
     borderopacity="1"
     objecttolerance="10"
     gridtolerance="10"
     guidetolerance="10"
     inkscape:pageopacity="0"
     inkscape:pageshadow="2"
     inkscape:window-width="1366"
     inkscape:window-height="705"
     id="namedview12"
     showgrid="false"
     inkscape:zoom="12.11"
     inkscape:cx="50"
     inkscape:cy="40.318332"
     inkscape:window-x="-8"
     inkscape:window-y="-8"
     inkscape:window-maximized="1"
     inkscape:current-layer="svg10" />
  <path
     style="fill:#373737"
     d="M 37.489939,38.16188 34.743116,35.294815 39.214537,30.397408 43.685957,25.5 39.067492,20.769795 34.449027,16.03959 36.816251,13.519795 C 38.118225,12.133908 39.565089,11 40.031505,11 c 0.466416,0 2.883047,1.875814 5.37029,4.168475 l 4.522261,4.168474 4.754439,-4.682947 4.754439,-4.6829477 2.694574,2.8125297 2.694574,2.812529 -4.493617,4.410151 c -2.471489,2.425584 -4.493617,4.897765 -4.493617,5.493736 0,0.595971 2.022128,3.068152 4.493617,5.493736 l 4.493617,4.410151 -2.694574,2.812529 -2.694574,2.81253 -4.799043,-4.726881 -4.799043,-4.726881 -4.799043,4.726881 -4.799043,4.726881 z m 40.749446,0.934238 C 67.384683,34.166447 66.911383,18.301987 77.438949,12.26645 c 2.142744,-1.228452 5.516848,-2.240952 7.498018,-2.25 7.02929,-0.032102 13.89275,7.244864 13.89633,14.73355 l 0.002,3.25 h -10.5 c -5.78551,0 -10.499999,0.416411 -10.499999,0.92742 0,1.31617 4.984199,5.07258 6.730569,5.07258 0.80346,0 2.69823,-0.730942 4.21059,-1.624315 2.55693,-1.510414 2.93848,-1.500652 5.44123,0.139208 3.47299,2.275594 3.01109,3.478484 -2.39425,6.235107 -5.33166,2.71905 -8.19781,2.792082 -13.583602,0.346118 z M 91.834847,22.07258 c 0,-1.298359 -4.97357,-5.07258 -6.68452,-5.07258 -2.4738,0 -7.315479,2.995277 -7.315479,4.52568 0,1.158682 1.498635,1.47432 6.999999,1.47432 3.85,0 7,-0.417339 7,-0.92742 z M 8.8707286,37.75 C -1.9429644,32.205019 -1.9282644,16.49093 8.8957806,10.968914 11.018446,9.8860113 14.235599,9.0016821 16.04501,9.0037381 23.012079,9.0116581 29.823934,16.05088 29.83111,23.25 l 0.0037,3.75 h -10.5 c -5.785511,0 -10.5000004,0.416411 -10.5000004,0.92742 0,1.31617 4.9842034,5.07258 6.7305674,5.07258 0.803467,0 2.698235,-0.730942 4.210595,-1.624315 2.556927,-1.510414 2.93848,-1.500652 5.441223,0.139208 1.480312,0.969937 2.539872,2.263379 2.354578,2.874315 C 27.069865,36.044056 18.794603,40 15.83481,40 14.417889,40 11.284036,38.9875 8.8706906,37.75 Z M 22.834848,21.07258 c 0,-0.510081 -1.230398,-1.895251 -2.734218,-3.078156 -1.974797,-1.553376 -3.545372,-1.988506 -5.654693,-1.566642 -3.469765,0.693953 -5.6110894,2.294735 -5.6110894,4.194663 0,1.038878 1.7209774,1.377555 7.0000004,1.377555 3.85,0 7,-0.417339 7,-0.92742 z M 7.9953626,3.4529469 c -0.638284,-1.400879 -1.160515,-2.75087904 -1.160515,-3.00000004 0,-0.249121 2.627768,-0.45294699542527 5.8394854,-0.45294699542527 5.287131,0 5.949258,0.24092499542527 7,2.54705303542527 0.638283,1.400879 1.160515,2.750879 1.160515,3 0,0.249121 -2.627768,0.452947 -5.839485,0.452947 -5.2871314,0 -5.9492584,-0.240925 -7.0000004,-2.547053 z"
     id="path20"
     inkscape:connector-curvature="0" />
</svg>
