<svg xmlns="http://www.w3.org/2000/svg" xmlns:xlink="http://www.w3.org/1999/xlink" preserveAspectRatio="xMidYMid" width="19" height="20" viewBox="0 0 19 20">
  <defs>
    <style>

      .cls-2 {
        fill: #000000;
        filter: url(#color-overlay-1);
      }
    </style>

    <filter id="color-overlay-1" filterUnits="userSpaceOnUse">
      <feFlood flood-color="#464646" flood-opacity="1"/>
      <feComposite operator="in" in2="SourceGraphic"/>
      <feBlend mode="normal" in2="SourceGraphic" result="colorOverlay"/>
    </filter>
  </defs>
  <path d="M9.500,-0.007 C4.249,-0.007 -0.006,4.256 -0.006,9.515 C-0.006,14.774 4.249,19.037 9.500,19.037 C14.750,19.037 19.006,14.774 19.006,9.515 C19.006,4.256 14.750,-0.007 9.500,-0.007 ZM13.366,7.794 C13.370,7.874 13.371,7.955 13.371,8.036 C13.371,10.515 11.488,13.372 8.044,13.372 C6.987,13.372 6.003,13.062 5.175,12.529 C5.321,12.547 5.470,12.556 5.621,12.556 C6.498,12.556 7.306,12.256 7.947,11.753 C7.127,11.738 6.436,11.196 6.197,10.451 C6.312,10.472 6.429,10.484 6.550,10.484 C6.720,10.484 6.886,10.461 7.043,10.419 C6.186,10.246 5.541,9.489 5.541,8.580 C5.541,8.571 5.541,8.564 5.541,8.556 C5.793,8.697 6.082,8.781 6.389,8.791 C5.887,8.454 5.556,7.880 5.556,7.229 C5.556,6.886 5.648,6.564 5.810,6.287 C6.733,7.422 8.113,8.168 9.669,8.246 C9.636,8.109 9.620,7.966 9.620,7.819 C9.620,6.783 10.458,5.943 11.492,5.943 C12.031,5.943 12.517,6.171 12.859,6.536 C13.286,6.452 13.686,6.296 14.048,6.081 C13.908,6.519 13.611,6.886 13.225,7.118 C13.604,7.073 13.965,6.972 14.300,6.823 C14.050,7.199 13.732,7.530 13.366,7.794 Z" id="path-1" class="cls-2" fill-rule="evenodd"/>
</svg>
