<svg xmlns="http://www.w3.org/2000/svg" xmlns:xlink="http://www.w3.org/1999/xlink" preserveAspectRatio="xMidYMid" width="16" height="16" viewBox="0 0 16 16">
  <defs>
    <style>

      .cls-2 {
        fill: #000000;
        filter: url(#color-overlay-1);
      }
    </style>

    <filter id="color-overlay-1" filterUnits="userSpaceOnUse">
      <feFlood flood-color="#555555" flood-opacity="1"/>
      <feComposite operator="in" in2="SourceGraphic"/>
      <feBlend mode="normal" in2="SourceGraphic" result="colorOverlay"/>
    </filter>
  </defs>
  <path d="M13.000,-0.001 C13.000,-0.001 3.000,-0.001 3.000,-0.001 C1.343,-0.001 -0.000,1.342 -0.000,2.999 C-0.000,2.999 -0.000,12.999 -0.000,12.999 C-0.000,14.656 1.343,15.999 3.000,15.999 C3.000,15.999 13.000,15.999 13.000,15.999 C14.657,15.999 16.000,14.656 16.000,12.999 C16.000,12.999 16.000,2.999 16.000,2.999 C16.000,1.342 14.657,-0.001 13.000,-0.001 ZM10.068,7.998 C10.068,7.998 8.757,7.999 8.757,7.999 C8.757,7.999 8.756,12.799 8.756,12.799 C8.756,12.799 6.957,12.799 6.957,12.799 C6.957,12.799 6.957,7.999 6.957,7.999 C6.957,7.999 5.757,7.999 5.757,7.999 C5.757,7.999 5.757,6.345 5.757,6.345 C5.757,6.345 6.957,6.345 6.957,6.345 C6.957,6.345 6.955,5.370 6.955,5.370 C6.955,4.020 7.321,3.200 8.910,3.200 C8.910,3.200 10.234,3.200 10.234,3.200 C10.234,3.200 10.234,4.854 10.234,4.854 C10.234,4.854 9.406,4.854 9.406,4.854 C8.787,4.854 8.757,5.085 8.757,5.517 C8.757,5.517 8.755,6.345 8.755,6.345 C8.755,6.345 10.243,6.345 10.243,6.345 C10.243,6.345 10.068,7.998 10.068,7.998 Z" id="path-1" class="cls-2" fill-rule="evenodd"/>
</svg>
