<svg xmlns="http://www.w3.org/2000/svg" xmlns:xlink="http://www.w3.org/1999/xlink" preserveAspectRatio="xMidYMid" width="15" height="15" viewBox="0 0 15 15">
  <defs>
    <style>

      .cls-2 {
        fill: #000000;
        filter: url(#color-overlay-1);
      }
    </style>

    <filter id="color-overlay-1" filterUnits="userSpaceOnUse">
      <feFlood flood-color="#555555" flood-opacity="1"/>
      <feComposite operator="in" in2="SourceGraphic"/>
      <feBlend mode="normal" in2="SourceGraphic" result="colorOverlay"/>
    </filter>
  </defs>
  <path d="M8.000,0.016 C8.000,0.016 8.000,-0.001 8.000,-0.001 C8.000,-0.001 7.500,-0.001 7.500,-0.001 C7.500,-0.001 7.000,-0.001 7.000,-0.001 C7.000,-0.001 7.000,0.016 7.000,0.016 C3.256,0.263 0.263,3.255 0.017,6.999 C0.017,6.999 -0.000,6.999 -0.000,6.999 C-0.000,6.999 -0.000,7.499 -0.000,7.499 C-0.000,7.499 -0.000,7.999 -0.000,7.999 C-0.000,7.999 0.017,7.999 0.017,7.999 C0.263,11.743 3.256,14.735 7.000,14.982 C7.000,14.982 7.000,14.999 7.000,14.999 C7.000,14.999 7.500,14.999 7.500,14.999 C7.500,14.999 8.000,14.999 8.000,14.999 C8.000,14.999 8.000,14.982 8.000,14.982 C11.744,14.735 14.736,11.743 14.982,7.999 C14.982,7.999 15.000,7.999 15.000,7.999 C15.000,7.999 15.000,7.499 15.000,7.499 C15.000,7.499 15.000,6.999 15.000,6.999 C15.000,6.999 14.982,6.999 14.982,6.999 C14.736,3.255 11.744,0.263 8.000,0.016 ZM4.695,1.634 C4.212,2.276 3.811,3.081 3.519,3.999 C3.519,3.999 2.021,3.999 2.021,3.999 C2.673,2.982 3.599,2.159 4.695,1.634 ZM1.498,4.999 C1.498,4.999 3.256,4.999 3.256,4.999 C3.122,5.631 3.037,6.302 3.010,6.999 C3.010,6.999 1.019,6.999 1.019,6.999 C1.072,6.295 1.238,5.622 1.498,4.999 ZM1.019,7.999 C1.019,7.999 3.010,7.999 3.010,7.999 C3.037,8.696 3.122,9.368 3.256,10.000 C3.256,10.000 1.498,10.000 1.498,10.000 C1.238,9.376 1.072,8.703 1.019,7.999 ZM2.021,10.999 C2.021,10.999 3.518,10.999 3.518,10.999 C3.810,11.917 4.211,12.722 4.695,13.364 C3.599,12.839 2.673,12.017 2.021,10.999 ZM7.000,13.935 C5.972,13.660 5.087,12.556 4.550,10.999 C4.550,10.999 7.000,10.999 7.000,10.999 C7.000,10.999 7.000,13.935 7.000,13.935 ZM7.000,10.000 C7.000,10.000 4.269,10.000 4.269,10.000 C4.128,9.376 4.039,8.703 4.010,7.999 C4.010,7.999 7.000,7.999 7.000,7.999 C7.000,7.999 7.000,10.000 7.000,10.000 ZM7.000,6.999 C7.000,6.999 4.010,6.999 4.010,6.999 C4.039,6.295 4.128,5.622 4.269,4.999 C4.269,4.999 7.000,4.999 7.000,4.999 C7.000,4.999 7.000,6.999 7.000,6.999 ZM7.000,3.999 C7.000,3.999 4.550,3.999 4.550,3.999 C5.087,2.442 5.972,1.338 7.000,1.064 C7.000,1.064 7.000,3.999 7.000,3.999 ZM12.978,3.999 C12.978,3.999 11.482,3.999 11.482,3.999 C11.189,3.081 10.789,2.276 10.305,1.634 C11.400,2.159 12.327,2.982 12.978,3.999 ZM8.000,1.064 C9.027,1.338 9.913,2.442 10.450,3.999 C10.450,3.999 8.000,3.999 8.000,3.999 C8.000,3.999 8.000,1.064 8.000,1.064 ZM8.000,4.999 C8.000,4.999 10.730,4.999 10.730,4.999 C10.872,5.622 10.960,6.295 10.990,6.999 C10.990,6.999 8.000,6.999 8.000,6.999 C8.000,6.999 8.000,4.999 8.000,4.999 ZM8.000,7.999 C8.000,7.999 10.990,7.999 10.990,7.999 C10.961,8.703 10.872,9.376 10.730,10.000 C10.730,10.000 8.000,10.000 8.000,10.000 C8.000,10.000 8.000,7.999 8.000,7.999 ZM8.000,13.935 C8.000,13.935 8.000,10.999 8.000,10.999 C8.000,10.999 10.450,10.999 10.450,10.999 C9.913,12.556 9.027,13.660 8.000,13.935 ZM10.305,13.364 C10.788,12.722 11.189,11.917 11.482,10.999 C11.482,10.999 12.978,10.999 12.978,10.999 C12.327,12.017 11.400,12.839 10.305,13.364 ZM13.502,10.000 C13.502,10.000 11.744,10.000 11.744,10.000 C11.878,9.368 11.963,8.696 11.990,7.999 C11.990,7.999 13.980,7.999 13.980,7.999 C13.928,8.703 13.762,9.376 13.502,10.000 ZM11.990,6.999 C11.963,6.302 11.878,5.631 11.744,4.999 C11.744,4.999 13.502,4.999 13.502,4.999 C13.762,5.622 13.928,6.295 13.980,6.999 C13.980,6.999 11.990,6.999 11.990,6.999 Z" id="path-1" class="cls-2" fill-rule="evenodd"/>
</svg>
