<svg xmlns="http://www.w3.org/2000/svg" xmlns:xlink="http://www.w3.org/1999/xlink" preserveAspectRatio="xMidYMid" width="16" height="16" viewBox="0 0 16 16">
  <defs>
    <style>

      .cls-2 {
        fill: #000000;
        filter: url(#color-overlay-1);
      }
    </style>

    <filter id="color-overlay-1" filterUnits="userSpaceOnUse">
      <feFlood flood-color="#555555" flood-opacity="1"/>
      <feComposite operator="in" in2="SourceGraphic"/>
      <feBlend mode="normal" in2="SourceGraphic" result="colorOverlay"/>
    </filter>
  </defs>
  <path d="M13.000,-0.001 C13.000,-0.001 3.000,-0.001 3.000,-0.001 C1.343,-0.001 -0.000,1.342 -0.000,2.999 C-0.000,2.999 -0.000,12.999 -0.000,12.999 C-0.000,14.656 1.343,15.999 3.000,15.999 C3.000,15.999 13.000,15.999 13.000,15.999 C14.657,15.999 16.000,14.656 16.000,12.999 C16.000,12.999 16.000,2.999 16.000,2.999 C16.000,1.342 14.657,-0.001 13.000,-0.001 ZM5.768,13.382 C3.997,13.382 2.503,12.661 2.503,11.509 C2.503,10.340 3.866,9.211 5.637,9.212 C5.637,9.212 6.190,9.207 6.190,9.207 C5.948,8.972 5.756,8.683 5.756,8.326 C5.756,8.114 5.824,7.911 5.918,7.730 C5.918,7.730 5.623,7.741 5.623,7.741 C4.168,7.741 3.194,6.705 3.194,5.422 C3.194,4.168 4.539,3.084 5.969,3.084 C5.969,3.084 9.159,3.084 9.159,3.084 C9.159,3.084 8.443,3.601 8.443,3.601 C8.443,3.601 7.432,3.601 7.432,3.601 C8.103,3.858 8.460,4.640 8.460,5.442 C8.460,6.115 8.087,6.695 7.560,7.107 C7.045,7.510 6.948,7.678 6.948,8.020 C6.948,8.312 7.500,8.808 7.788,9.013 C8.631,9.608 8.902,10.162 8.902,11.085 C8.902,12.238 7.787,13.382 5.768,13.382 ZM14.000,7.018 C14.000,7.018 12.000,7.018 12.000,7.018 C12.000,7.018 12.000,9.015 12.000,9.015 C12.000,9.015 11.001,9.015 11.001,9.015 C11.001,9.015 11.001,7.018 11.001,7.018 C11.001,7.018 9.000,7.018 9.000,7.018 C9.000,7.018 9.000,5.999 9.000,5.999 C9.000,5.999 11.001,5.999 11.001,5.999 C11.001,5.999 11.001,3.999 11.001,3.999 C11.001,3.999 12.000,3.999 12.000,3.999 C12.000,3.999 12.000,5.999 12.000,5.999 C12.000,5.999 14.000,5.999 14.000,5.999 C14.000,5.999 14.000,7.018 14.000,7.018 ZM7.314,5.504 C7.172,4.426 6.391,3.560 5.570,3.535 C4.749,3.511 4.198,4.336 4.340,5.416 C4.482,6.496 5.263,7.390 6.085,7.414 C6.905,7.439 7.457,6.584 7.314,5.504 ZM6.769,9.638 C6.527,9.560 6.260,9.513 5.975,9.510 C4.751,9.497 3.655,10.256 3.655,11.169 C3.655,12.101 4.539,12.875 5.763,12.875 C7.484,12.875 8.083,12.147 8.083,11.217 C8.083,11.105 8.069,10.995 8.044,10.888 C7.910,10.361 7.433,10.099 6.769,9.638 Z" id="path-1" class="cls-2" fill-rule="evenodd"/>
</svg>
