<svg xmlns="http://www.w3.org/2000/svg" xmlns:xlink="http://www.w3.org/1999/xlink" preserveAspectRatio="xMidYMid" width="20" height="16" viewBox="0 0 20 16">
  <defs>
    <style>

      .cls-2 {
        fill: #000000;
        filter: url(#color-overlay-1);
      }
    </style>

    <filter id="color-overlay-1" filterUnits="userSpaceOnUse">
      <feFlood flood-color="#555555" flood-opacity="1"/>
      <feComposite operator="in" in2="SourceGraphic"/>
      <feBlend mode="normal" in2="SourceGraphic" result="colorOverlay"/>
    </filter>
  </defs>
  <path d="M19.794,5.711 C19.811,5.540 19.820,5.365 19.820,5.191 C19.820,2.320 17.499,-0.009 14.636,-0.009 C12.529,-0.009 10.716,1.254 9.906,3.066 C9.096,1.254 7.282,-0.009 5.175,-0.009 C2.313,-0.009 -0.007,2.320 -0.007,5.191 C-0.007,5.365 0.001,5.540 0.018,5.711 C0.018,5.711 0.119,10.830 9.969,15.980 C9.969,15.980 9.969,15.980 9.969,15.980 C19.818,10.830 19.794,5.711 19.794,5.711 ZM5.322,1.137 C5.793,1.137 6.173,1.518 6.173,1.990 C6.173,2.461 5.793,2.843 5.322,2.843 C4.852,2.843 4.473,2.462 4.473,1.990 C4.473,1.519 4.853,1.137 5.322,1.137 ZM2.664,7.519 C2.585,7.542 2.504,7.552 2.426,7.552 C2.037,7.552 1.681,7.294 1.572,6.900 C1.438,6.424 1.375,5.985 1.359,5.586 C1.280,3.484 2.571,2.450 2.635,2.399 C3.023,2.098 3.581,2.169 3.879,2.557 C4.178,2.942 4.110,3.493 3.735,3.796 C3.689,3.834 3.129,4.339 3.133,5.420 C3.135,5.711 3.176,6.044 3.280,6.422 C3.412,6.897 3.135,7.388 2.664,7.519 Z" id="path-1" class="cls-2" fill-rule="evenodd"/>
</svg>
