<svg xmlns="http://www.w3.org/2000/svg" xmlns:xlink="http://www.w3.org/1999/xlink" preserveAspectRatio="xMidYMid" width="19" height="19" viewBox="0 0 19 19">
  <defs>
    <style>

      .cls-2 {
        fill: #000000;
        filter: url(#color-overlay-1);
      }
    </style>

    <filter id="color-overlay-1" filterUnits="userSpaceOnUse">
      <feFlood flood-color="#363636" flood-opacity="1"/>
      <feComposite operator="in" in2="SourceGraphic"/>
      <feBlend mode="normal" in2="SourceGraphic" result="colorOverlay"/>
    </filter>
  </defs>
  <path d="M17.900,15.909 C17.900,15.909 14.128,12.136 14.128,12.136 C15.037,10.824 15.492,9.361 15.492,7.748 C15.492,6.700 15.288,5.697 14.881,4.740 C14.474,3.783 13.924,2.958 13.232,2.264 C12.539,1.572 11.714,1.022 10.757,0.615 C9.800,0.208 8.797,0.005 7.748,0.005 C6.700,0.005 5.697,0.208 4.740,0.615 C3.783,1.022 2.958,1.572 2.265,2.264 C1.572,2.958 1.022,3.783 0.616,4.740 C0.209,5.697 0.005,6.700 0.005,7.748 C0.005,8.797 0.209,9.799 0.616,10.756 C1.022,11.713 1.572,12.538 2.265,13.231 C2.958,13.923 3.783,14.474 4.740,14.880 C5.697,15.288 6.700,15.491 7.748,15.491 C9.362,15.491 10.825,15.037 12.137,14.127 C12.137,14.127 15.910,17.888 15.910,17.888 C16.174,18.167 16.503,18.307 16.899,18.307 C17.281,18.307 17.611,18.167 17.889,17.888 C18.168,17.610 18.307,17.280 18.307,16.899 C18.307,16.511 18.172,16.180 17.900,15.909 ZM11.230,11.229 C10.265,12.193 9.105,12.675 7.748,12.675 C6.392,12.675 5.232,12.193 4.267,11.229 C3.303,10.265 2.821,9.104 2.821,7.748 C2.821,6.391 3.303,5.231 4.267,4.266 C5.231,3.302 6.392,2.820 7.748,2.820 C9.105,2.820 10.265,3.302 11.230,4.266 C12.194,5.231 12.676,6.391 12.676,7.748 C12.676,9.104 12.194,10.265 11.230,11.229 Z" id="path-1" class="cls-2" fill-rule="evenodd"/>
</svg>
