<svg xmlns="http://www.w3.org/2000/svg" xmlns:xlink="http://www.w3.org/1999/xlink" preserveAspectRatio="xMidYMid" width="42" height="42" viewBox="0 0 42 42">
  <defs>
    <style>

      .cls-3 {
        fill: #ffffff;
        filter: url(#color-overlay-1);
      }

      .cls-4 {
        fill: #000000;
        filter: url(#color-overlay-2);
      }
    </style>

    <filter id="color-overlay-1" filterUnits="userSpaceOnUse">
      <feFlood flood-color="#e5493a" flood-opacity="1"/>
      <feComposite operator="in" in2="SourceGraphic"/>
      <feBlend mode="normal" in2="SourceGraphic" result="colorOverlay"/>
    </filter>
    <filter id="color-overlay-2" filterUnits="userSpaceOnUse">
      <feFlood flood-color="#ffffff" flood-opacity="1"/>
      <feComposite operator="in" in2="SourceGraphic"/>
      <feBlend mode="normal" in2="SourceGraphic" result="colorOverlay"/>
    </filter>
  </defs>
  <g id="linksvg">
    <circle id="circle-1" class="cls-3" cx="21" cy="21" r="21"/>
    <path d="M26.967,21.203 C26.967,21.203 24.396,23.772 24.396,23.772 C22.978,25.192 20.676,25.192 19.257,23.772 C19.034,23.549 18.859,23.298 18.706,23.039 C18.706,23.039 19.900,21.845 19.900,21.845 C19.956,21.788 20.027,21.755 20.094,21.716 C20.176,21.999 20.320,22.266 20.542,22.487 C21.251,23.196 22.404,23.196 23.112,22.487 C23.112,22.487 25.681,19.918 25.681,19.918 C26.390,19.209 26.390,18.056 25.681,17.348 C24.973,16.640 23.820,16.640 23.112,17.348 C23.112,17.348 22.198,18.263 22.198,18.263 C21.456,17.974 20.657,17.896 19.880,18.010 C19.880,18.010 21.827,16.063 21.827,16.063 C23.246,14.644 25.547,14.644 26.967,16.063 C28.385,17.483 28.385,19.783 26.967,21.203 ZM20.172,25.428 C20.172,25.428 19.257,26.343 19.257,26.343 C18.549,27.050 17.396,27.050 16.687,26.343 C15.979,25.634 15.979,24.481 16.687,23.772 C16.687,23.772 19.257,21.203 19.257,21.203 C19.966,20.494 21.118,20.494 21.827,21.203 C22.048,21.424 22.192,21.691 22.276,21.973 C22.343,21.934 22.412,21.902 22.469,21.845 C22.469,21.845 23.663,20.651 23.663,20.651 C23.511,20.392 23.335,20.141 23.112,19.918 C21.693,18.499 19.391,18.499 17.972,19.918 C17.972,19.918 15.403,22.487 15.403,22.487 C13.984,23.907 13.984,26.208 15.403,27.627 C16.822,29.046 19.123,29.046 20.542,27.627 C20.542,27.627 22.490,25.680 22.490,25.680 C21.712,25.794 20.913,25.716 20.172,25.428 Z" id="path-1" class="cls-4" fill-rule="evenodd"/>
  </g>
</svg>
