<svg xmlns="http://www.w3.org/2000/svg" xmlns:xlink="http://www.w3.org/1999/xlink" preserveAspectRatio="xMidYMid" width="16" height="16" viewBox="0 0 16 16">
  <defs>
    <style>

      .cls-2 {
        fill: #000000;
        filter: url(#color-overlay-1);
      }
    </style>

    <filter id="color-overlay-1" filterUnits="userSpaceOnUse">
      <feFlood flood-color="#555555" flood-opacity="1"/>
      <feComposite operator="in" in2="SourceGraphic"/>
      <feBlend mode="normal" in2="SourceGraphic" result="colorOverlay"/>
    </filter>
  </defs>
  <path d="M13.000,-0.001 C13.000,-0.001 3.000,-0.001 3.000,-0.001 C1.343,-0.001 -0.000,1.342 -0.000,2.999 C-0.000,2.999 -0.000,12.999 -0.000,12.999 C-0.000,14.656 1.343,15.999 3.000,15.999 C3.000,15.999 13.000,15.999 13.000,15.999 C14.657,15.999 16.000,14.656 16.000,12.999 C16.000,12.999 16.000,2.999 16.000,2.999 C16.000,1.342 14.657,-0.001 13.000,-0.001 ZM6.000,11.874 C6.000,11.874 4.000,11.874 4.000,11.874 C4.000,11.874 4.000,4.874 4.000,4.874 C4.000,4.874 6.000,4.874 6.000,4.874 C6.000,4.874 6.000,11.874 6.000,11.874 ZM5.062,4.445 C4.544,4.445 4.125,4.025 4.125,3.507 C4.125,2.990 4.545,2.569 5.062,2.569 C5.580,2.570 6.000,2.990 6.000,3.507 C6.000,4.025 5.580,4.445 5.062,4.445 ZM13.000,11.874 C13.000,11.874 11.000,11.874 11.000,11.874 C11.000,11.874 11.000,7.546 11.000,7.546 C11.000,7.039 10.855,6.685 10.232,6.685 C9.199,6.685 9.000,7.546 9.000,7.546 C9.000,7.546 9.000,11.874 9.000,11.874 C9.000,11.874 7.000,11.874 7.000,11.874 C7.000,11.874 7.000,4.874 7.000,4.874 C7.000,4.874 9.000,4.874 9.000,4.874 C9.000,4.874 9.000,5.543 9.000,5.543 C9.286,5.325 10.000,4.875 11.000,4.875 C11.648,4.875 13.000,5.263 13.000,7.607 C13.000,7.607 13.000,11.874 13.000,11.874 Z" id="path-1" class="cls-2" fill-rule="evenodd"/>
</svg>
