<svg xmlns="http://www.w3.org/2000/svg" xmlns:xlink="http://www.w3.org/1999/xlink" preserveAspectRatio="xMidYMid" width="17" height="12" viewBox="0 0 17 12">
  <defs>
    <style>

      .cls-2 {
        fill: #000000;
        filter: url(#color-overlay-1);
      }
    </style>

    <filter id="color-overlay-1" filterUnits="userSpaceOnUse">
      <feFlood flood-color="#363636" flood-opacity="1"/>
      <feComposite operator="in" in2="SourceGraphic"/>
      <feBlend mode="normal" in2="SourceGraphic" result="colorOverlay"/>
    </filter>
  </defs>
  <path d="M0.793,0.099 C0.926,0.047 1.069,0.015 1.221,0.015 C1.221,0.015 15.779,0.015 15.779,0.015 C15.930,0.015 16.073,0.047 16.207,0.099 C16.207,0.099 9.684,6.474 9.684,6.474 C9.020,7.123 7.980,7.123 7.315,6.474 C7.315,6.474 0.793,0.099 0.793,0.099 ZM16.831,11.427 C16.944,11.233 17.013,11.008 17.013,10.766 C17.013,10.766 17.013,1.295 17.013,1.295 C17.013,1.123 16.979,0.959 16.919,0.809 C16.919,0.809 10.815,6.775 10.815,6.775 C10.815,6.775 16.831,11.427 16.831,11.427 ZM10.263,7.305 C9.757,7.756 9.129,7.984 8.500,7.984 C7.870,7.984 7.243,7.756 6.736,7.305 C6.736,7.305 0.738,11.944 0.738,11.944 C0.886,12.009 1.049,12.046 1.221,12.046 C1.221,12.046 15.779,12.046 15.779,12.046 C15.950,12.046 16.113,12.009 16.262,11.944 C16.262,11.944 10.263,7.305 10.263,7.305 ZM0.080,0.809 C0.021,0.959 -0.013,1.123 -0.013,1.295 C-0.013,1.295 -0.013,10.766 -0.013,10.766 C-0.013,11.008 0.056,11.233 0.169,11.427 C0.169,11.427 6.184,6.775 6.184,6.775 C6.184,6.775 0.080,0.809 0.080,0.809 Z" id="path-1" class="cls-2" fill-rule="evenodd"/>
</svg>
