<svg xmlns="http://www.w3.org/2000/svg" xmlns:xlink="http://www.w3.org/1999/xlink" preserveAspectRatio="xMidYMid" width="10" height="16" viewBox="0 0 10 16">
  <defs>
    <style>

      .cls-2 {
        fill: #000000;
        filter: url(#color-overlay-1);
      }
    </style>

    <filter id="color-overlay-1" filterUnits="userSpaceOnUse">
      <feFlood flood-color="#555555" flood-opacity="1"/>
      <feComposite operator="in" in2="SourceGraphic"/>
      <feBlend mode="normal" in2="SourceGraphic" result="colorOverlay"/>
    </filter>
  </defs>
  <path d="M3.046,15.970 C2.665,15.970 2.046,16.018 1.669,15.968 C0.976,15.874 0.008,15.452 0.008,13.829 C0.008,13.829 0.008,2.055 0.008,2.055 C0.008,2.055 0.042,-0.004 2.220,-0.004 C2.220,-0.004 7.567,-0.004 7.567,-0.004 C7.567,-0.004 9.963,-0.077 9.963,2.076 C9.963,2.076 9.963,13.288 9.963,13.288 C9.963,13.632 9.953,14.194 9.843,14.522 C9.640,15.129 9.091,15.970 7.610,15.970 C7.610,15.970 3.046,15.970 3.046,15.970 C3.046,15.970 3.046,15.970 3.046,15.970 ZM4.949,15.036 C5.275,15.036 5.537,14.797 5.537,14.506 C5.537,14.211 5.275,13.975 4.949,13.975 C4.627,13.975 4.362,14.211 4.362,14.506 C4.362,14.797 4.627,15.036 4.949,15.036 ZM5.954,0.995 C5.954,0.995 4.017,0.995 4.017,0.995 C3.636,0.995 3.328,1.217 3.328,1.493 C3.328,1.768 3.636,1.991 4.017,1.991 C4.017,1.991 5.954,1.991 5.954,1.991 C6.334,1.991 6.643,1.768 6.643,1.493 C6.643,1.218 6.334,0.995 5.954,0.995 ZM8.167,2.990 C8.167,2.990 1.804,2.990 1.804,2.990 C1.423,2.990 1.114,3.268 1.114,3.612 C1.114,3.612 1.114,12.354 1.114,12.354 C1.114,12.698 1.423,12.977 1.804,12.977 C1.804,12.977 8.167,12.977 8.167,12.977 C8.548,12.977 8.857,12.698 8.857,12.354 C8.857,12.354 8.857,3.612 8.857,3.612 C8.856,3.268 8.548,2.990 8.167,2.990 Z" id="path-1" class="cls-2" fill-rule="evenodd"/>
</svg>
