<svg xmlns="http://www.w3.org/2000/svg" xmlns:xlink="http://www.w3.org/1999/xlink" preserveAspectRatio="xMidYMid" width="103" height="103" viewBox="0 0 103 103">
  <defs>
    <style>

      .cls-3 {
        fill: #363636;
        stroke: #e5493a;
        stroke-linejoin: round;
        stroke-width: 3px;
        fill-opacity: 0;
      }

      .cls-4 {
        fill: #000000;
        filter: url(#color-overlay-1);
      }
    </style>

    <filter id="color-overlay-1" filterUnits="userSpaceOnUse">
      <feFlood flood-color="#e5493a" flood-opacity="1"/>
      <feComposite operator="in" in2="SourceGraphic"/>
      <feBlend mode="normal" in2="SourceGraphic" result="colorOverlay"/>
    </filter>
  </defs>
  <g id="multisvg">
    <circle id="circle-1" class="cls-3" cx="51" cy="51" r="50"/>
    <path d="M67.045,64.984 C67.045,64.984 35.909,64.984 35.909,64.984 C33.722,64.984 31.950,63.237 31.950,61.079 C31.950,61.079 31.950,41.914 31.950,41.914 C31.950,39.759 33.722,38.011 35.909,38.011 C35.909,38.011 67.045,38.011 67.045,38.011 C69.230,38.011 71.004,39.759 71.004,41.914 C71.004,41.914 71.004,61.079 71.004,61.079 C71.004,63.237 69.230,64.984 67.045,64.984 ZM64.807,44.437 C64.807,44.437 38.148,44.437 38.148,44.437 C37.615,44.437 37.183,44.866 37.183,45.390 C37.183,45.916 37.615,46.339 38.148,46.339 C38.148,46.339 64.807,46.339 64.807,46.339 C65.338,46.339 65.770,45.916 65.770,45.390 C65.770,44.865 65.338,44.437 64.807,44.437 ZM64.834,50.547 C64.834,50.547 38.175,50.547 38.175,50.547 C37.641,50.547 37.210,50.975 37.210,51.500 C37.210,52.025 37.641,52.448 38.175,52.448 C38.175,52.448 64.834,52.448 64.834,52.448 C65.365,52.448 65.798,52.025 65.797,51.500 C65.797,50.975 65.365,50.547 64.834,50.547 ZM64.861,56.656 C64.861,56.656 38.202,56.656 38.202,56.656 C37.668,56.656 37.237,57.084 37.237,57.608 C37.237,58.134 37.668,58.558 38.202,58.558 C38.202,58.558 64.861,58.558 64.861,58.558 C65.392,58.558 65.825,58.134 65.824,57.608 C65.824,57.084 65.392,56.656 64.861,56.656 ZM58.291,36.565 C57.484,36.565 56.828,35.921 56.828,35.129 C56.828,34.473 56.288,33.939 55.625,33.939 C55.625,33.939 47.328,33.939 47.328,33.939 C46.663,33.939 46.121,34.473 46.121,35.129 C46.121,35.921 45.468,36.565 44.664,36.565 C43.859,36.565 43.203,35.921 43.203,35.129 C43.203,32.887 45.054,31.062 47.328,31.062 C47.328,31.062 55.625,31.062 55.625,31.062 C57.901,31.062 59.751,32.887 59.751,35.129 C59.751,35.921 59.096,36.565 58.291,36.565 Z" id="path-1" class="cls-4" fill-rule="evenodd"/>
  </g>
</svg>
