<svg xmlns="http://www.w3.org/2000/svg" xmlns:xlink="http://www.w3.org/1999/xlink" preserveAspectRatio="xMidYMid" width="100" height="100" viewBox="0 0 100 100">
  <defs>
    <style>

      .cls-3 {
        fill: #363636;
        filter: url(#color-overlay-1);
      }

      .cls-4 {
        fill: #000000;
        filter: url(#color-overlay-2);
      }
    </style>

    <filter id="color-overlay-1" filterUnits="userSpaceOnUse">
      <feFlood flood-color="#fafafa" flood-opacity="1"/>
      <feComposite operator="in" in2="SourceGraphic"/>
      <feBlend mode="normal" in2="SourceGraphic" result="colorOverlay"/>
    </filter>
    <filter id="color-overlay-2" filterUnits="userSpaceOnUse">
      <feFlood flood-color="#363636" flood-opacity="1"/>
      <feComposite operator="in" in2="SourceGraphic"/>
      <feBlend mode="normal" in2="SourceGraphic" result="colorOverlay"/>
    </filter>
  </defs>
  <g id="onlinesvg">
    <circle id="circle-1" class="cls-3" cx="50" cy="50" r="50"/>
    <path d="M69.331,58.054 C68.222,59.724 66.700,61.133 64.763,62.284 C64.919,62.667 65.079,63.018 65.243,63.337 C65.407,63.657 65.603,63.965 65.829,64.260 C66.055,64.555 66.231,64.787 66.356,64.954 C66.481,65.122 66.684,65.357 66.965,65.661 C67.246,65.964 67.426,66.164 67.504,66.260 C67.519,66.276 67.551,66.312 67.598,66.367 C67.645,66.423 67.680,66.463 67.703,66.486 C67.726,66.511 67.757,66.551 67.796,66.607 C67.836,66.662 67.862,66.706 67.878,66.738 C67.878,66.738 67.937,66.858 67.937,66.858 C67.937,66.858 67.952,66.905 67.983,67.001 C68.014,67.097 68.018,67.149 67.995,67.157 C67.972,67.164 67.964,67.217 67.972,67.312 C67.925,67.536 67.823,67.711 67.667,67.839 C67.511,67.967 67.339,68.023 67.152,68.007 C66.371,67.895 65.699,67.767 65.137,67.623 C62.732,66.984 60.561,65.963 58.625,64.557 C57.219,64.813 55.845,64.941 54.502,64.941 C50.270,64.941 46.584,63.887 43.445,61.779 C44.351,61.843 45.038,61.874 45.506,61.874 C48.021,61.874 50.434,61.515 52.744,60.796 C55.056,60.078 57.118,59.048 58.929,57.707 C60.881,56.237 62.381,54.544 63.427,52.628 C64.474,50.712 64.996,48.684 64.996,46.545 C64.996,45.314 64.817,44.101 64.458,42.903 C66.472,44.037 68.065,45.459 69.237,47.167 C70.408,48.876 70.994,50.713 70.994,52.677 C70.994,54.594 70.440,56.386 69.331,58.054 ZM53.788,57.169 C51.250,58.262 48.490,58.809 45.507,58.808 C44.164,58.808 42.790,58.680 41.384,58.425 C39.448,59.830 37.277,60.852 34.872,61.491 C34.310,61.635 33.638,61.763 32.857,61.874 C32.857,61.874 32.787,61.874 32.787,61.874 C32.615,61.874 32.455,61.811 32.307,61.683 C32.159,61.555 32.069,61.388 32.037,61.180 C32.022,61.132 32.014,61.080 32.014,61.024 C32.014,60.969 32.018,60.917 32.026,60.869 C32.033,60.821 32.049,60.773 32.072,60.725 C32.072,60.725 32.131,60.606 32.131,60.606 C32.131,60.606 32.159,60.562 32.213,60.474 C32.268,60.386 32.299,60.347 32.307,60.355 C32.315,60.362 32.350,60.323 32.412,60.235 C32.475,60.147 32.506,60.111 32.506,60.127 C32.584,60.031 32.764,59.831 33.045,59.528 C33.326,59.225 33.529,58.990 33.654,58.822 C33.779,58.654 33.955,58.423 34.181,58.128 C34.408,57.832 34.603,57.525 34.767,57.205 C34.931,56.885 35.091,56.535 35.247,56.151 C33.311,55.002 31.788,53.588 30.679,51.912 C29.570,50.234 29.015,48.445 29.015,46.545 C29.015,44.326 29.749,42.274 31.217,40.389 C32.685,38.505 34.688,37.016 37.226,35.922 C39.764,34.828 42.524,34.281 45.507,34.281 C48.490,34.281 51.250,34.827 53.788,35.922 C56.326,37.016 58.329,38.505 59.796,40.389 C61.264,42.273 61.998,44.326 61.998,46.545 C61.998,48.765 61.264,50.817 59.797,52.701 C58.329,54.585 56.326,56.075 53.788,57.169 Z" id="path-1" class="cls-4" fill-rule="evenodd"/>
  </g>
</svg>
