<svg xmlns="http://www.w3.org/2000/svg" xmlns:xlink="http://www.w3.org/1999/xlink" preserveAspectRatio="xMidYMid" width="17" height="16" viewBox="0 0 17 16">
  <defs>
    <style>

      .cls-2 {
        fill: #000000;
        filter: url(#color-overlay-1);
      }
    </style>

    <filter id="color-overlay-1" filterUnits="userSpaceOnUse">
      <feFlood flood-color="#555555" flood-opacity="1"/>
      <feComposite operator="in" in2="SourceGraphic"/>
      <feBlend mode="normal" in2="SourceGraphic" result="colorOverlay"/>
    </filter>
  </defs>
  <path d="M17.008,0.525 C17.008,0.525 11.919,14.539 11.919,14.539 C11.790,14.893 11.504,15.167 11.144,15.277 C10.785,15.387 10.394,15.321 10.092,15.099 C10.092,15.099 5.334,11.616 5.334,11.616 C5.334,11.616 16.264,0.783 16.264,0.783 C16.264,0.783 3.902,10.567 3.902,10.567 C3.902,10.567 0.422,8.019 0.422,8.019 C0.104,7.787 -0.062,7.398 -0.010,7.005 C0.042,6.613 0.302,6.281 0.669,6.139 C0.669,6.139 16.510,0.031 16.510,0.031 C16.651,-0.023 16.810,0.010 16.917,0.117 C17.024,0.223 17.060,0.382 17.008,0.525 ZM5.053,15.847 C4.819,15.998 4.525,16.022 4.270,15.911 C4.015,15.799 3.831,15.568 3.781,15.292 C3.781,15.292 3.105,11.576 3.105,11.576 C3.105,11.576 3.076,11.413 3.076,11.413 C3.076,11.413 7.190,14.379 7.190,14.379 C7.223,14.426 5.994,15.236 5.053,15.847 Z" id="path-1" class="cls-2" fill-rule="evenodd"/>
</svg>
