<svg xmlns="http://www.w3.org/2000/svg" xmlns:xlink="http://www.w3.org/1999/xlink" preserveAspectRatio="xMidYMid" width="70" height="70" viewBox="0 0 70 70">
  <defs>
    <style>

      .cls-3 {
        fill: #363636;
      }

      .cls-4 {
        fill: #000000;
        filter: url(#color-overlay-1);
      }
    </style>

    <filter id="color-overlay-1" filterUnits="userSpaceOnUse">
      <feFlood flood-color="#ffffff" flood-opacity="1"/>
      <feComposite operator="in" in2="SourceGraphic"/>
      <feBlend mode="normal" in2="SourceGraphic" result="colorOverlay"/>
    </filter>
  </defs>
  <g id="responsivesvg">
    <circle id="circle-1" class="cls-3" cx="35" cy="35" r="35"/>
    <path d="M43.250,50.986 C43.250,50.986 27.757,50.986 27.757,50.986 C26.248,50.986 25.023,49.836 25.023,48.419 C25.023,48.419 25.023,21.471 25.023,21.471 C25.023,20.055 26.248,18.904 27.757,18.904 C27.757,18.904 43.250,18.904 43.250,18.904 C44.759,18.904 45.984,20.055 45.984,21.471 C45.984,21.471 45.984,48.419 45.984,48.419 C45.984,49.836 44.759,50.986 43.250,50.986 ZM35.504,50.024 C36.319,50.024 36.985,49.399 36.985,48.634 C36.985,47.868 36.319,47.243 35.504,47.243 C34.688,47.243 34.022,47.868 34.022,48.634 C34.022,49.399 34.688,50.024 35.504,50.024 ZM38.010,21.249 C38.010,20.897 37.709,20.615 37.336,20.615 C37.336,20.615 33.672,20.615 33.672,20.615 C33.298,20.615 32.998,20.897 32.998,21.249 C32.998,21.249 32.998,21.266 32.998,21.266 C32.998,21.616 33.298,21.898 33.672,21.898 C33.672,21.898 37.336,21.898 37.336,21.898 C37.709,21.898 38.010,21.616 38.010,21.266 C38.010,21.266 38.010,21.249 38.010,21.249 ZM43.706,24.038 C43.706,23.802 43.501,23.610 43.250,23.610 C43.250,23.610 27.757,23.610 27.757,23.610 C27.507,23.610 27.301,23.802 27.301,24.038 C27.301,24.038 27.301,45.853 27.301,45.853 C27.301,46.088 27.507,46.280 27.757,46.280 C27.757,46.280 43.250,46.280 43.250,46.280 C43.501,46.280 43.706,46.088 43.706,45.853 C43.706,45.853 43.706,24.038 43.706,24.038 ZM41.432,44.142 C41.432,44.142 29.575,44.142 29.575,44.142 C29.326,44.142 29.124,43.952 29.124,43.718 C29.124,43.718 29.124,43.710 29.124,43.710 C29.124,43.476 29.326,43.286 29.575,43.286 C29.575,43.286 41.432,43.286 41.432,43.286 C41.682,43.286 41.883,43.476 41.883,43.710 C41.883,43.710 41.883,43.718 41.883,43.718 C41.883,43.952 41.681,44.142 41.432,44.142 ZM41.432,41.576 C41.432,41.576 29.575,41.576 29.575,41.576 C29.326,41.576 29.124,41.386 29.124,41.152 C29.124,41.152 29.124,41.144 29.124,41.144 C29.124,40.909 29.326,40.720 29.575,40.720 C29.575,40.720 41.432,40.720 41.432,40.720 C41.682,40.720 41.883,40.909 41.883,41.144 C41.883,41.144 41.883,41.152 41.883,41.152 C41.883,41.386 41.681,41.576 41.432,41.576 ZM41.432,39.008 C41.432,39.008 29.575,39.008 29.575,39.008 C29.326,39.008 29.124,38.819 29.124,38.585 C29.124,38.585 29.124,38.577 29.124,38.577 C29.124,38.342 29.326,38.153 29.575,38.153 C29.575,38.153 41.432,38.153 41.432,38.153 C41.682,38.153 41.883,38.342 41.883,38.577 C41.883,38.577 41.883,38.585 41.883,38.585 C41.883,38.819 41.681,39.008 41.432,39.008 ZM41.432,36.442 C41.432,36.442 29.575,36.442 29.575,36.442 C29.326,36.442 29.124,36.253 29.124,36.019 C29.124,36.019 29.124,36.011 29.124,36.011 C29.124,35.777 29.326,35.587 29.575,35.587 C29.575,35.587 41.432,35.587 41.432,35.587 C41.682,35.587 41.883,35.777 41.883,36.011 C41.883,36.011 41.883,36.019 41.883,36.019 C41.883,36.253 41.681,36.442 41.432,36.442 ZM41.432,33.875 C41.432,33.875 29.575,33.875 29.575,33.875 C29.326,33.875 29.124,33.686 29.124,33.452 C29.124,33.452 29.124,33.444 29.124,33.444 C29.124,33.210 29.326,33.020 29.575,33.020 C29.575,33.020 41.432,33.020 41.432,33.020 C41.682,33.020 41.883,33.210 41.883,33.444 C41.883,33.444 41.883,33.452 41.883,33.452 C41.883,33.686 41.681,33.875 41.432,33.875 ZM41.428,28.314 C41.428,28.314 40.061,28.314 40.061,28.314 C39.809,28.314 39.605,28.123 39.605,27.887 C39.605,27.887 39.605,26.604 39.605,26.604 C39.605,26.369 39.809,26.176 40.061,26.176 C40.061,26.176 41.428,26.176 41.428,26.176 C41.679,26.176 41.883,26.368 41.883,26.604 C41.883,26.604 41.883,27.887 41.883,27.887 C41.883,28.123 41.679,28.314 41.428,28.314 ZM37.782,28.315 C37.782,28.315 36.415,28.315 36.415,28.315 C36.164,28.315 35.959,28.123 35.960,27.887 C35.960,27.887 35.960,26.604 35.960,26.604 C35.960,26.369 36.164,26.177 36.415,26.177 C36.415,26.177 37.782,26.177 37.782,26.177 C38.033,26.177 38.237,26.369 38.237,26.604 C38.237,26.604 38.237,27.887 38.237,27.887 C38.237,28.123 38.033,28.315 37.782,28.315 ZM34.592,28.315 C34.592,28.315 33.225,28.315 33.225,28.315 C32.974,28.315 32.770,28.123 32.770,27.887 C32.770,27.887 32.770,26.604 32.770,26.604 C32.770,26.369 32.974,26.177 33.225,26.177 C33.225,26.177 34.592,26.177 34.592,26.177 C34.844,26.177 35.048,26.369 35.048,26.604 C35.048,26.604 35.048,27.887 35.048,27.887 C35.048,28.123 34.844,28.315 34.592,28.315 ZM30.947,28.315 C30.947,28.315 29.580,28.315 29.580,28.315 C29.328,28.315 29.124,28.123 29.124,27.887 C29.124,27.887 29.124,26.604 29.124,26.604 C29.124,26.369 29.328,26.177 29.580,26.177 C29.580,26.177 30.947,26.177 30.947,26.177 C31.198,26.177 31.402,26.369 31.402,26.604 C31.402,26.604 31.402,27.887 31.402,27.887 C31.402,28.123 31.198,28.315 30.947,28.315 ZM29.575,30.454 C29.575,30.454 37.331,30.454 37.331,30.454 C37.580,30.454 37.782,30.643 37.782,30.878 C37.782,30.878 37.782,30.885 37.782,30.885 C37.782,31.120 37.580,31.309 37.331,31.309 C37.331,31.309 29.575,31.309 29.575,31.309 C29.326,31.309 29.124,31.120 29.124,30.885 C29.124,30.885 29.124,30.878 29.124,30.878 C29.124,30.643 29.326,30.454 29.575,30.454 Z" id="path-1" class="cls-4" fill-rule="evenodd"/>
  </g>
</svg>
