<svg xmlns="http://www.w3.org/2000/svg" xmlns:xlink="http://www.w3.org/1999/xlink" preserveAspectRatio="xMidYMid" width="16" height="16" viewBox="0 0 16 16">
  <defs>
    <style>

      .cls-2 {
        fill: #000000;
        filter: url(#color-overlay-1);
      }
    </style>

    <filter id="color-overlay-1" filterUnits="userSpaceOnUse">
      <feFlood flood-color="#555555" flood-opacity="1"/>
      <feComposite operator="in" in2="SourceGraphic"/>
      <feBlend mode="normal" in2="SourceGraphic" result="colorOverlay"/>
    </filter>
  </defs>
  <path d="M13.000,-0.001 C13.000,-0.001 3.000,-0.001 3.000,-0.001 C1.343,-0.001 -0.000,1.342 -0.000,2.999 C-0.000,2.999 -0.000,12.999 -0.000,12.999 C-0.000,14.656 1.343,15.999 3.000,15.999 C3.000,15.999 13.000,15.999 13.000,15.999 C14.657,15.999 16.000,14.656 16.000,12.999 C16.000,12.999 16.000,2.999 16.000,2.999 C16.000,1.342 14.657,-0.001 13.000,-0.001 ZM4.315,12.976 C3.596,12.976 3.012,12.396 3.012,11.677 C3.012,10.963 3.596,10.376 4.315,10.376 C5.036,10.376 5.619,10.963 5.620,11.677 C5.620,12.396 5.037,12.976 4.315,12.976 ZM7.589,12.988 C7.589,11.760 7.112,10.606 6.248,9.744 C5.384,8.878 4.235,8.400 3.014,8.400 C3.014,8.400 3.014,6.524 3.014,6.524 C6.575,6.524 9.475,9.423 9.475,12.988 C9.475,12.988 7.589,12.988 7.589,12.988 ZM10.918,12.985 C10.918,8.624 7.373,5.075 3.016,5.075 C3.016,5.075 3.016,3.200 3.016,3.200 C8.410,3.200 12.800,7.591 12.800,12.985 C12.800,12.985 10.918,12.985 10.918,12.985 Z" id="path-1" class="cls-2" fill-rule="evenodd"/>
</svg>
