<svg xmlns="http://www.w3.org/2000/svg" xmlns:xlink="http://www.w3.org/1999/xlink" preserveAspectRatio="xMidYMid" width="16" height="16" viewBox="0 0 16 16">
  <defs>
    <style>

      .cls-2 {
        fill: #000000;
        filter: url(#color-overlay-1);
      }
    </style>

    <filter id="color-overlay-1" filterUnits="userSpaceOnUse">
      <feFlood flood-color="#555555" flood-opacity="1"/>
      <feComposite operator="in" in2="SourceGraphic"/>
      <feBlend mode="normal" in2="SourceGraphic" result="colorOverlay"/>
    </filter>
  </defs>
  <path d="M13.000,-0.001 C13.000,-0.001 3.000,-0.001 3.000,-0.001 C1.343,-0.001 -0.000,1.342 -0.000,2.999 C-0.000,2.999 -0.000,12.999 -0.000,12.999 C-0.000,14.656 1.343,15.999 3.000,15.999 C3.000,15.999 13.000,15.999 13.000,15.999 C14.657,15.999 16.000,14.656 16.000,12.999 C16.000,12.999 16.000,2.999 16.000,2.999 C16.000,1.342 14.657,-0.001 13.000,-0.001 ZM10.999,7.399 C10.999,7.399 8.599,7.399 8.599,7.399 C8.599,7.399 8.599,9.595 8.599,9.595 C8.599,10.152 8.592,10.472 8.650,10.630 C8.710,10.787 8.855,10.950 9.015,11.045 C9.228,11.172 9.471,11.235 9.744,11.235 C10.230,11.235 10.518,11.171 10.998,10.855 C10.998,10.855 10.998,12.299 10.998,12.299 C10.588,12.492 10.230,12.604 9.898,12.683 C9.566,12.760 9.207,12.799 8.820,12.799 C8.381,12.799 8.122,12.744 7.785,12.633 C7.448,12.523 7.160,12.364 6.922,12.159 C6.683,11.954 6.519,11.736 6.426,11.504 C6.334,11.273 6.288,10.938 6.288,10.499 C6.288,10.499 6.288,7.133 6.288,7.133 C6.288,7.133 5.001,7.133 5.001,7.133 C5.001,7.133 5.001,5.773 5.001,5.773 C5.378,5.651 5.800,5.475 6.068,5.246 C6.337,5.017 6.553,4.744 6.716,4.422 C6.878,4.103 6.990,3.694 7.052,3.200 C7.052,3.200 8.599,3.200 8.599,3.200 C8.599,3.200 8.599,5.599 8.599,5.599 C8.599,5.599 10.999,5.599 10.999,5.599 C10.999,5.599 10.999,7.399 10.999,7.399 Z" id="path-1" class="cls-2" fill-rule="evenodd"/>
</svg>
