<svg xmlns="http://www.w3.org/2000/svg" xmlns:xlink="http://www.w3.org/1999/xlink" preserveAspectRatio="xMidYMid" width="16" height="16" viewBox="0 0 16 16">
  <defs>
    <style>

      .cls-2 {
        fill: #000000;
        filter: url(#color-overlay-1);
      }
    </style>

    <filter id="color-overlay-1" filterUnits="userSpaceOnUse">
      <feFlood flood-color="#e5493a" flood-opacity="1"/>
      <feComposite operator="in" in2="SourceGraphic"/>
      <feBlend mode="normal" in2="SourceGraphic" result="colorOverlay"/>
    </filter>
  </defs>
  <path d="M13.000,-0.001 C13.000,-0.001 3.000,-0.001 3.000,-0.001 C1.343,-0.001 -0.000,1.342 -0.000,2.999 C-0.000,2.999 -0.000,12.999 -0.000,12.999 C-0.000,14.656 1.343,15.999 3.000,15.999 C3.000,15.999 13.000,15.999 13.000,15.999 C14.657,15.999 16.000,14.656 16.000,12.999 C16.000,12.999 16.000,2.999 16.000,2.999 C16.000,1.342 14.657,-0.001 13.000,-0.001 ZM11.980,6.203 C11.980,6.203 11.986,6.458 11.986,6.458 C11.986,9.062 10.005,12.062 6.382,12.062 C5.270,12.062 4.235,11.736 3.363,11.177 C3.517,11.194 3.674,11.205 3.833,11.205 C4.756,11.205 5.605,10.890 6.279,10.362 C5.417,10.347 4.690,9.777 4.439,8.994 C4.560,9.017 4.682,9.029 4.810,9.029 C4.990,9.029 5.164,9.005 5.329,8.960 C4.428,8.779 3.749,7.983 3.749,7.029 C3.749,7.029 3.749,7.004 3.749,7.004 C4.015,7.152 4.318,7.241 4.641,7.252 C4.113,6.899 3.765,6.295 3.765,5.612 C3.765,5.251 3.862,4.914 4.031,4.622 C5.002,5.814 6.454,6.598 8.091,6.681 C8.057,6.536 8.040,6.385 8.040,6.231 C8.040,5.144 8.922,4.263 10.010,4.263 C10.576,4.263 11.088,4.501 11.448,4.884 C11.896,4.795 12.318,4.631 12.699,4.407 C12.552,4.866 12.240,5.252 11.833,5.496 C12.230,5.450 12.611,5.342 12.964,5.186 C12.700,5.581 12.365,5.928 11.980,6.203 Z" id="path-1" class="cls-2" fill-rule="evenodd"/>
</svg>
