<?xml version="1.0" encoding="UTF-8" standalone="no"?>
<!-- Created with Inkscape (http://www.inkscape.org/) -->

<svg
   xmlns:dc="http://purl.org/dc/elements/1.1/"
   xmlns:cc="http://creativecommons.org/ns#"
   xmlns:rdf="http://www.w3.org/1999/02/22-rdf-syntax-ns#"
   xmlns:svg="http://www.w3.org/2000/svg"
   xmlns="http://www.w3.org/2000/svg"
   xmlns:sodipodi="http://sodipodi.sourceforge.net/DTD/sodipodi-0.dtd"
   xmlns:inkscape="http://www.inkscape.org/namespaces/inkscape"
   version="1.1"
   id="svg40"
   width="62.666668"
   height="81.333336"
   viewBox="0 0 62.666668 81.333336"
   sodipodi:docname="Icon-Graphi.svg"
   inkscape:version="0.92.2 (5c3e80d, 2017-08-06)">
  <metadata
     id="metadata46">
    <rdf:RDF>
      <cc:Work
         rdf:about="">
        <dc:format>image/svg+xml</dc:format>
        <dc:type
           rdf:resource="http://purl.org/dc/dcmitype/StillImage" />
        <dc:title></dc:title>
      </cc:Work>
    </rdf:RDF>
  </metadata>
  <defs
     id="defs44" />
  <sodipodi:namedview
     pagecolor="#ffffff"
     bordercolor="#666666"
     borderopacity="1"
     objecttolerance="10"
     gridtolerance="10"
     guidetolerance="10"
     inkscape:pageopacity="0"
     inkscape:pageshadow="2"
     inkscape:window-width="1366"
     inkscape:window-height="705"
     id="namedview42"
     showgrid="false"
     inkscape:zoom="2.9016393"
     inkscape:cx="31.333334"
     inkscape:cy="40.666668"
     inkscape:window-x="-8"
     inkscape:window-y="-8"
     inkscape:window-maximized="1"
     inkscape:current-layer="svg40" />
  <path
     style="fill:#656565;stroke-width:1.33333337"
     d="M 6.2796467,77.788511 C 4.5210907,75.104616 4.2087937,70.894628 4.4745977,53.455177 4.6737227,40.390545 4.2529187,31.352648 3.3685827,29.700566 1.6209057,26.435619 -0.29914833,14.367232 0.92908367,14.367232 c 0.48797903,0 3.21162103,1.337746 6.05253903,2.972772 3.8143983,2.195288 6.1501173,5.037463 8.9308243,10.867296 l 3.76552,7.894526 0.666666,-17.200631 0.666667,-17.20063 9,-0.3942533 9,-0.39425315 0.04161,16.39425345 0.04161,16.394254 3.341477,-5.333334 c 2.352143,-3.754255 3.128946,-6.470373 2.623651,-9.173684 -0.474712,-2.539696 0.191163,-5.311127 1.966083,-8.183007 1.476149,-2.3884611 2.312588,-5.3103035 1.858752,-6.492983 -1.38708,-3.61467275 4.271942,-2.5672963 7.363372,1.3628187 3.874971,4.9262283 3.630209,11.8108903 -0.557888,15.6922883 -4.326127,4.009319 -7.278503,11.209758 -6.425635,15.671245 0.52826,2.763413 1.666291,3.728215 5.173769,4.386221 8.166315,1.53201 11.163529,10.417735 5.809754,17.223957 -1.861037,2.365927 -4.03804,3.513145 -6.666667,3.513145 -3.828576,0 -3.903227,0.1363 -3.903227,7.126683 0,10.952777 -1.174125,11.539985 -23.074251,11.539985 -17.8079733,0 -18.2431393,-0.06949 -20.3240693,-3.24539 z M 45.411301,76.767234 c 1.089854,-1.089855 1.6,-7.466667 1.6,-20.000001 v -18.4 H 27.0113 7.0112997 v 18.4 c 0,12.533334 0.510145,18.910146 1.6,20.000001 2.2168423,2.216841 34.5831593,2.216841 36.8000013,0 z M 58.249396,57.605328 c 4.80365,-4.80365 0.74461,-13.904762 -6.201437,-13.904762 -2.007768,0 -2.369992,1.222701 -2.369992,8 0,7.581701 0.169312,8.000001 3.238095,8.000001 1.780953,0 4.180954,-0.942858 5.333334,-2.095239 z M 16.344633,34.980782 c 0,-0.395882 -1.218038,-3.107338 -2.706753,-6.025459 -2.356776,-4.619663 -3.046363,-5.12392 -5.3333333,-3.899971 -3.044963,1.629615 -3.191422,2.613379 -1.079227,7.249143 1.129311,2.478567 2.570198,3.396071 5.3333333,3.396071 2.08229,0 3.78598,-0.323903 3.78598,-0.719784 z m 20.000001,-1.854148 c 0,-1.605519 -1.128716,-2.795964 -3,-3.164068 l -3,-0.590135 3,-0.991441 c 1.698238,-0.561235 3,-2.081085 3,-3.502599 0,-1.912054 -0.973083,-2.511159 -4.07869,-2.511159 -2.379601,0 -3.73541,-0.555436 -3.254644,-1.333333 0.453226,-0.733334 2.288635,-1.333334 4.07869,-1.333334 4.088293,0 4.27733,-2.280022 0.254644,-3.071333 l -3,-0.590135 3,-0.991441 c 4.312944,-1.425343 3.693609,-3.347091 -1.07869,-3.347091 -2.379601,0 -3.73541,-0.555436 -3.254644,-1.333333 0.453226,-0.7333334 2.288635,-1.3333334 4.07869,-1.3333334 2.365754,0 3.254644,-0.7283041 3.254644,-2.6666668 0,-2.3111111 -0.88889,-2.6666667 -6.666667,-2.6666667 H 23.0113 V 19.700565 35.700566 h 6.666667 c 5.697715,0 6.666667,-0.374103 6.666667,-2.573932 z m 11.204109,-3.652178 c 1.166798,-3.42436 1.920192,-6.427367 1.674211,-6.673348 -0.24598,-0.24598 -2.081679,2.555769 -4.079328,6.22611 -2.780099,5.107957 -3.172824,6.673348 -1.674211,6.673348 1.13922,0 2.844934,-2.603359 4.079328,-6.22611 z M 7.5916187,20.894185 c -1.163488,-1.882564 -3.246986,-1.391985 -3.246986,0.764534 0,1.189445 0.782129,1.658022 1.992342,1.19362 1.095788,-0.420494 1.660378,-1.301662 1.254644,-1.958154 z M 55.535316,17.591516 c 1.284508,-3.347375 0.950648,-6.521326 -0.960951,-9.1355925 -1.64186,-2.2453781 -1.985347,-2.056457 -4.735382,2.6045035 -1.630812,2.76402 -2.653021,5.838786 -2.271577,6.832814 0.960337,2.502602 6.979251,2.274679 7.96791,-0.301725 z"
     id="path50"
     inkscape:connector-curvature="0" />
</svg>
