<svg height="16" viewBox="0 0 512 512" width="16" xmlns="http://www.w3.org/2000/svg"><path d="M294.488 127.433V0l170.799 170.802H337.856c-23.913 0-43.368-19.456-43.368-43.369zm170.799 63.385V512H46.713V0h227.759v127.433c0 34.951 28.434 63.386 63.385 63.386h127.43zM80.773 66.912c0 5.527 4.482 10.01 10.01 10.01h144.679c5.523 0 10.007-4.483 10.007-10.01 0-5.525-4.483-10.008-10.007-10.008H90.783c-5.527 0-10.01 4.483-10.01 10.008zm0 94.546c0 5.527 4.482 10.01 10.01 10.01h144.679c5.523 0 10.007-4.483 10.007-10.01 0-5.525-4.483-10.006-10.007-10.006H90.783c-5.527-.001-10.01 4.481-10.01 10.006zm350.463 283.636c0-5.523-4.483-10.006-10.01-10.006H90.783c-5.527 0-10.01 4.483-10.01 10.006 0 5.527 4.482 10.01 10.01 10.01h330.443c5.527 0 10.01-4.483 10.01-10.01zm0-94.546c0-5.523-4.483-10.006-10.01-10.006H90.783c-5.527 0-10.01 4.483-10.01 10.006 0 5.527 4.482 10.01 10.01 10.01h330.443c5.527 0 10.01-4.483 10.01-10.01zm0-94.545c0-5.523-4.483-10.006-10.01-10.006H90.783c-5.527 0-10.01 4.483-10.01 10.006 0 5.527 4.482 10.01 10.01 10.01h330.443c5.527 0 10.01-4.483 10.01-10.01z" fill="#7F7F7F"/></svg>