<svg xmlns="http://www.w3.org/2000/svg" preserveAspectRatio="xMidYMid" width="15" height="24" viewBox="0 0 15 24"><defs><style>.cls-2{fill:#252525}</style></defs><path d="M14.626 15.277a.73.73 0 0 1-.732.726.729.729 0 0 1-.731-.726l-.001-.009h-.043a5.818 5.818 0 0 0-5.691-5.095c-.032 0-.062.009-.094.009s-.062-.009-.093-.009a5.817 5.817 0 0 0-5.691 5.095h-.041v.009a.728.728 0 0 1-.731.726.728.728 0 0 1-.731-.726l-.007-.068a.71.71 0 0 1 .09-.33 7.267 7.267 0 0 1 4.315-5.585 5.075 5.075 0 0 1-2.239-4.205c0-2.813 2.296-5.094 5.128-5.094 2.832 0 5.128 2.281 5.128 5.094a5.076 5.076 0 0 1-2.238 4.204 7.265 7.265 0 0 1 4.321 5.61.704.704 0 0 1 .074.306l.007.068zM10.996 5.09c0-2.009-1.64-3.638-3.663-3.638-2.023 0-3.663 1.629-3.663 3.638 0 2.01 1.64 3.638 3.663 3.638 2.023 0 3.663-1.628 3.663-3.638z" id="path-1" class="cls-2" fill-rule="evenodd"/></svg>