<svg xmlns="http://www.w3.org/2000/svg" width="48" height="42" viewBox="0 0 48 42"><path d="M37.175 37.532C31.929 27.293 32.98 9.768 39.299 2.081c2.083-2.534 2.794-2.598 5.96-.54 3.097 2.015 3.29 2.93 1.4 6.619-1.206 2.354-3.455 4.28-4.999 4.28-4.563 0-3.899 15.768.758 17.985 4.707 2.24 6.82 8.239 3.55 10.081-4.233 2.386-6.428 1.644-8.793-2.974zm-20.453-8.688c0-.902 2.49-1.64 5.533-1.64s5.533.738 5.533 1.64c0 .902-2.49 1.64-5.533 1.64s-5.533-.738-5.533-1.64zm-9.221-8.202c0-.902 4.564-1.64 10.143-1.64 5.58 0 10.144.738 10.144 1.64 0 .902-4.564 1.64-10.144 1.64-5.579 0-10.143-.738-10.143-1.64zM.123 12.44c0-.948 5.84-1.64 13.833-1.64 7.992 0 13.832.692 13.832 1.64s-5.84 1.64-13.832 1.64c-7.992 0-13.833-.692-13.833-1.64z"/></svg>