<?xml version="1.0" encoding="UTF-8" standalone="no"?>
<!-- Created with Inkscape (http://www.inkscape.org/) -->

<svg
   xmlns:dc="http://purl.org/dc/elements/1.1/"
   xmlns:cc="http://creativecommons.org/ns#"
   xmlns:rdf="http://www.w3.org/1999/02/22-rdf-syntax-ns#"
   xmlns:svg="http://www.w3.org/2000/svg"
   xmlns="http://www.w3.org/2000/svg"
   xmlns:sodipodi="http://sodipodi.sourceforge.net/DTD/sodipodi-0.dtd"
   xmlns:inkscape="http://www.inkscape.org/namespaces/inkscape"
   version="1.1"
   id="svg3809"
   width="48"
   height="81.333336"
   viewBox="0 0 48 81.333336"
   sodipodi:docname="icon-mobile.svg"
   inkscape:version="0.92.2 (5c3e80d, 2017-08-06)">


  <path
     d="M 2.5512826,78.59558 C 0.61708759,76.458319 0.34463259,71.877476 0.34463259,41.494664 c 0,-43.5632902 -1.84971599,-40.4607657 24.12259341,-40.4607657 26.110304,0 23.877407,-3.7850792 23.877407,40.4756077 0,26.47453 -0.433863,36.758258 -1.6,37.924396 -1.103584,1.103584 -7.865189,1.6 -21.793349,1.6 -17.8696684,0 -20.4472744,-0.280582 -22.4000014,-2.438322 z M 45.171881,76.376911 c 1.067033,-1.461346 1.767416,-3.861346 1.556407,-5.333334 C 46.362448,68.491509 45.354029,68.367235 25.0113,68.367235 H 3.6779656 v 3.960622 c 0,6.297075 3.952649,7.507339 23.1102604,7.076149 14.642202,-0.329559 16.656127,-0.661178 18.383655,-3.027095 z M 21.237656,75.142983 c -1.00925,-2.630064 2.585994,-6.225308 5.216058,-5.216059 1.149523,0.441113 1.856542,2.008816 1.628082,3.610015 -0.483336,3.38753 -5.691535,4.609685 -6.84414,1.606044 z M 46.344633,41.437986 V 17.700566 H 25.0113 3.6779656 l -0.36686,22.617708 c -0.201774,12.439737 -0.128234,23.239738 0.163423,24 0.341208,0.889427 8.0785754,1.288668 21.7001954,1.119712 L 46.344633,65.175405 Z M 47.0113,11.99724 c 0,-1.303495 -0.934023,-3.7034952 -2.075606,-5.3333332 -1.968909,-2.8110121 -2.992108,-2.9633417 -19.904761,-2.9633417 -19.3659624,0 -22.0196334,0.8952457 -22.0196334,7.4285709 v 3.238096 H 25.0113 c 20.193126,0 22,-0.194649 22,-2.369992 z m -32,-1.630008 c 0,-0.7703705 4.222222,-1.3333334 10,-1.3333334 5.777777,0 10,0.5629629 10,1.3333334 0,0.77037 -4.222223,1.333333 -10,1.333333 -5.777778,0 -10,-0.562963 -10,-1.333333 z"
     id="path3819"
     inkscape:connector-curvature="0" />
</svg>
