<?xml version="1.0" encoding="UTF-8" standalone="no"?>
<!-- Created with Inkscape (http://www.inkscape.org/) -->

<svg
   xmlns:dc="http://purl.org/dc/elements/1.1/"
   xmlns:cc="http://creativecommons.org/ns#"
   xmlns:rdf="http://www.w3.org/1999/02/22-rdf-syntax-ns#"
   xmlns:svg="http://www.w3.org/2000/svg"
   xmlns="http://www.w3.org/2000/svg"
   xmlns:sodipodi="http://sodipodi.sourceforge.net/DTD/sodipodi-0.dtd"
   xmlns:inkscape="http://www.inkscape.org/namespaces/inkscape"
   version="1.1"
   id="svg3833"
   width="80"
   height="80"
   viewBox="0 0 80 80"
   sodipodi:docname="icon-team.svg"
   inkscape:version="0.92.2 (5c3e80d, 2017-08-06)">

  <path
     d="M 21.679351,79.201555 C 0.03747153,75.594211 -6.7184885,64.216684 8.6133815,57.19752 15.61272,53.993118 31.083769,51.144463 28.921884,53.458156 28.32892,54.092758 24.251744,55.344686 19.861492,56.240218 9.4895515,58.355907 2.3803415,62.662392 2.9273915,66.498251 3.8009815,72.623699 21.149328,78.0113 40,78.0113 c 18.850672,0 36.199023,-5.387601 37.072604,-11.513049 0.547052,-3.835859 -6.562151,-8.142344 -16.934096,-10.258033 -10.283783,-2.097707 -12.301704,-4.180392 -3.035607,-3.133034 10.054544,1.136479 21.243812,6.498412 22.29419,10.683448 1.199824,4.78048 -1.163459,8.170472 -7.90511,11.339423 -10.858877,5.104275 -32.838501,6.900808 -49.81263,4.0715 z m 3.241008,-7.904 c -10.304274,-2.591823 -12.563756,-5.449043 -7.752396,-9.803263 2.785948,-2.521248 12.16537,-4.526337 12.16537,-2.600654 0,0.677186 -2.7,1.953389 -6,2.836005 -12.614927,3.373979 -3.33277,7.614991 16.666667,7.614991 13.451105,0 22.666667,-1.96517 22.666667,-4.833546 0,-0.64718 -2.7,-1.89883 -6,-2.781445 -7.16232,-1.915628 -8.045863,-4.399253 -1.167963,-3.283124 5.238147,0.850035 9.834629,4.202439 9.834629,7.1728 0,3.368616 -9.435658,6.08738 -22.666666,6.531109 C 35.7,72.38407 27.714161,72.000276 24.920359,71.297555 Z M 32,57.551284 C 32,51.952146 31.388979,49.880176 29.149312,47.884618 25.387707,44.533 22.666667,37.888275 22.666667,32.054125 v -4.709492 h 16 16 v 4.709492 c 0,5.83415 -2.72104,12.478875 -6.482646,15.830493 -2.239666,1.995558 -2.850688,4.067528 -2.850688,9.666666 v 7.126683 H 38.666667 32 Z m 10.666667,-2.225445 c 0,-5.775072 0.555909,-7.182209 4.082325,-10.333333 2.920104,-2.609338 4.298665,-5.26115 4.842225,-9.314539 l 0.7599,-5.666668 H 38.666667 24.982216 l 0.7599,5.666668 c 0.54356,4.053389 1.922121,6.705201 4.842225,9.314539 3.526416,3.151124 4.082326,4.558261 4.082326,10.333333 0,6.539401 0.08739,6.685461 4,6.685461 3.91261,0 4,-0.14606 4,-6.685461 z M 30.564103,20.78053 c -5.240012,-5.240012 -5.240012,-10.9651165 0,-16.2051285 2.659996,-2.659995 5.232568,-3.89743499 8.102564,-3.89743499 5.735876,0 12,6.26412399 12,12.00000049 0,5.735875 -6.264124,11.999999 -12,11.999999 -2.869996,0 -5.442568,-1.23744 -8.102564,-3.897436 z M 44.914065,19.112214 C 46.611329,17.517717 48,14.790445 48,13.051609 48,9.1431375 42.424692,3.3446325 38.666667,3.3446325 c -3.679026,0 -9.333334,5.76747 -9.333334,9.5201265 0,4.070659 5.07585,9.14654 9.146484,9.14654 1.841572,0 4.736984,-1.304588 6.434248,-2.899085 z"
     id="path3843"
     inkscape:connector-curvature="0" />
</svg>
