<?xml version="1.0" encoding="UTF-8" standalone="no"?>
<!-- Created with Inkscape (http://www.inkscape.org/) -->

<svg
   xmlns:dc="http://purl.org/dc/elements/1.1/"
   xmlns:cc="http://creativecommons.org/ns#"
   xmlns:rdf="http://www.w3.org/1999/02/22-rdf-syntax-ns#"
   xmlns:svg="http://www.w3.org/2000/svg"
   xmlns="http://www.w3.org/2000/svg"
   xmlns:sodipodi="http://sodipodi.sourceforge.net/DTD/sodipodi-0.dtd"
   xmlns:inkscape="http://www.inkscape.org/namespaces/inkscape"
   version="1.1"
   id="svg3797"
   width="66.666664"
   height="81.333336"
   viewBox="0 0 66.666664 81.333336"
   sodipodi:docname="icon-seo.svg"
   inkscape:version="0.92.2 (5c3e80d, 2017-08-06)">


  <path
     d="m 10.907966,77.566976 c 1.776501,-1.478918 5.8265,-3.383399 9,-4.232181 7.648489,-2.045658 7.693506,-5.240149 0.103332,-7.332576 -3.116667,-0.859189 -7.766666,-2.899025 -10.3333327,-4.532968 -2.566666,-1.633944 -5.716666,-2.817699 -6.999996,-2.630567 -3.45367,0.503603 -2.71817,-1.40571 1.972784,-5.121217 4.135385,-3.275467 4.15426,-3.277335 3.384807,-0.334943 -1.436981,5.495027 9.9902707,10.962111 22.9129087,10.962111 19.697745,0 34.865916,-17.209102 33.028488,-37.472585 C 63.065479,16.820098 57.45831,6.4781305 53.586175,7.7070985 c -3.479837,1.1044585 -3.246512,-0.933328 0.511056,-4.46338 3.541148,-3.326736 5.533288,-3.769266 4.467724,-0.992451 -0.402404,1.048649 1.183403,5.398649 3.524016,9.6666665 3.784014,6.900009 4.255658,8.942192 4.255658,18.4267 0,9.341542 -0.49349,11.557692 -3.972377,17.839019 -4.808866,8.682681 -13.152395,15.348514 -22.07333,17.634881 -4.876995,1.249936 -6.620958,2.332907 -6.620958,4.111501 0,1.593614 0.990232,2.4146 2.912368,2.4146 3.564821,0 14.420965,5.108226 14.420965,6.785609 0,0.682298 -9.493381,1.194956 -21.666666,1.170033 L 7.6779653,80.255917 Z m 31.588243,-0.262808 c 0.384504,-0.384504 -2.342304,-1.351362 -6.059573,-2.148574 -6.716784,-1.440492 -20.84635,0.221833 -19.562445,2.301498 0.636756,1.031413 24.580589,0.888505 25.622018,-0.152924 z M 31.011297,68.932613 c 0,-1.143279 -0.6,-1.70787 -1.333333,-1.254644 -0.733333,0.453225 -1.333333,1.388634 -1.333333,2.078689 0,0.690055 0.6,1.254644 1.333333,1.254644 0.733333,0 1.333333,-0.935411 1.333333,-2.078689 z M 17.677965,53.746392 C 11.233869,50.321283 7.4611983,45.955057 5.0563673,39.139036 1.3113593,28.524543 3.3893193,19.615739 11.502526,11.502528 20.416947,2.5881055 30.248612,0.8988665 41.26543,6.3887785 57.488963,14.473308 61.275399,34.265509 49.224315,47.990936 c -2.294246,2.613003 -6.111459,5.56154 -8.482695,6.552307 -6.137504,2.564412 -17.476776,2.17264 -23.063655,-0.796851 z M 40.07751,51.797003 c 1.98025,-1.034531 5.212283,-3.584531 7.182296,-5.666667 C 63.118095,29.369475 46.647547,1.0057475 24.516827,6.9649315 14.375177,9.695795 5.7365313,20.450098 5.7365313,30.344634 c 0,4.830012 3.948309,13.823524 7.4227647,16.907678 7.161481,6.356995 19.471067,8.435264 26.918214,4.544691 z"
     id="path3807"
     inkscape:connector-curvature="0" />
</svg>
