<?xml version="1.0" encoding="UTF-8" standalone="no"?>
<!-- Created with Inkscape (http://www.inkscape.org/) -->

<svg
   xmlns:dc="http://purl.org/dc/elements/1.1/"
   xmlns:cc="http://creativecommons.org/ns#"
   xmlns:rdf="http://www.w3.org/1999/02/22-rdf-syntax-ns#"
   xmlns:svg="http://www.w3.org/2000/svg"
   xmlns="http://www.w3.org/2000/svg"
   xmlns:sodipodi="http://sodipodi.sourceforge.net/DTD/sodipodi-0.dtd"
   xmlns:inkscape="http://www.inkscape.org/namespaces/inkscape"
   version="1.1"
   id="svg3881"
   width="66.666664"
   height="72"
   viewBox="0 0 66.666664 72"
   sodipodi:docname="icon-ab-us.svg"
   inkscape:version="0.92.2 (5c3e80d, 2017-08-06)">

  <path
     d="m 2.8813559e-6,65.283088 c 0,-3.526505 0.7499999986441,-7.433042 1.6666600186441,-8.681193 0.91667,-1.248152 6.16667,-4.015911 11.6666701,-6.150576 11.251322,-4.366875 12.634965,-6.548069 7.541311,-11.888235 -4.472311,-4.688754 -6.207981,-9.634029 -6.207981,-17.687849 0,-11.5233001 6.424387,-19.6963857 16.362697,-20.81657724 7.280304,-0.8205958 13.05473,1.92724984 16.679667,7.93726514 5.546063,9.1951711 4.693776,22.4159531 -1.903742,29.5310801 -5.423696,5.849213 -3.876703,8.505895 7.528046,12.928053 5.5,2.13261 10.75,4.898687 11.666666,6.146839 0.916667,1.248151 1.666667,5.154688 1.666667,8.681193 v 6.411827 H 33.333332 2.8813559e-6 Z M 63.999997,64.967642 c 0,-4.299804 -5.271509,-8.487494 -15.013447,-11.926688 -7.942138,-2.803814 -8.986552,-3.571155 -8.986552,-6.60252 0,-3.228147 -0.392082,-3.429415 -6.662538,-3.420092 -6.230852,0.0092 -6.662806,0.227938 -6.666666,3.374954 -0.0036,2.962991 -1.182747,3.803355 -9.868653,7.03348 C 6.0870929,57.4115 4.6814329,58.51563 3.2959829,64.035707 l -0.9184,3.659208 H 33.188788 c 30.150552,0 30.811209,-0.05848 30.811209,-2.727273 z M 40.648426,36.804382 c 3.367094,-2.648556 7.351572,-9.730546 7.351572,-13.066642 0,-0.756888 -1.433529,-1.376158 -3.185621,-1.376158 -1.752092,0 -4.580631,-1.12961 -6.285641,-2.510244 -2.788084,-2.257654 -3.401525,-2.312692 -6.096359,-0.54697 -1.647985,1.079802 -5.635114,2.003168 -8.860286,2.051924 -5.863814,0.08865 -5.863928,0.08875 -4.92654,4.245003 2.804745,12.435876 13.507662,17.885423 22.002875,11.203087 z M 28.665999,16.259848 c 2.199632,-1.146916 4.51452,-3.005893 5.144194,-4.131059 0.953819,-1.70438 1.775742,-1.355033 4.925507,2.093518 2.079353,2.276601 4.983253,4.139275 6.453112,4.139275 2.388539,0 2.524782,-0.42365 1.282387,-3.987587 C 42.049416,1.6896585 26.62945,0.16416246 20.604562,11.815011 c -3.374848,6.526236 0.24343,8.521248 8.061437,4.444837 z"
     id="path3891"
     inkscape:connector-curvature="0" />
</svg>
