<?xml version="1.0" encoding="UTF-8" standalone="no"?>
<!-- Created with Inkscape (http://www.inkscape.org/) -->

<svg
   xmlns:dc="http://purl.org/dc/elements/1.1/"
   xmlns:cc="http://creativecommons.org/ns#"
   xmlns:rdf="http://www.w3.org/1999/02/22-rdf-syntax-ns#"
   xmlns:svg="http://www.w3.org/2000/svg"
   xmlns="http://www.w3.org/2000/svg"
   xmlns:sodipodi="http://sodipodi.sourceforge.net/DTD/sodipodi-0.dtd"
   xmlns:inkscape="http://www.inkscape.org/namespaces/inkscape"
   version="1.1"
   id="svg52"
   width="77.333336"
   height="78.666664"
   viewBox="0 0 77.333336 78.666664"
   sodipodi:docname="icon-web.svg"
   inkscape:version="0.92.2 (5c3e80d, 2017-08-06)">


  <path
     d="m -1.3e-6,71.333331 c 0,-5.777777 0.35556,-6.666666 2.66667,-6.666666 2.5731,0 2.66666,-0.888889 2.66666,-25.333333 C 5.3333287,14.888889 5.2397287,14 2.6666687,14 0.3555587,14 -1.3e-6,13.111111 -1.3e-6,7.3333327 v -6.666666 h 6.66667 c 5.7777803,0 6.6666703,0.355555 6.6666703,2.666667 0,2.573099 0.88888,2.666666 25.33333,2.666666 24.444444,0 25.333333,-0.09357 25.333333,-2.666666 0,-2.311112 0.88889,-2.666667 6.666667,-2.666667 h 6.666667 v 6.666666 C 77.333336,13.111111 76.97778,14 74.666669,14 c -2.5731,0 -2.666667,0.888889 -2.666667,25.333332 0,24.444444 0.09356,25.333333 2.666667,25.333333 2.311111,0 2.666667,0.888889 2.666667,6.666666 v 6.666667 h -6.666667 c -5.777777,0 -6.666667,-0.355556 -6.666667,-2.666667 0,-2.5731 -0.888889,-2.666666 -25.333333,-2.666666 -24.44445,0 -25.33333,0.09356 -25.33333,2.666666 0,2.311111 -0.88889,2.666667 -6.6666703,2.666667 H -1.3e-6 Z m 10.6666703,0 c 0,-3.555556 -0.44445,-4 -4.0000003,-4 -3.55556,0 -4,0.444444 -4,4 0,3.555556 0.44444,4 4,4 3.5555503,0 4.0000003,-0.444444 4.0000003,-4 z m 64,0 c 0,-3.555556 -0.444444,-4 -4,-4 -3.555556,0 -4,0.444444 -4,4 0,3.555556 0.444444,4 4,4 3.555556,0 4,-0.444444 4,-4 z m -10.666667,-4 c 0,-1.777777 0.88889,-2.666666 2.666667,-2.666666 2.5731,0 2.666667,-0.888889 2.666667,-25.333333 C 69.333336,14.888889 69.239766,14 66.666669,14 c -1.777777,0 -2.666667,-0.888889 -2.666667,-2.666667 0,-2.573099 -0.888889,-2.666666 -25.333333,-2.666666 -24.44445,0 -25.33333,0.09357 -25.33333,2.666666 0,1.777778 -0.88889,2.666667 -2.66667,2.666667 -2.5731,0 -2.6666703,0.888889 -2.6666703,25.333332 0,24.444444 0.0936,25.333333 2.6666703,25.333333 1.77778,0 2.66667,0.888889 2.66667,2.666666 0,2.5731 0.88888,2.666667 25.33333,2.666667 24.444444,0 25.333333,-0.09356 25.333333,-2.666667 z M 10.666669,7.3333327 c 0,-3.555555 -0.44445,-3.999999 -4.0000003,-3.999999 -3.55556,0 -4,0.444444 -4,3.999999 0,3.5555563 0.44444,4.0000003 4,4.0000003 3.5555503,0 4.0000003,-0.444444 4.0000003,-4.0000003 z m 64,0 c 0,-3.555555 -0.444444,-3.999999 -4,-3.999999 -3.555556,0 -4,0.444444 -4,3.999999 0,3.5555563 0.444444,4.0000003 4,4.0000003 3.555556,0 4,-0.444444 4,-4.0000003 z"
     id="path62"
     inkscape:connector-curvature="0" />
</svg>
