<?xml version="1.0" encoding="UTF-8" standalone="no"?>
<!-- Created with Inkscape (http://www.inkscape.org/) -->

<svg
   xmlns:dc="http://purl.org/dc/elements/1.1/"
   xmlns:cc="http://creativecommons.org/ns#"
   xmlns:rdf="http://www.w3.org/1999/02/22-rdf-syntax-ns#"
   xmlns:svg="http://www.w3.org/2000/svg"
   xmlns="http://www.w3.org/2000/svg"
   xmlns:sodipodi="http://sodipodi.sourceforge.net/DTD/sodipodi-0.dtd"
   xmlns:inkscape="http://www.inkscape.org/namespaces/inkscape"
   version="1.1"
   id="svg3785"
   width="82.666664"
   height="80"
   viewBox="0 0 82.666664 80"
   sodipodi:docname="icon-services.svg"
   inkscape:version="0.92.2 (5c3e80d, 2017-08-06)">


  <path
     d="m 3.3389876,79.443684 c -3.38969997,-0.704497 -4.03622997,-4.124092 -1,-5.2892 1.43979,-0.5525 2,-2.806162 2,-8.045808 0,-11.2882 1.09873,-12.43636 11.9010324,-12.43636 h 9.140546 l 0.902345,-5 c 0.496291,-2.75 1.311935,-13.760788 1.812542,-24.468418 0.626333,-13.396803 1.480894,-20.1539866 2.740122,-21.6666676 1.573488,-1.89019496 5.132931,-2.19824696 25.4,-2.19824696 16.5545,0 24.046308,0.476236 25.170072,1.59999996 0.88,0.88 1.6,4.48 1.6,8 0,5.9959526 -0.217867,6.3999996 -3.450968,6.3999996 H 76.10371 l 0.313084,13.666667 c 0.319771,13.958529 -1.861507,32.778558 -4.361492,37.63091 -3.174353,6.161264 -5.26839,7.36909 -12.775981,7.36909 -5.183853,0 -7.770062,0.625034 -8.882801,2.146794 -1.307216,1.787726 -5.122993,2.211018 -22.813655,2.53077 C 15.898729,79.8944 4.9889876,79.786612 3.3389876,79.443684 Z M 46.165267,72.00565 c 1.669736,-6.2306 0.94211,-12.792266 -1.492952,-13.463308 -1.283333,-0.353654 -9.533333,-0.244087 -18.333333,0.243484 l -15.999994,0.88649 v 7.661826 7.661824 l 17.511153,0.0048 c 17.034519,0.0047 17.533041,-0.07681 18.315126,-2.995159 z m 9.06961,-7.65924 c -0.60774,-6.372751 -2.895896,-5.789686 -2.895896,0.737929 0,2.832152 0.65132,4.587977 1.701902,4.587977 1.181036,0 1.546456,-1.629988 1.193994,-5.325906 z m 10.991736,2.992573 c 2.454209,-7.801757 3.838552,-19.662155 4.591202,-39.335256 l 0.854499,-22.3352556 -14,-0.264266 c -15.931908,-0.300733 -21.325745,-0.183921 -21.985805,0.476139 -0.25335,0.25335 -0.754,8.8601866 -1.112559,19.1263036 -0.358559,10.266118 -1.244923,20.915668 -1.969699,23.665668 l -1.317773,5 h 12.431013 c 14.345971,0 16.62149,1.26037 16.62149,9.20635 0,2.75873 0.4,5.415873 0.888889,5.904761 1.654464,1.654464 4.260832,0.901324 4.998743,-1.444444 z M 39.923008,47.362766 c -6.240445,-0.648207 -5.928227,-3.348864 0.521962,-4.514928 4.072788,-0.736278 4.168426,-0.843255 0.894012,-1 -2.21324,-0.105947 -3.666667,-0.933194 -3.666667,-2.086959 0,-1.061659 1.630109,-2.158377 3.666667,-2.466891 l 3.666666,-0.555453 -3.666666,-0.199776 c -4.831694,-0.263252 -4.831694,-3.846163 0,-4.578104 l 3.666666,-0.555453 -3.666666,-0.199776 c -4.662755,-0.254047 -5.0932,-4.199776 -0.45816,-4.199776 2.573445,0 3.067665,-0.53858 2.496936,-2.721054 -0.682135,-2.60849 -0.222556,-2.705013 11.109822,-2.333333 10.015904,0.328504 11.889526,0.744092 12.267496,2.721053 0.283012,1.480286 -0.38051,2.333334 -1.814923,2.333334 -1.740319,0 -1.919029,0.41208 -0.776,1.789345 0.816764,0.98414 1.090231,2.18414 0.607704,2.666667 -0.482527,0.482526 -0.17732,0.877321 0.678235,0.877321 0.855556,0 1.555556,1.2 1.555556,2.666667 0,1.870493 -0.895695,2.672762 -3,2.687084 -1.660866,0.01133 -2.37633,0.457681 -1.602822,1 0.76845,0.53877 1.52798,2.929582 1.687847,5.312916 l 0.290667,4.333333 -9.687847,-0.224137 C 49.365179,47.99157 42.71846,47.653134 39.923008,47.362766 Z m 2.08264,-29.298094 c -1.65,-0.317804 -3,-1.436094 -3,-2.48509 0,-1.371574 1.685214,-1.907266 6,-1.907266 5.111111,0 6,0.395062 6,2.666667 0,2.71326 -1.940684,3.085373 -9,1.725689 z M 77.222022,6.6723164 c -0.369884,-0.916667 -0.672515,-0.166667 -0.672515,1.666667 0,1.8333326 0.302631,2.5833326 0.672515,1.6666656 0.369883,-0.9166656 0.369883,-2.4166656 0,-3.3333326 z"
     id="path3795"
     inkscape:connector-curvature="0" />
</svg>
