<?xml version="1.0" encoding="UTF-8" standalone="no"?>
<!-- Created with Inkscape (http://www.inkscape.org/) -->

<svg
   xmlns:dc="http://purl.org/dc/elements/1.1/"
   xmlns:cc="http://creativecommons.org/ns#"
   xmlns:rdf="http://www.w3.org/1999/02/22-rdf-syntax-ns#"
   xmlns:svg="http://www.w3.org/2000/svg"
   xmlns="http://www.w3.org/2000/svg"
   xmlns:sodipodi="http://sodipodi.sourceforge.net/DTD/sodipodi-0.dtd"
   xmlns:inkscape="http://www.inkscape.org/namespaces/inkscape"
   version="1.1"
   id="svg3869"
   width="50.666668"
   height="48"
   viewBox="0 0 50.666668 48"
   sodipodi:docname="icon-address.svg"
   inkscape:version="0.92.2 (5c3e80d, 2017-08-06)">

  <path
     d="m 5.8181457,36.440935 c 0.2591,-7.77416 0.930978,-11.739828 2.051911,-12.111112 1.235345,-0.409179 1.666667,2.064642 1.666667,9.559066 V 44 h 4.0000003 c 3.959596,0 4,-0.07408 4,-7.333333 v -7.333334 h 8 8 v 7.333334 c 0,7.259258 0.0404,7.333333 4,7.333333 h 4 V 33.888889 c 0,-7.494424 0.431323,-9.968245 1.666667,-9.559066 1.120932,0.371284 1.792811,4.336952 2.051911,12.111112 L 45.640546,48 h -8.051911 -8.051911 v -7.333333 c 0,-7.259259 -0.0404,-7.333334 -4,-7.333334 -3.959596,0 -4,0.07408 -4,7.333334 V 48 H 13.484813 5.4329027 Z M 0.20338969,24.972201 C 0.20338969,22.534121 23.187452,2.7118645e-8 25.674212,2.7118645e-8 26.820816,2.7118645e-8 28.172947,0.41400113 28.678948,0.92000243 29.184949,1.4260037 32.631927,1.6790269 36.338898,1.4822763 l 6.739945,-0.3577284 -0.359721,6.7774846 c -0.321291,6.0534225 0.09489,7.2465245 3.895608,11.1678685 3.989779,4.116407 5.493248,7.596766 3.281705,7.596766 -0.535493,0 -6.235493,-5.237491 -12.666667,-11.638868 L 25.536724,3.3889315 13.84368,15.027799 C 2.0958397,26.721209 0.20338969,28.100892 0.20338969,24.972201 Z M 38.870058,8.1554363 c 0,-1.6339115 -1.189532,-2.7386239 -3.404906,-3.1621194 l -3.404904,-0.6508888 2.970656,3.1621194 c 3.583255,3.8141995 3.839154,3.8575845 3.839154,0.6508888 z"
     id="path3879"
     inkscape:connector-curvature="0" />
</svg>
