<?xml version="1.0" encoding="UTF-8" standalone="no"?>
<!-- Created with Inkscape (http://www.inkscape.org/) -->

<svg
   xmlns:dc="http://purl.org/dc/elements/1.1/"
   xmlns:cc="http://creativecommons.org/ns#"
   xmlns:rdf="http://www.w3.org/1999/02/22-rdf-syntax-ns#"
   xmlns:svg="http://www.w3.org/2000/svg"
   xmlns="http://www.w3.org/2000/svg"
   xmlns:sodipodi="http://sodipodi.sourceforge.net/DTD/sodipodi-0.dtd"
   xmlns:inkscape="http://www.inkscape.org/namespaces/inkscape"
   version="1.1"
   id="svg3821"
   width="53.333332"
   height="80"
   viewBox="0 0 53.333332 80"
   sodipodi:docname="icon-works.svg"
   inkscape:version="0.92.2 (5c3e80d, 2017-08-06)">

  <path
     d="M 10.598426,59.549543 C 5.1421729,48.115349 0.67796093,38.118083 0.67796093,37.333395 c 0,-0.784688 2.74115897,-6.102372 6.09145997,-11.817075 L 12.860876,15.125949 9.4360869,9.2819892 c -1.883633,-3.214178 -3.424788,-6.5412449 -3.424788,-7.393483 0,-1.11049599 5.8554981,-1.54952299 20.6666661,-1.54952299 12.510184,0 20.666666,0.512147 20.666666,1.29766499 0,0.713715 -1.286387,3.945438 -2.858639,7.181606 l -2.858639,5.8839428 6.191972,10.199019 c 3.405585,5.60946 6.191973,11.084176 6.191973,12.166033 0,1.081858 -4.455869,11.260576 -9.901933,22.619375 l -9.901933,20.65236 h -6.844273 -6.844273 z m 15.412873,1.105612 c 0,-16.368562 -0.114347,-17.067327 -3,-18.333334 -2.220328,-0.97411 -3.108989,-2.639806 -3.419368,-6.409221 -0.521001,-6.327359 1.504701,-8.906949 6.994454,-8.906949 6.565898,0 9.0277,2.518924 8.522103,8.719845 -0.322807,3.959071 -1.181116,5.609459 -3.430523,6.596325 -2.885656,1.266007 -3,1.964772 -3,18.333334 0,9.35944 0.508231,17.017162 1.129403,17.017162 0.965821,0 20.20393,-38.631266 20.20393,-40.570693 0,-0.379944 -2.787053,-5.206971 -6.193452,-10.726724 L 37.624394,16.338984 H 27.277899 16.931403 l -6.163625,10.513471 -6.1636241,10.51347 8.1534481,17.153196 c 4.484396,9.434258 8.686153,18.503196 9.337238,20.153196 2.723648,6.902358 3.916459,2.63324 3.916459,-14.017162 z M 30.19674,38.171161 c 2.925583,-2.647614 1.139507,-7.16551 -2.832767,-7.16551 -3.839433,0 -5.642837,4.136065 -3.051769,6.999164 2.592048,2.86418 2.894032,2.872716 5.884536,0.166346 z M 40.677965,8.3389832 43.398829,3.0056493 H 27.371731 c -8.814904,0 -16.027099,0.37918 -16.027099,0.842622 0,0.463441 1.248936,2.8634409 2.775412,5.3333329 2.772134,4.4854068 2.787856,4.4907128 13.306236,4.4907128 h 10.530821 z"
     id="path3831"
     inkscape:connector-curvature="0" />
</svg>
