<?xml version="1.0" encoding="UTF-8" standalone="no"?>
<!-- Created with Inkscape (http://www.inkscape.org/) -->

<svg
   xmlns:dc="http://purl.org/dc/elements/1.1/"
   xmlns:cc="http://creativecommons.org/ns#"
   xmlns:rdf="http://www.w3.org/1999/02/22-rdf-syntax-ns#"
   xmlns:svg="http://www.w3.org/2000/svg"
   xmlns="http://www.w3.org/2000/svg"
   xmlns:sodipodi="http://sodipodi.sourceforge.net/DTD/sodipodi-0.dtd"
   xmlns:inkscape="http://www.inkscape.org/namespaces/inkscape"
   version="1.1"
   id="svg3845"
   width="56"
   height="80"
   viewBox="0 0 56 80"
   sodipodi:docname="mark.svg"
   inkscape:version="0.92.2 (5c3e80d, 2017-08-06)">

  <path
     d="M 18.666667,68.323421 C 14.633333,62.285789 8.7833333,52.267258 5.6666673,46.060018 1.0244363,36.814421 3.3898304e-7,33.428465 3.3898304e-7,27.330599 3.3898304e-7,17.535599 4.1576013,9.304731 11.781522,4.0065342 17.010199,0.372898 18.561057,-0.0113 28,-0.0113 c 9.438943,0 10.989801,0.384198 16.218477,4.0178342 C 57.212085,13.036362 59.38448,27.955425 50.357335,46.165547 43.629608,59.737138 30.418993,79.321967 28,79.310454 26.9,79.305254 22.7,74.361053 18.666667,68.323421 Z M 36.158503,62.315667 C 54.522275,33.734278 56.598884,23.504579 46.396007,11.884144 40.893036,5.6166062 35.495928,3.014341 28,3.014341 c -7.495928,0 -12.893036,2.6022652 -18.3960067,8.869803 -7.906105,9.004557 -8.068813,17.325201 -0.627359,32.082229 C 12.851451,51.650459 27.003801,73.975969 28,73.975969 c 0.366667,0 4.037993,-5.247136 8.158503,-11.660302 z M 18.76344,35.808889 C 11.982843,27.188757 17.332989,15.322034 28,15.322034 c 10.667011,0 16.017157,11.866723 9.23656,20.486855 -2.307416,2.933404 -3.831639,3.513145 -9.23656,3.513145 -5.404921,0 -6.929144,-0.579741 -9.23656,-3.513145 z M 31.123567,35.175005 C 32.91054,34.360806 35.075181,32.152662 35.933883,30.268021 38.191288,25.313553 34.081411,19.988701 28,19.988701 c -6.089071,0 -10.191504,5.32438 -7.928801,10.290469 1.24345,2.729077 4.156601,5.16006 7.53273,6.285957 0.148828,0.04963 1.732664,-0.575922 3.519638,-1.390122 z"
     id="path3855"
     inkscape:connector-curvature="0" />
</svg>
