<?xml version="1.0" encoding="UTF-8" standalone="no"?>
<!-- Created with Inkscape (http://www.inkscape.org/) -->

<svg
   xmlns:dc="http://purl.org/dc/elements/1.1/"
   xmlns:cc="http://creativecommons.org/ns#"
   xmlns:rdf="http://www.w3.org/1999/02/22-rdf-syntax-ns#"
   xmlns:svg="http://www.w3.org/2000/svg"
   xmlns="http://www.w3.org/2000/svg"
   xmlns:sodipodi="http://sodipodi.sourceforge.net/DTD/sodipodi-0.dtd"
   xmlns:inkscape="http://www.inkscape.org/namespaces/inkscape"
   version="1.1"
   id="svg3857"

   viewBox="0 0 26.666668 45.333332"
   sodipodi:docname="mobile-bot.svg"
   inkscape:version="0.92.2 (5c3e80d, 2017-08-06)">

  <path
     d="m 0.80000271,43.468925 c -0.374197,-0.97514 -0.514057,-11.047789 -0.310801,-22.383665 L 0.85875671,0.47457633 H 13.525425 26.192092 V 22.474576 44.474575 L 13.836226,44.858241 C 4.5088557,45.147869 1.3135997,44.807341 0.80000271,43.468925 Z M 10.858758,40.474575 c 0,-1.333333 -1.3333343,-1.999999 -4.0000003,-1.999999 -2.666667,0 -4.000001,0.666666 -4.000001,1.999999 0,1.333334 1.333334,2 4.000001,2 2.666666,0 4.0000003,-0.666666 4.0000003,-2 z m 13.008286,-0.333333 c 0.358343,-1.091301 -0.871964,-1.666666 -3.563841,-1.666666 -2.842911,0 -4.111111,0.644282 -4.111111,2.088562 0,2.540855 6.825296,2.165665 7.674952,-0.421896 z m 0.325048,-17.666666 v -12 H 13.525425 2.8587567 v 12 12 H 13.525425 24.192092 Z M 6.8587577,5.1412428 c 0,-0.7333333 3,-1.3333333 6.6666673,-1.3333333 3.666667,0 6.666667,0.6 6.666667,1.3333333 0,0.7333333 0.9,1.3333333 2,1.3333333 1.1,0 2,-0.9 2,-2 0,-1.611111 -2.074075,-1.9999999 -10.666667,-1.9999999 -8.5925933,0 -10.6666683,0.3888889 -10.6666683,1.9999999 0,1.1 0.9,2 2,2 1.100001,0 2.000001,-0.6 2.000001,-1.3333333 z"
     id="path3867"
     inkscape:connector-curvature="0" />
</svg>
